/* XPM */
static char *c[] = {
/* columns rows colors chars-per-pixel */
"64 64 219 2 ",
"   c #161C2E",
".  c #191E2E",
"X  c #1D232E",
"o  c #1E2430",
"O  c #21262F",
"+  c #252B2F",
"@  c #282E2F",
"#  c #2B352F",
"$  c #232531",
"%  c #232931",
"&  c #2B2D32",
"*  c #252B3A",
"=  c #322D35",
"-  c #2C3231",
";  c #2A3434",
":  c #343334",
">  c #343B31",
",  c #3A3B33",
"<  c #3C3438",
"1  c #3D3638",
"2  c #433D37",
"3  c #403639",
"4  c #423B39",
"5  c #36422F",
"6  c #394737",
"7  c #474537",
"8  c #444B33",
"9  c #564B3B",
"0  c #4D5C35",
"q  c #475638",
"w  c #585839",
"e  c #65573E",
"r  c #576636",
"t  c #5D6536",
"y  c #576834",
"u  c #5E6838",
"i  c #5E7136",
"p  c #666C36",
"a  c #67683A",
"s  c #6B7136",
"d  c #63743A",
"f  c #65773B",
"g  c #6A7F39",
"h  c #74773B",
"j  c #364842",
"k  c #5A4641",
"l  c #5E4942",
"z  c #495454",
"x  c #6C5246",
"c  c #795A4A",
"v  c #566F4F",
"b  c #5A7949",
"n  c #7A6543",
"m  c #777841",
"M  c #5E626E",
"N  c #676A6A",
"B  c #86664B",
"V  c #877544",
"C  c #947B47",
"Z  c #8D6751",
"A  c #9D7153",
"S  c #A27455",
"D  c #A47953",
"F  c #AD7C57",
"G  c #AC7A58",
"H  c #B07F57",
"J  c #6D833B",
"K  c #73833C",
"L  c #7A833E",
"P  c #72883C",
"I  c #5E8258",
"U  c #688445",
"Y  c #7A8943",
"T  c #7A9245",
"R  c #658954",
"E  c #798C53",
"W  c #6E9456",
"Q  c #739D5B",
"!  c #7BA359",
"~  c #7EAA5F",
"^  c #658B6C",
"/  c #6E966E",
"(  c #739B6C",
")  c #78996D",
"_  c #679175",
"`  c #6C9472",
"'  c #719671",
"]  c #719870",
"[  c #75A167",
"{  c #7AA663",
"}  c #7BA962",
"|  c #878C3A",
" . c #8D933A",
".. c #92983C",
"X. c #9CA23C",
"o. c #A5AC3D",
"O. c #ADB33E",
"+. c #BBC13F",
"@. c #848342",
"#. c #898845",
"$. c #978447",
"%. c #8A9946",
"&. c #97994A",
"*. c #8C9651",
"=. c #989851",
"-. c #A8884D",
";. c #A9954B",
":. c #AE8255",
">. c #AD8850",
",. c #B48557",
"<. c #B58B54",
"1. c #BB8D56",
"2. c #BB9651",
"3. c #BD9951",
"4. c #8BA447",
"5. c #9DA74D",
"6. c #91AC4A",
"7. c #94B14B",
"8. c #99B74F",
"9. c #9BB94E",
"0. c #87A852",
"q. c #84A75F",
"w. c #84AD5C",
"e. c #89AD5B",
"r. c #94AF5F",
"t. c #8DB256",
"y. c #8AB058",
"u. c #94B552",
"i. c #99B750",
"p. c #9DB850",
"a. c #93B15C",
"s. c #9CB25D",
"d. c #A6A547",
"f. c #B8B542",
"g. c #A8A956",
"h. c #AFAE54",
"j. c #A4B553",
"k. c #AAB656",
"l. c #A4B951",
"z. c #ACB954",
"x. c #A4B35C",
"c. c #ABB45D",
"v. c #B4B157",
"b. c #B2BA56",
"n. c #B4B55D",
"m. c #B8B75C",
"M. c #B6B959",
"N. c #BDBA5A",
"B. c #839E6C",
"V. c #B88F74",
"C. c #82A661",
"Z. c #8DA467",
"A. c #81AA61",
"S. c #8BAD61",
"D. c #86A06A",
"F. c #8DA369",
"G. c #94A666",
"H. c #97A766",
"J. c #92AD62",
"K. c #A8AE63",
"L. c #ABB061",
"P. c #C49D52",
"I. c #C49B54",
"U. c #C5AB4E",
"Y. c #CCAD4F",
"T. c #C9B54C",
"R. c #D0B64E",
"E. c #D5BB4E",
"W. c #C7A751",
"Q. c #CDA454",
"!. c #D1AD52",
"~. c #D3B351",
"^. c #D5B950",
"/. c #BDC442",
"(. c #C7CA44",
"). c #D6C64B",
"_. c #D6CA4A",
"`. c #DBCC4B",
"'. c #CDD441",
"]. c #D8D945",
"[. c #DADE44",
"{. c #DED449",
"}. c #CEC652",
"|. c #E1DB48",
" X c #DDE343",
".X c #DDE349",
"XX c #DEE457",
"oX c #E3E546",
"OX c #E6EA44",
"+X c #E8EE44",
"@X c #E7EA4C",
"#X c #E9F044",
"$X c #E9F04B",
"%X c #EBF15B",
"&X c #E8ED67",
"*X c #EFF477",
"=X c #F0F47E",
"-X c #747782",
";X c #A4938A",
":X c #979AA2",
">X c #AEB0B6",
",X c #CCAE98",
"<X c #C5C988",
"1X c #E3DB8B",
"2X c #E9EE8C",
"3X c #F1F58A",
"4X c #DBC5B6",
"5X c #F1F4AA",
"6X c #E9ECB2",
"7X c #EEF1B4",
"8X c #F6F8BA",
"9X c #CACBCF",
"0X c #E7D9D0",
"qX c #F5F3D8",
"wX c #EBEBED",
"eX c #F9F9EB",
"rX c #F7F5F5",
"tX c #FEFEF5",
"yX c #FEFEFC",
/* pixels */
"} w.8.9.i.i.9.9.9.9.9.9.9.p.9.u.e.S.' B.B.D.[ ' _ ' D.B.] ( L.N.N.N.N.N.N.n.B.` _ _ ] H.m.K.B.] } S.S.} } } w.q.~ ~ ~ ~ ~ } } } ",
"} t.t.t.u.u.t.u.u.9.p.p.u.y.e.w.] D.F.n.n.n.L.D.D.F.L.K.F.Z.m.N.N.N.N.N.N.N.K.B.' ] F.n.N.N.K.F.G.n.L.S.} A.a.u.w.y.u.9.u.w.} } ",
"} } ~ } } ~ } A.t.u.u.p.e.) D.D.Z.n.M.N.N.N.N.M.m.N.N.N.m.m.N.N.N.M.c.c.c.N.m.K.B.[ K.n.m.c.m.m.m.N.N.c.S.a.9.a.9.9.9.9.9.t.} } ",
"} } A.S.J.J.a.r.a.a.r.L.Z.F.c.m.m.N.N.N.N.L.L.L.N.N.N.N.N.N.N.N.m.L.A.} S.L.m.m.K.H.n././.s.M.M.N.N.N.N.n.x./.a.9.9.9.9.9.t.} } ",
"S.a.r.M.M.m.N.M.m.m.b.b.k.k.b.b.M.m.M.c.L.A.} w.K.L./.n.K.K.L.c.s.} } } } S.K.c./.s.x.9.9.9.l.z./.n.c./.n.m.n./.9.9.9.9.u.y.~ y.",
"k.k.z.b.M.b.b.b.b.b.b.l.l.p.l.p.u.(.c.y.y.w.w.} } S.L.s.A.} } } } } [ } } } } } ~ y.t.u.8.9.9.9.p.s.u./.c.M./.p.9.9.9.9.u.y.a.z.",
"l.p.p.9.p.p.9.p.9.p.p.9.9.9.9.9.9.9.9.9.u.u.u.w.w.w.w.A.} } } } } } } } } } } } } Q Q ~ 0.0.t.7.9.u.t.t.a.u.a.t.9.9.9.9.9.u.9.9.",
"p.9.9.9.9.9.9.9.9.p.l.l.z.l.9.9.9.9.9.9.9.9.9.u.i.i.u.w.S.w.} } } } } } } } } } [ v q q q q W 0.t.y.~ } } ~ } y.9.9.9.9.9.9.9.9.",
"9.9.9.9.u.y.u.t.p.z.n.N.N.m./.a.u.i.i.9.p.9.9.9.9.u.u.y.y.y.~ ~ } } w.w.~ ~ } } } 6   + X X 6 q R ! } A.J.J.S.w.9.9.9.9.9.9.9.9.",
"9.9.9.9.p./.l./.z.N./.T.N.N./.L.s./.9.9.9.i.u.t.u.u.t.~ ~ ~ ~ ~ } ~ u.i.8.~ } } } 6   i 8 + @ X 6 W w.s.n.M.c.s.u.9.9.9.9.9.9.9.",
"9.9.9.9.p.b.b.M.N.N.N.b.M.M.n.n.m.m.l.i.9.u.y.y.w.w.w.w.~ w.w.w.y.u.9.9.9.t.} } [ j   o.X.| | 5 ; q %.m.N.N.N.b.l.u.9.9.9.9.9.9.",
"9.9.9.p.p.p.s./.b.N.z.p.9.p.M.N.n.n./.s.p.9.9.u.u.9.9.8.9.9.9.8.9.9.9.9.9.9.~ ! Q 5   /. X[.[.o.| 8 0 =.M.N.N.N./.s.9.9.9.9.9.9.",
"9.9.9.p.9.9.9.9.a./.p.9.9.9.p././.z.z./.9.9.9.9.9.9.9.9.9.9.9.9.9.9.9.9.9.9.6.i 0 +   o.`.).oXoX XX.8 9 *.s.c.M.M.z.c.l.l.p.p.9.",
"p.p.u.t.t.u.9.9.u.9.9.9.9.9.i.a.9.9.9.9.9.9.9.9.9.9.9.9.9.9.9.9.9.9.9.9.9.9.J # X     o.~.!.E.oX+X).V : 6 W S.c.M.M.M.N./.s./.p.",
"x.s.~ } ~ t.t.t.t.t.9.9.9.9.i.i.9.9.9.9.9.9.9.9.9.9.9.9.9.9.9.9.9.9.9.9.9.u.6 X % * * v -.I.).oX`.!.W.7 o j [ S.x.x.L.c.x.x.a.s.",
"} } } } } ~ ~ } ~ ~ t.t.t.t.t.t.t.u.u.9.9.9.9.9.9.9.9.9.9.9.7.6.t.u.6.6.6.i #   _ :X:Xz w e f.`.~.P.2.V ; o R } } } } A.} A.} } ",
"} } } } } } } } { { ~ ~ ~ ~ ~ w.y.y.y.9.9.9.9.9.9.9.9.9.7.6.d 0 0 0 0 0 0 @ .   >XwXrX>Xz O t ;.P.h e 9 @ X R } } } ~ ~ { { { } ",
"} } } } } } } } ~ w.w.w.w.w.y.8.8.8.8.9.9.9.9.9.9.9.7.6.i 0 # X + # @ @ # @ X   M 9XyXrX>Xz O 9 x - $ = 0 v Q } ~ } w.w.~ ~ } { ",
"w.w.} } w.y.} w.y.u.9.9.8.8.8.8.8.9.9.9.9.9.9.9.9.7.i 0 # X X @ s %.&.&.&. .8 @ o M 9XwXeXK.8 O o X w p 0.0.} } y.u.9.8.u.~ ~ ~ ",
"i.u.y.y.u.u.i.u.9.9.9.9.9.9.8.9.9.9.9.9.9.9.9.9.t.J > X X X J  .(.2X6X6X6X&Xh. .8 ; N -X,XXXo.,     #.k.l.i.} w.u.9.9.9.9.u.t.u.",
"p.p.u.t.9.p.l.l.l.j.l.9.9.9.9.9.9.9.u.9.8.9.9.8.6.6 X   @ h /. X2XqXtXyXtXqX5X&Xd.@.7 * w +.'.8     =.N.m.x.a.w.t.9.9.9.9.9.u.9.",
"p.l.l././.s.N.N.N.N.M.p.9.9.9.u.e.q.e.e.y.u.u.w.b & X   p O.OX+X8XtXyXyXyXyXtX*XOX].$.: O w s #   $ =.N.N.M.L.a.u.9.9.9.9.9.9.9.",
"z.N.N.N.N.N.N.N.N.N.b.i.9.9.i.C./ ` / / / w.~ ^ 6 o X @ X. X+X+X8XyXyXrXrXyXyX=X#X+XR.9 X X O . X a g.m.T.N.N.L.i.9.i.9.p.p./.9.",
"N.N.N.N.N.N.N.N.M.k.i.w.e.u.C.` ' B.) ` ` / ^ z @ X p  .'.#X+X+XqXyXtX4X,XqXyX=X$X#XE.C 2 $ .   w g.N.T.N.N.N.N.l.l.p.p.p.l.b.b.",
"z.b.b.b.b.b.b./.s.9.A.] ) C.` ' F.g.K.) ^ z j ; X % X.[.[.[.[.[.6XeX4XV.V.0XtX*X$X#X|.!.C V : . #.n.N.N.N.N.N.N./.n.a.u.i.i./.K.",
"p.p.p.p.p.p.p.p.9.y.] ] B.B.' ) g.m w 7 6 - o o $ p /.[...s s p N ;XV.G ,X0XtX*X#X#X+X^.Q.I.2 . 6 s.K.c.N.N.N.N.N.n./.L./.a.p.i.",
"9.9.p.9.p.p.l.l.J.} ] S.n.L.Z.D.m , O . @ @ % k x >.T.| 5 O & & + 4 Z D V.1X3X%X#X#X#X^.Q.Q.2 . o E } S.n.N.N.N.N.N.N.n.M.a.9.9.",
"9.9.9.p.l.z.N.M.J.F.G.n.N.N.h.m > + @ @ s ..#.-.:.2.V 1 . O e V 7 # B F ,.}.@X+X#X#X#X^.Q.Q.9 .   R } } J.N.N.N.N.N.N./././.9.9.",
"9.9.z.z.M.N.N.N.n.m.n.N.N.n.m > + s &.5.}..XE.W.W.I.e $   9 >.P.d.X.f.2.,.W.|.OX#X#X+X^.!.Q.$.:   I [ { y.z.z.z.x././.p.a.9.9.9.",
"p./.M.M.b.b.b.N.N.N.N.n.v.E > + s <X6X7X8X*X@X{.^.Q.9 X   1 C P.`. XOX{.}.).oX+X#X#X`.!.Q.Q.I.4   R { { w.a.p.p.p.u.a.9.u.u.9.9.",
"z.M.N.b.p.p.l.b.N.N.N./.m > % p /.7XtXtXtX3X$X+X).!.9 $   . 2 C U.(. X+XOXOX+X+X#X+X^.Q.Q.Q.Q.7   R } } } ~ t.9.p.u.9.9.9.9.p./.",
"z.z.z.p.9.9.9.p.M.b.z.u.0 o p /.2XqXyXyXyX3XXXOX|.|.s : .   . 2 9 e f. XOX+X+X#X$X`.~.Q.I.Q.1.1   T w.w.} ~ ~ t.t.9.9.9.9.9.9.x.",
"9.9.9.9.9.9.9.9.p.9.9.d #   |  X5XeXyXtXtX3XE.W._.OXO...8 . $ & O X 8 o.^.|.OXOXOX^.Q.I.I.H G 3   Y 9.u.y.w.y.y.t.9.9.9.9.9.9.9.",
"u.t.t.t.u.9.9.9.9.9.9.y o X .. X5XeXeX8X3X%XU.,.2.`.[.| : @ h | 7 X X C Q.~.^.^.^.Q.Q.I.H G G 3   Y 9.9.8.8.u.8.9.9.9.9.9.9.9.9.",
"t.} ~ ~ t.9.9.9.9.9.9.0 X w f.|.%X3X3X%X$X+XU.,.F 2.V , X s (.R.$.1 . C Q.I.1.1.H ,.I.H G G S 3   T 9.9.9.9.9.9.9.9.8.9.9.9.9.8.",
"} } } ~ } u.9.9.9.9.9.w % a U.{.#X$X$X+X+X+X].W.F F 9 & O  .'.(.h =   C Q.P.,.F G G G G G S l $ $ T 8.9.9.9.9.8.u.t.t.t.8.9.u.w.",
"} } } } } u.9.u.9.9.9.0 X n W.{.#X#X#X#X#X#X+X].3.F B c 3 9 p a > . O o.`.E.P.,.H G G G S l $   r 6.9.9.9.9.8.u.~ } } } t.t.~ ~ ",
"} } } } } y.u.u.9.9.9.0 X n P.`.+X#X#X#X#X#X#X XW.F G G B B B 1 .   h '.OX|.~.P.H G G S l $     Y u.9.9.9.8.u.y.~ } } } } } } } ",
"[ } } } { } } w.t.t.t.0 X n P.`.OX+X#X#X#X#X#XE.<.F F ,.:.:.>.9 - @ o.oX+X+XE.Q.H G G x = .     U u.u.9.8.u.y.~ } } } } } } } } ",
"} } } [ } { } } } } } q X n P.~.|.+X#X#X#X#X#XU.F F T.)._.`.`.O.o.o.].+X+X+XE.!.H G G Z B 3     b } y.t.t.w.} } } } } } } } } } ",
"[ } } } [ } } } w.y.y.r X a 2.W.!.|.OX+X+X+X+XY.<.Y.|.OX+XOX+XOXOXOX+X+X+X+X^.Q.I.G G G S Z =   ; W [ [ [ [ [ } } } } } } ~ } } ",
"[ [ ( [ } } } ~ 9.9.9.%.8 < C P.Q.!.|.@X+X+X+X|.`.|.+X#X#X#X#X#X#X#X#X#X+XOX^.Q.H G G G G G 3   o I ] ` _ _ ` ) ~ ~ w.w.w.w.w.~ ",
"_ ] _ _ [ [ } u.9.9.l.j.w + n 2.Q.Q.~.|.oXoX+X+XOX+X#X#X#X#X#X#X#X#X#X#XOX`.Q.I.H G G G G S 1   X v _ _ _ _ _ ' ~ ~ ~ A.q.u.t.{ ",
"} F.D.] _ ` [ u.9.9.j.N.a @ : C P.Q.Q.~.^.^.|.oXOX+X#X#X#X#X#X#X#X#XOXOX`.!.Q.I.H G G G G 9 $     ^ ` ` _ _ _ _ / / / ] ) C.C.) ",
"m.m.n.F.` ] ] S.l.z.M.b.&.8 $ a P.Q.Q.Q.Q.!.~.^.^.|.oX@XOXOXOXOXOXOX`.^.!.Q.I.H G G G G S 3 .   j ) F.F.B.' _ _ ' F.F.F.B.' ) G.",
"N.N.m.m.Z.F.F.J.b.b.z.9...8 O : V P.Q.Q.Q.Q.Q.Q.Q.^.^.^.^.^.^.^.^.^.!.Q.Q.Q.I.H G G G A k $   O b g.m.m.K.B._ B.H.m.m.N.c.G.H.m.",
"N.N.N.N.m.N.m.m.M.l.9.4.P i 5 O = V 2.P.Q.!.Q.Q.Q.Q.Q.!.Q.Q.Q.Q.Q.Q.Q.P.P.I.G G G S A k $     9 m #.v.N.m.K.B.H.m.N.N.N.N.m.N.T.",
"N.N.N.N.N.N.N.N.M.p.z.&.P J i , X : B >.I.P.Q.Q.Q.Q.Q.Q.Q.Q.Q.Q.Q.Q.Q.I.,.H G A A k 3 $     . e #.#.L.T.m.n.H.m.N.N.N.N.N.N.N.m.",
"N.N.N.N.N.N.N.N.N.n.m.=.#.L J i > $ & 1 n S <.2.P.W.P.Q.Q.Q.Q.W.P.1.:.S A A A 9 1 $ .   o $ w m #.@.k.N.N.N.m.N.N.T.M.N.N.N.N.N.",
"N.n.N.N.N.N.N.}.N.N.N.K.#.@.J J d 5 & o & 1 4 7 n A D <.2.2.:.D D S 9 < < < < + $ O O X w a h @.V @.g.b.b.T.N.N.m.m.c.x.N.N.N.N.",
"p.p./.m.N.N.N.N.N.N.N.N.=.@.J K h h a 5 & X + X & 1 1 4 7 , 1 1 < < % + $ $ X X q r u a h h | @.| 5.8.9.l.b.N.N././.a././.c./.c.",
"p.i.L.m.N.N.N.N.N.N.N.N.v.&.| L @.@.@.h a a y , % + + % % % % X + % X 8 r y y y d g g J J J L #.&.8.9.9.9.l.M.j.s.u.u.i.a.r./.p.",
"9.9.9.M.N.N.m.N.b.b.b.N.N.v.h.&.#.#.#.L L K K i a t i u u u y y y y y d g g J J J J J J P P 4.5.j.9.9.9.9.l.b.9.9.9.9.9.i.9.9.9.",
"9.9.u./.c./.x./.9.9.9.b.b.z.k.j.5.d.%.@.K P J J d b i b b J g g g g g J J J J K J P P ..6.t.7.9.9.9.9.9.9.9.l.9.9.9.9.9.9.9.9.9.",
"9.9.9.9.u.9.9.p.9.9.9.9.9.p.9.p.9.9.6.6.0.0.! R b b b b U U J J U U J J K J 4.6.6.d.8.j.a.i.i.i.9.9.9.9.9.9.9.9.9.9.9.9.9.9.9.9.",
"9.9.9.9.p.i.9.9.9.9.9.9.9.9.9.9.9.9.8.t.w.~ } Q ! Q Q Q Q Q ! Q W Q ! 0.6.6.8.z.b.M.N.b./.p.p.u.9.9.9.9.9.9.u.t.y.t.u.9.9.9.9.9.",
"9.9.9.9.9.9.9.9.9.9.9.9.9.9.9.9.8.u.y.} } } ~ ~ ~ ~ { } } { ! } { { } ~ l.l.k.N.N.N.N.N.N.c.L.z.9.y.y.t.9.t.y.~ } ~ u.9.9.9.9.9.",
"9.9.t.~ t.8.8.9.9.9.8.8.9.8.9.u.t.w.~ } { ~ w.w.~ y.~ ~ } { { ~ ~ { } ~ a.s.x.m.N.T.N.N.M.N./.n.t.~ ~ ~ y.y.~ y.w.~ ~ t.u.9.9.9.",
"u.t.~ } ~ ~ 8.9.7.t.t.8.9.8.t.y.~ ~ } ~ ~ y.8.9.9.8.u.y.} } q.w.w.w.~ ~ } A.e.s.c.M.M.n.L.s.s.r.w.y.w.~ ~ ~ y.u.u.w.} ~ t.9.9.9.",
"~ ~ } } ~ ~ y.t.t.~ ~ t.9.u.y.t.y.t.e.w.y.u.9.9.9.9.u.u.} } y.8.u.u.y.y.y.y.y.y.a.z.z.k.t.y.u.y.y.9.u.y.y.t.9.9.9.u.y.y.t.9.9.u.",
"~ } } } } } } } ~ } ~ ~ y.y.t.9.i.9.9.9.9.9.9.9.9.9.8.8.y.t.8.9.9.i.u.u.p.u.u.u.9.p.9.i.u.i.9.u.u.y.t.9.9.9.u.u.y.y.y.y.9.9.u.t.",
"} } ~ ~ y.y.} } } ~ ~ y.y.t.t.9.9.9.9.u.u.u.9.9.9.9.8.u.u.9.9.9.i.u.e.C.A.C.C.e.u.i.u.C.A.w.t.w.w.~ ~ y.t.t.y.w.~ } } } t.9.u.y.",
"} ~ t.9.u.u.t.w.~ y.t.u.9.9.u.9.9.9.u.q.q.q.q.q.u.u.~ ~ q.9.9.p.k.k.G.F.' ` ` ( S.t.} ` ] ] } } } } } ~ ~ } } } } } } } ~ y.y.} ",
"} ~ u.9.9.9.9.9.9.8.u.9.9.9.9.9.9.u.! ` ` _ ` ] { { / / ( w.j.z.N.N.m.n.F.B.` _ ] [ ` ] D.D.] [ } } } } } } } } } } } } } } } } "
};
