/* XPM */
static char *exit_open[] = {
/* columns rows colors chars-per-pixel */
"64 64 226 2 ",
"   c #161C2E",
".  c #191E2F",
"X  c #181F30",
"o  c #1C232E",
"O  c #1D2333",
"+  c #1F2938",
"@  c #22282F",
"#  c #2F392E",
"$  c #242532",
"%  c #252B31",
"&  c #2B2B34",
"*  c #292A36",
"=  c #222C3A",
"-  c #332E36",
";  c #2B3431",
":  c #283436",
">  c #26323E",
",  c #343234",
"<  c #3B3437",
"1  c #363C31",
"2  c #3A3E32",
"3  c #3B3439",
"4  c #38353A",
"5  c #403838",
"6  c #433A3A",
"7  c #4A3D3D",
"8  c #3C4232",
"9  c #374836",
"0  c #3C4E35",
"q  c #464538",
"w  c #56483D",
"e  c #495634",
"r  c #575A36",
"t  c #655A3D",
"y  c #4B633C",
"u  c #596536",
"i  c #5A733D",
"p  c #656838",
"a  c #706D3B",
"s  c #647D3D",
"d  c #687839",
"f  c #777C38",
"g  c #2A3641",
"h  c #283746",
"j  c #2C3A44",
"k  c #333E45",
"l  c #4D3F40",
"z  c #2E414D",
"x  c #34434B",
"c  c #3A484A",
"v  c #334853",
"b  c #3A4D53",
"n  c #3E5256",
"m  c #3E545B",
"M  c #3E5A64",
"N  c #584842",
"B  c #504E4A",
"V  c #455657",
"C  c #445B5E",
"Z  c #624D42",
"A  c #675545",
"S  c #6C534A",
"D  c #735848",
"F  c #745A4C",
"G  c #7A5D4B",
"H  c #705E52",
"J  c #567646",
"K  c #577847",
"L  c #557648",
"P  c #516653",
"I  c #7A6448",
"U  c #617C41",
"Y  c #756A54",
"T  c #455E63",
"R  c #4C6464",
"E  c #496669",
"W  c #4E6969",
"Q  c #576965",
"!  c #506B6A",
"~  c #4B6C73",
"^  c #507375",
"/  c #547474",
"(  c #597C7C",
")  c #6B7269",
"_  c #857F3E",
"`  c #83634B",
"'  c #8B6A4C",
"]  c #936E4D",
"[  c #887746",
"{  c #97744E",
"}  c #9B724E",
"|  c #866352",
" . c #886952",
".. c #956D53",
"X. c #85705B",
"o. c #8A7658",
"O. c #977755",
"+. c #9B7353",
"@. c #A37A4F",
"#. c #A17653",
"$. c #A57953",
"%. c #AB7D54",
"&. c #A37D5A",
"*. c #6B813A",
"=. c #7C8338",
"-. c #778C3C",
";. c #5D814E",
":. c #718D48",
">. c #7A9555",
",. c #7EA85E",
"<. c #5A807F",
"1. c #70956F",
"2. c #6C9471",
"3. c #7CA562",
"4. c #858A3A",
"5. c #899D3D",
"6. c #959C3B",
"7. c #989F3C",
"8. c #9DA33C",
"9. c #A3AA3D",
"0. c #B0B73E",
"q. c #BDC53F",
"w. c #C3C93F",
"e. c #928F4B",
"r. c #A5894C",
"t. c #A5944B",
"y. c #B39A4C",
"u. c #AA8458",
"i. c #B38355",
"p. c #B78B58",
"a. c #AA9256",
"s. c #BD9556",
"d. c #90A949",
"f. c #99B74F",
"g. c #9AB84E",
"h. c #86A95B",
"j. c #8BB158",
"k. c #95B552",
"l. c #99B650",
"z. c #B6B04A",
"x. c #A9B756",
"c. c #8F8F6C",
"v. c #A38B68",
"b. c #AD9264",
"n. c #BB9662",
"m. c #84A563",
"M. c #96A864",
"N. c #C1975A",
"B. c #C8B74B",
"V. c #D5BB4E",
"C. c #CAA757",
"Z. c #CEA554",
"A. c #C8AE51",
"S. c #D1AD52",
"D. c #D3B350",
"F. c #D3B756",
"G. c #C49A62",
"H. c #C49C63",
"J. c #CAA468",
"K. c #D0A867",
"L. c #D2AC6B",
"P. c #D0B56F",
"I. c #D7B46C",
"U. c #B9C74F",
"Y. c #C5C942",
"T. c #D4C34B",
"R. c #D9C44D",
"E. c #D1CF4D",
"W. c #DACC4A",
"Q. c #D7DB43",
"!. c #DDD349",
"~. c #E2DD47",
"^. c #E1DB49",
"/. c #E3DE54",
"(. c #DEE345",
"). c #E4E446",
"_. c #E6EA44",
"`. c #E8EE44",
"'. c #E9F044",
"]. c #E9F04C",
"[. c #EAF153",
"{. c #EBF25A",
"}. c #DEC866",
"|. c #EDF269",
" X c #EEF476",
".X c #547F82",
"XX c #5B8383",
"oX c #588588",
"OX c #5D8B8C",
"+X c #5E8F91",
"@X c #5E9192",
"#X c #638A89",
"$X c #79968B",
"%X c #629494",
"&X c #6B9896",
"*X c #669D9D",
"=X c #699C9C",
"-X c #72A29F",
";X c #6F9DA1",
":X c #6CA3A3",
">X c #76A7A5",
",X c #7EB3B3",
"<X c #AFA08C",
"1X c #88B2A8",
"2X c #85B9B9",
"3X c #85BABB",
"4X c #94C2B8",
"5X c #B2CEB3",
"6X c #E0D691",
"7X c #F1F588",
"8X c #F0F190",
"9X c #F2F694",
"0X c #C2D7B5",
"qX c #F5F8AA",
"wX c #EBE5B3",
"eX c #F6F9B5",
"rX c #F7F9BB",
"tX c #89BFC0",
"yX c #8BC2C3",
"uX c #95C6C1",
"iX c #98C8C0",
"pX c #F8FAC5",
"aX c #F7F8D9",
"sX c #FCFDEA",
"dX c #FEFEF5",
"fX c #FFFFFE",
/* pixels */
"! R V g b E W ! .X%X*X*X*X*X*X*X*X*X:X*X*X*X*X%X( R x = b W / ( XX*X*X*X*X*X*X*X*X*X*XoXv z ~ %X=X%X~ j u Y.7XwX<XV 9 { S.W./.wX",
"W R v O h T E W +X=X*X*X*X*X*X*X*X*X*X*X*X*X*X&XXXR v c R / .X&X*X*X*X*X*X*X*X*X*X*X*X~ h h E XX%X~ h 6 t.}.qXwXb.6 & I s.Z.Z.S.",
"R v O   = m v k ^ %X*X*X*X*X*X*X*X*X*X*X%X%X@X#X( Q B V Q ^ .X@X*X*X=X*X*X*X*X*X:X*X*X~ = h M ( .XW v 8 ' A././.z.q O ; a s.Z.S.",
"x O     . = k z M ^ oX*X*X*X*X*X*X*X*X%XoX/ / Q X.u.a.u.Y Q #X*X*X*X*X*X*X*X*X;X*X@XXXM h j ~ >XtXtX;XT k e.E.U.Q v j + - a r.r.",
"> O o O h M >X3X;XT M .X*X*X*X*X*X*X*X*X*X%X/ ) u.B./.P.c.) XX;X*X@X@X&X:X:X:X:X:XoXm z ~ :X4XyXtXyXtX;XT T :XyX3XtX>XM > $ $ 4 ",
"R b + j .X*X3XyX3X3X,X#X.XoX@X*X*X*X*X*X*X#XT A a.}.7XaX<X) ( #X.XW W %X3XyXyXyXyX3X3X3X3XyXyXyXyXyXyXtX,X,X3XtX3XtXtX;X.Xk + b ",
"R b + j ~ %X1XtXyXtXtX1X#X( #X%X*X*X=X*X%XoXm : I s.6X6Xe.k V ! T c b #X>X3XyXyXyXuXiXiXiXiX4X4XtXtX3X,X>X:X:X3XyXtX1X*X/ j + v ",
"n > = n E / XX,XtXtXyXyX3X2X2X3X,X:X=X#X( ( ^ M c c.J.x.>.T E T x = k ! / @X,X3X3X4X5X5X5X5X4X>X;X:X*X:X:X*X*X:X3X,X#X/ E V > > ",
"R b $ j R ! / &XtXtXtXtXyXyXyXyX4XyX4X4X3X,X3X,X1X3X1X( n C ! R c + j T ! / #X*X:X:X-X-X>X-X:X=X*X*X*X*X*X*X*X:X>X*X( W T j $ b ",
"E n + > C W W / ( 2XyX3XyXuXuXuX4X4XuXuXuXuXuXyXyX3X3X,X>X=X<.W x + k E ! ( %X*X*X*X*X*X*X*X*X*X*X*X*X:X*X*X*X%X.X^ ! W T g = b ",
"R V O > T ! ! ! ^ &X>X3XtX5X0X0X0X0X0X0X0X0X0X5X3X=X>X:X:X*XXX! v = k E ! ( *X=X*X*X*X*X*X*X*X*X*X*X*X*X*X*X*X%X/ ! ! W T g O b ",
"E n = : T ! ! ! / %X*X;X:X,X5X0X0X0X0X0X0X5X0X5X1X*X*X*X*X*XXXW T x x R ! ( OX%X*X*X*X*X*X*X*X*X*X*X*X*X*X*X%X+X/ ! ! Q T g + b ",
"E b O g R R W W / OX%X%X*X;X:X>X>X>X>X>X>X>X>X-X=X*X*X*X*X%XXXW T c x R ! ! / / oX%X*X*X*X*X*X*X*X*X*X*X*X%XXX/ / Q W W T > $ n ",
"W V O = V R W ! / / ( XX@X*X*X=X*X*X=X=X=X=X=X*X*X*X*X*X%XXXE R V - k C ! ! E ( %X*X*X*X*X*X*X*X:X*X*X*X*X*X%X%XOX/ W W R > O n ",
"R b O O = g C / OX@X%X%X*X*X*X*X*X*X*X*X*X*X*X*X*X*X*X%XoXM k S  .Z 4 b R R R / %X=X*X*X*X*X*X*X*X*X*X*X*X*X*X*XOX! T Q T g O b ",
"b =   O $ & k W oX@X%X%X*X*X=X=X=X*X*X*X*X*X*X=X&X%XOXE x 3 Z +.i.$.{ Y B j = T #X%X%X@X@X@X%X*X*X*X@X@X+X+X+X.Xv g k P R g . = ",
"+   . 5 ` ] G q k x V XX&X%X#Xc.$X=X&X&X&X=X$Xc.v.P k S ..] &.G.N.p.i.u.+.t $ B &.Y V k x x C #X=XXXb h z x x x & , D +.o.7 O   ",
"  . < ' %.i.%.} ....O.v.o.V B  .v.v.v.v.b.v.v.b.a.A $ I J.L.L.I.L.K.H.H.H.Y : A b.%...] ] ' ..v.v.Y 4 3 D ' ] ] ] { %.i.i.] 5 . ",
"    3 } %.s.J.H.s.H.K.K.u.q - ` i.p.H.J.K.L.J.H.n.H &  .L.P.I.I.I.I.I.L.L.o.- A n.L.L.G.i.i.i.p.n.O.3 B u.J.K.K.K.J.s.G.J.b.q O ",
"O O % w &.H.L.J.s.J.J.J.v.7 3 o.H.H.H.J.L.L.L.G.u.A % Y J.L.L.L.J.H.J.J.J.Y & Z b.L.L.L.G.N.n.G.G.e.3 3 v.J.L.L.L.J.G.G.n.I & O ",
"b x O * Z +.&.&.#...F A 7 & & w ..&.#.#.v.G.n...D < @ 6 | &.&.%.&.+. .S A 5 @ , Z o.b.b.#.#...D Z N $ & w F ..u.&.u.$.I N , O j ",
"R n O , G +...+.%.#.` ` D - & w ..#...+.%.%.%.#.` 7 o 6 ` #.$.$.......I G w @ < D r.p.%.%.%...` I N & - Z ` +.#.&.#...` D , O n ",
"! n O 5 +.%.+.%.i.i.%.%.] 5 5 ` %.%.#.$.%.N.p.%.#.w $ Z $.i.i.i.#.#.i.i.%.D $ w #.i.&.i.%.%.%.%.i.` < - I %.i.i.i.%.+.$.+.7 = b ",
"R b $ 5 #.%.%.i.i.%.%.%.] 5 - ` %.G.N.%.%.%.%.p.%.w $ A i.i.i.i.#.#.%.i.%.D $ w #.&.#.%.N.%.%.%.i.' < - F %.i.i.i.%.+.$.@.7 $ v ",
"j > O 5 } i.i.%.i.%.+.%.] 5 - ` %.G.G.i.p.i.r.%.@.w & t %.i.i.%.%.i.i.y.i.A $ w @.i.i.p.p.r.} %.i.` < - G %.i.i.i.i.%.%.#.7 o & ",
".   . 3 } i.%.%.i.i.{ @.' 3 - t &.%.N.C.V.B.y.t.0.t $ t %.%.%.%.y.V.T.B.y.t & 7 r.B.T.T.T.y.@.$.%.` < 2 [ r.%.i.i.i.i.%.} 7 .   ",
"O X . & Z } +.} y.r.I e.t & $ l G +.y.E.Q.w.6.6.6.6 $ 5 ` #...{ z.Q.Q.Q.6.5 O - =.w.Q.Q.Q.9.t t ` w @ ; a t.} r.i.%.@.#.A & . X ",
"x j X . & w N N f u q e -   . . 3 t a =.f d q q q $ $ $ 5 w w w I f =.f e % @ $ q d =.=.f u , & 5 @     ; r t D t Z t 7 &   O g ",
"R n +                       .       . @ @ & % % # r f r @ @ % % % & % % & e f r , % % % @ @ . .         .         X X X     $ n ",
"! C j O   O O O     o o . o         # u =.=.=.=.4.q.).0.4.4.=.=.=.=.=.4.4.0.(.q.4.4.=.=.f p # .     . o $ . .     X X O . . j T ",
"! ! V O $ 5 7 5 @ $ 5 7 7 l 5 $   * p q.`.'.'.'.'.'.'.'._.`.'.'.`.`.`.].].[.`.].].'.'.'.`.w.f &   & 5 6 5 7 5 $ $ 3 l 5 $ O b W ",
"! R n O - F | F 5 < S | | | | N $ 8 9.'.'.'.'.'.'.'.'.'.`.].].[.].`.`.|.7X7X7X7X|.'.'.'.'.'.9.6 $ l S Z N | S x 6 D | F 3 $ b W ",
"W R m $ - S | | S 7 S | | | | S < 8 8.'.'.'.'.'.].[. X9X9X9X9X9X9X|.]. XqXqXeXqX X[.'.'.'.'.9.8 , S F q 3 S S l S | | F 3 $ m T ",
"W E m X & N | | S 7 F  . . . .F 3 2 8.`.'.'.'.].|.9XpXfXfXfXfXfXdXqX{.].`.'.'.'.'.'.'.'.'.`.9.8 , S  .S 7 S G Z F | | F - $ V W ",
"! W V $ X - F ..| Z ` ..+.+.r.I w < f w.'.'.'.[.7XeXaXfXfXfXfXfXdXpX9X7X|.].'.'.'.'.'.'.'.Q.=.# 3 I r.I N G ..| ....| N & $ m T ",
"! W T g O - | %.$.+.%.i.i.s.B.r.S 4 8 8.'.'.'.`.].{.qXfXfXfXfXfXfXaXrXeX7X{.].'.'.'.'.'.'.8.0 @ N y.B.r.G ..%.+.#.%.| 3 X g T W ",
"! W R V O - | %.$.+.$.%.i.N.B.r.F 3 2 8.'.'.'.].|.9XpXfXfXfXfXfXfXpX9X9X7X7X X].'.'.'.'.`.9.q , e.Y.!.y.] $.%.+.$.%.| - $ b R W ",
"Q W E n $ - | $.%.+.%.%.%.s.B.t.[ q 2 7.'.'.'.{.qXsXdXdXdXdXdXdXdXdXsXsXsXsXqX[.'.'.'.'.`.9.8 < e.W.!.s.$.%.%.+.$.%.` 3 + b R ) ",
"Q E T k O - | %.%...#.+.$.p.z.y.t.r 2 8.'.'.'.[.7XeXrXrXrXrXrXrXpXpXpXpXrXeX7X].`.`.`.`._.8.8 q e.Q.^.Z.i.%.&.+.$.%.` 3 X c Q ..",
"E T x + O * Z #.%.+.#.+...%.p.y.0.u 1 8.'.'.'.`.].].[.[.[.[.[. X7X9X9X X{.{.[.'.`.`.`.`.Q.=.# e 0.).W.K.i.+.#.+.%.%.S * X * H a.",
"T x O     X 5 +.%.$.%.#.+.i.s.E.q.u 1 8.'.'.'.'.'.'.'.'.'.'.[.9XsXsXsXeX7X X|.].'.'.'.'.9.q o r U.~.F.J.p.+.&.%.%.+.7 .   & [ T.",
"x = X X     3 { i.i.%.' ..n.C.W.q.p 1 8.`.'.'.'.'.'.'.'.'.'.[. XeXrXpXeXeXqX7X].'.'.'.'.9.8   r w.).I.K.&.&.G.p.%.+.5     - e.E.",
"v v z h O   3 ] %.i.{ N  .G.C.W.w.r # =.Q.'.'.'.'.'.'.'.'.'.'.].[.{.[.[.{.[.].'.'.'.'.'.8.8 o r q.^.}.G.+.O.n.p.i.} 5 . O % a s.",
"*X+X+X.Xz O - G %.i.] Z O.J.C.W.w.p   q 8.'.'.'.'.'.'.`.'.`.`.'.`.'.'.'.'.'.'.'.'.'.'.'.8.8   r q./.L.b.Y  .G.N.%.| - O j j x I ",
",X:X*X@X~ = = S $.i.} I b.L.C.W.Y.4.# 1 6.'.'.'.`.`.`.`.`.`.).).`.'.'.'.'.'.`.'.'.'.'.'.9.2 O p Y./.I.a.A ] N.p.#.S & + E oXM T ",
"yX,X:X+XE +   5 } i.#.+.G.L.C.T.(.0.r 1 6.'.'.'.`.~.~.~.~.).~.~.`.'.'.'.`.`.`.`.`.`.'.'.8.8 , [ T.W.F.O.D ] p.i.+.7 X + M +X%X:X",
"yX,X%XE h     3 +.i.%.&.J.P.K.C.!.w.p 1 7.'.'.'.).^.R.R.R.^.).~.).`.`.).~.^.^.^.)._.`.'.9.8 6 t.V.S.G.u.] $.i.i.+.3   X h E %X,X",
",X>X.Xv = = O - G %.%.&.H.L.C.Z.!.w.u 1 7.'.).~.^.^.!.!.W.^.^.R.R.^.^.R.D.D.D.R.^._.'.`.8.2 r 0.E.Z.G.u.+.%.i.%.` , X O g z ( :X",
"@XXX^ T C n : O 7 { %.%.H.J.N.N.W.w.p 1 6.).^.R.R.R.R.R.R.R.V.S.S.S.S.S.Z.S.W.~._.`.'.Q.4.1 r w.W.s.p.i.%.%.%.} 7 $ > V C T ! .X",
"oXXX! Q W W n O < ] i.p.J.G.i.N.W.Y.p 2 8.`._.).~.).).).).~.R.S.Z.Z.Z.Z.Z.V.).`.'.'.'.9.e @ r 0.T.s.i.i.i.%.N.] 5 $ v R R W Q #X",
"%X#X( W ! W n + < ] i.s.N.N.%.p.B.0.r 2 7.`.).~.~.~.~.~.~.~.V.S.Z.Z.Z.Z.D.!._.`.'.'.`.8.2   u 0.A.i.i.i.i.i.i.} 5 = n W ! ! / +X",
"*X*XOX! ! W C > 5 ] i.i.p.i.%.@.r.r.w 1 7.).W.D.V.R.R.R.V.D.S.Z.Z.Z.S.D.R.!.~.~.~.)._.8.2   r t.p.i.%.i.i.i.%.` < & V E C T .X*X",
"oXoXoXR C W R n 7 ] %.%.%.i.%.#.$.} 7 1 8.).!.V.^.~.~.~.V.Z.Z.Z.Z.Z.D.W.R.V.D.D.V.W.).8.2 . 7 { #.@.%.%.%.i.} 7 % b R n j g E OX",
"h v M h z n W m k G +.%.i.i.%.#.$.] w 1 7.`.).).).`.`.~.V.S.Z.Z.Z.Z.S.D.S.Z.Z.S.D.W.).8.2   7 ] #.#.%.%.$.%.] 5 + n V z & ; z M ",
": ; : # # 9 V b & 7 ` #.%.%.%.+.@.} w q 7.`.'.'.'.'._.^.D.Z.Z.Z.Z.Z.Z.Z.Z.Z.Z.V.!.!.).8.2 o w } %.+.%.%.+.%.{ 5 O z : # e y # > ",
"y e 9 e u u y 9 X - ` #.$.%.%...] @.` t 7.'.'.'.`.).~.V.Z.Z.Z.Z.Z.Z.Z.Z.Z.Z.Z.V.W.R.B._ # < ` %.#.#.%.#.+.$.] 3 o : @ e d i # o ",
"*.i u *.*.*.d e $ - F .. .#.$.| | $.} t 4.Q.'.'._.Q.V.z.t.t.t.t.r.t.t.t.y.N.Z.D.D.Z.r.w o q ' } ` ' #.#.} @.] 5 o 9 9 u *.i 0 # ",
"*.*.*.;.i *.*.0 @ $ Z A Z ] ] S F $.} w e 7.q.q.q.0.z.5.>.>.>.>.>.e.>.>.e.t.t.y.y.y.[ 1 . 5 A Z w w G ....@.` , : 0 y i *.*.u u ",
"*.*.L L i *.i 9 . o - , 3 D ` 7 A #.+.q @ q d -.5.d.d.,.3.3.,.j.j.h.,.,.>.>.e.e.d.t.t.A 1 , 8 e 9 1 7 S | ` e # e i K *.*.*.*.*.",
";.i L L L i e : @ o ; 8 2 7 w 7 Z [ ' w ; # e u -.g.g.j.,.,.j.k.f.k.j.j.j.j.j.j.k.x.x.d.U e 0 i i e 1 7 t w 9 0 i *.;.i *.*.*.*.",
"y L L ;.L J 0 9 9 # 0 y e 8 8 e p d f d s s s :.d.g.g.f.j.j.f.g.g.g.k.k.k.k.k.k.l.x.g.k.k.-.*.i s i y r y e y i *.;.*.;.*.*.*.*.",
";.i y ;.i J y L y P L U i e y i *.*.-.d.g.f.f.g.g.g.f.f.k.g.g.g.g.l.m.3.3.m.m.j.l.l.k.m.,.,.>.:.i K J *.*.;.*.*.y ;.y i i *.*.;.",
";.y ;.*.*.*.*.i ;.*.*.*.*.*.d *.*.-.>.>.m.h.m.h.k.k.,.,.j.f.f.g.x.x.M.m.1.2.2.1.m.j.3.1.1.1.>.;.K J J J ;.i L L ;.i L L i ;.i i ",
"i ;.*.*.*.*.*.*.*.*.*.*.*.*.*.*.*.:.>.2.2.2.2.1.>.3.1.2.1.m.g.x.P.U.J.x.M.3.2.2.1.3.2.1.m.m.2.;.;.K J J L L L L L L L ;.i L L L "
};
