/* XPM */
static char *exit_close[] = {
/* columns rows colors chars-per-pixel */
"64 64 142 2 ",
"   c #0D0F1A",
".  c #0E111B",
"X  c #161C2E",
"o  c #1A1E2F",
"O  c #181E30",
"+  c #1C202F",
"@  c #1B2333",
"#  c #1E2738",
"$  c #1E2939",
"%  c #2E2423",
"&  c #222432",
"*  c #292A34",
"=  c #222D3D",
"-  c #3A3339",
";  c #443A3C",
":  c #4A3E3C",
">  c #4C403C",
",  c #55453E",
"<  c #293541",
"1  c #2E3C46",
"2  c #2E3E48",
"3  c #2E434F",
"4  c #31424C",
"5  c #2F4450",
"6  c #314753",
"7  c #314854",
"8  c #3A4C52",
"9  c #3E5257",
"0  c #36505B",
"q  c #3D525A",
"w  c #594644",
"e  c #524B42",
"r  c #584D42",
"t  c #5B5145",
"y  c #40565C",
"u  c #435A5F",
"i  c #604B47",
"p  c #644D48",
"a  c #665048",
"s  c #685048",
"d  c #655A49",
"f  c #745A45",
"g  c #795D46",
"h  c #7B5C4E",
"j  c #7D5D50",
"k  c #7F6048",
"l  c #425D68",
"z  c #4B6464",
"x  c #4E6867",
"c  c #46606C",
"v  c #45686F",
"b  c #506665",
"n  c #546966",
"m  c #596C67",
"M  c #506B6A",
"N  c #54706F",
"B  c #456970",
"V  c #4B7177",
"C  c #4D747A",
"Z  c #557575",
"A  c #577A7A",
"S  c #597E7D",
"D  c #797369",
"F  c #836449",
"G  c #87684B",
"H  c #856353",
"J  c #8A6653",
"K  c #966E53",
"L  c #8B7755",
"P  c #977051",
"I  c #987054",
"U  c #957E58",
"Y  c #9B7A5A",
"T  c #A17654",
"R  c #A57953",
"E  c #A97C53",
"W  c #A27F5D",
"Q  c #97815A",
"!  c #9D855B",
"~  c #AF8055",
"^  c #A5815D",
"/  c #A8845F",
"(  c #B48355",
")  c #B1895A",
"_  c #B88858",
"`  c #BE925E",
"'  c #90856B",
"]  c #BA9662",
"[  c #C1945E",
"{  c #C39760",
"}  c #C19A63",
"|  c #CCA266",
" . c #C6A569",
".. c #CDA669",
"X. c #CEAB6C",
"o. c #D2AD6D",
"O. c #D6B06D",
"+. c #D9B36F",
"@. c #DAB570",
"#. c #5C7F87",
"$. c #578082",
"%. c #5A8484",
"&. c #5D8088",
"*. c #5E8B8B",
"=. c #5E9092",
"-. c #628585",
";. c #61868D",
":. c #638A8A",
">. c #688E8E",
",. c #799183",
"<. c #648B91",
"1. c #688F96",
"2. c #619495",
"3. c #669D9D",
"4. c #699F9E",
"5. c #739D9E",
"6. c #6DA19E",
"7. c #689FA0",
"8. c #6BA1A1",
"9. c #75A4A5",
"0. c #78A5A5",
"q. c #71A7A8",
"w. c #73AAAB",
"e. c #7AAAAA",
"r. c #7EB4B5",
"t. c #87AFA2",
"y. c #87B1A4",
"u. c #8AB3A5",
"i. c #91B7A7",
"p. c #82B4B7",
"a. c #80B7B8",
"s. c #86BBBC",
"d. c #88BDBF",
"f. c #ADC9AE",
"g. c #B4D3BB",
"h. c #B9D5BA",
"j. c #CCDCB5",
"k. c #D0DEB5",
"l. c #88BFC0",
"z. c #8CC3C4",
"x. c #90C5C3",
"c. c None",
/* pixels */
"M 3.3.3.l.z.z.z.6.3.3.3.$ 0 %.:.*.6.6.8.3.3.7.3.3.3.3.7.3.3.3.3.3.3.3.3.3.l.w.6.$ 5 7 =.8.8.3.3.3.w.r.z.z.z.z.z.Z M M M 9 A 3.3.",
"M 2.3.3.z.w.z.z.8.3.6.3.$ X z 5.=.=.=.8.3.3.3.3.3.3.3.3.6.S S S S S r.a.r.w.3.3.$ X B =.=.8.3.3.7.$.%.l.z.z.z.2.:.M M x x M A A ",
"M 2.3.3.w.3.w.w.3.3.3.0 @ o = s.r.r.r.6.3.3.3.3.3.3.3.$.A M M M x 5.z.w.w.8.3.3.$ X =.6.8.3.3.3.6.N 9.l.z.z.w.=.3.*.M M M M x x ",
"M A 3.3.3.3.3.3.3.3.$.q 8 8 8 9.w.w.w.3.3.3.3.3.$.S S M 2 < < z *.s.w.3.3.3.3.3.C @ 5 =.8.3.3.3.S M s.z.w.w.8.8.3.3.N M M 1 z M ",
"< %.3.3.S 3.3.3.3.S M M M M M A r.r.6.r.r.8.3.3.q.9.0.N 9 *.$ z S 8.3.3.3.3.3.3.3.$ X 5 7 2.3.3.M *.q.w.6.3.8.=.=.6.N x M @ = x ",
"X 4 7 Z M 2.3.3.S M M b M M x M s.z.r.z.z.r.r.r.z.z.z.0.9.l.1.M x 3.3.3.3.3.3.3.3.C q @ o 6 7 A 3 =.3.3.3.3.3.3.8.6.*.M M @ o z ",
"$ X X < %.3.3.$.M M M M 1 z M M %.l.z.z.z.z.z.z.z.z.z.z.z.w.w.N x 3.3.3.3.3.3.3.3.3.N 9 @ X X = X =.3.3.3.3.3.3.6.3.3.N M @ X = ",
"1.C @ &.r.7.3.M M M M M @ z M M *.w.w.w.w.w.z.z.w.w.w.w.w.3.3.N x A 3.3.3.7.3.3.6.S 1 < X #.<.<.*.r.3.3.3.3.3.3.3.3.3.N M @ X + ",
"z.a.<.l.z.a.8.4 < < < < @ z x x 6.3.3.3.3.3.w.w.3.3.3.3.3.3.6.M 1 x 2.6.3.3.3.3.3.3 + %.<.l.z.z.z.z.r.y 7 =.3.6.3.$.S M M @ X X ",
"z.w.z.z.z.z.r.1.:.= X X X z M M =.3.3.3.3.3.3.3.3.3.6.3.3.3.3.N # = Z 3.3.3.3.3.3.<.<.d.z.z.z.z.z.z.z.q @ 3 6 C $.x M M 1 + X X ",
"w.7.l.z.z.z.z.z.z.1.<.# X z x M A S =.6.3.3.3.3.3.3.3.3.3.3.3.N 9 @ z A 2.6.3.3.r.z.z.z.z.z.z.z.z.w.w.N 9 @ X z x M M x @ X X X ",
"3.3.z.z.g.h.x.z.z.z.z.= X z M M %.*.6.3.3.3.3.3.3.3.3.3.3.$.A M x @ z x A 3.3.r.z.z.z.z.z.z.z.z.g.f.6.N x 9 @ z x x 4 < + X X X ",
"3.3.w.d.j.j.h.x.w.l.l @ X z x x 3.6.3.3.6.6.3.3.3.8.8.3.3.>.M M x # = x M 2.3.d.z.z.z.z.z.z.g.h.i.y.8.V x M q 1 < < + X X X 7 9 ",
"3.3.3.w.y.j.k.x.8.l @ X X < z M A S A A A =.3.6.6.=.3.3.3.3.V M x @ X z M A r.z.z.z.z.g.h.h.j.i.8.8.6.N M M M @ X X X + X X < = ",
"3.3.3.3.3.y.y.w.7.$ v V :.<.9.N x x x x v A S S A 3.3.3.3.S M x M @ 8 M 5.0.l.z.z.z.g.j.k.k.i.8.3.3.3.*.M M 1 + X X 8 @ X X + 7 ",
"=.3.3.3.3.3.3.7.r.1.r.r.z.z.z.<.*.*.N x *.*.M x 1 C A $.S M M M M @ = x -.l.x.z.z.z.j.u.u.u.6.3.6.3.3.3.M *.@ X X 7 %.V @ X + z ",
"=.3.3.3.3.6.3.3.l.z.z.z.z.z.z.a.a.8.*.*.3.3.*.*.# = b M M M M M 1 o X z M -.:.l.x.>.t.4.3.3.3.3.3.3.3.3.M 8 @ B 0 %.3.3.C @ X z ",
"Z 3.3.3.3.3.0 w.z.z.z.z.z.z.z.z.w.3.3.8.3.3.$.S # X z M M M M x @ X X < < 1 z -.:.M A A 3.3.3.3.3.3.3.3.V @ X =.*.3.3.7.3.C @ < ",
"x 2.3.3.3.3.$ %.8.z.z.z.z.z.z.z.a.a.r.a.a.r.4 < O X z M M M M 1 O X #.<.;.<.9.9.m M M M 2.3.3.3.3.3.3.3.2 O @ =.6.3.3.3.3.3.$ X ",
"x 3.3.3.3.3.# z 3.q.w.z.z.z.z.z.z.z.z.z.z.z.1.y O X < z M b 1 o #.<.l.z.z.z.z.z.e.0.4 z 3.3.3.3.3.3.3.0 @ X B =.3.3.3.3.3.$.9 0 ",
"M 2.3.3.3.0 8 x e.r.r.z.z.z.z.z.z.z.z.z.z.z.z.Z @ X X < < z *.>.d.z.z.z.z.z.z.z.>.:.# z 3.3.3.3.3.3.0 X X X =.3.3.3.3.3.S M M M ",
"< 2.3.3.3.$ z *.d.z.z.z.g.h.h.h.h.x.z.z.z.z.z.Z @ X #.<.<.9.l.z.z.z.z.z.z.z.w.w.>.M @ z 2.3.3.3.0 7 @ X &.<.3.3.3.6.A S M M M M ",
"O =.7.0 7 @ z 2.q.w.w.g.k.k.k.k.k.h.h.h.x.w.w.N @ 8 -.d.z.z.z.z.z.z.z.z.z.w.3.3.3.V @ z A 3.3.0 O %.<.<.l.z.r.8.$.A M M M M x M ",
"X 5 7 O 8 8 x A 3.3.3.u.u.u.u.u.u.u.u.u.w.6.S M @ < z -.l.g.h.h.h.h.e.w.w.6.3.3.3.*.@ < z A r.<.=.l.z.z.z.z.z.%.M x M x M M M M ",
"X X X X z M x M 2.3.3.3.8.3.3.3.6.3.3.3.3.3.V M @ + = x -.,.y.u.u.u.6.3.3.3.3.7.3.3.$ X < 3.l.z.z.z.z.z.z.z.z.5 x x M M x M 1 < ",
"X X X X z M M M A 3.3.3.3.3.3.3.3.3.7.3.3.3.*.M q @ + z M x 2.6.3.6.3.3.3.3.3.3.3.0 @ #.<.d.z.z.x.z.z.z.z.w.w.$ = z M M 1 < @ X ",
"X X X X < z M M *.3.3.3.3.3.3.3.3.3.3.3.3.3.6.M x @ X z M *.3.3.3.3.3.3.3.3.3.3.0 @ #.z.z.z.z.z.z.z.z.z.z.8.3.$ + < z M @ X X 8 ",
"X X X 8 8 b M x 2.3.3.3.3.3.3.7.3.3.3.3.8.8.=.N x @ X z x 2.3.3.3.3.3.7.3.3.r.r.<.<.d.z.z.z.z.z.z.z.g.h.h.8.3.C @ + < < X 8 9 z ",
"O X X z x M M M 2.7.3.3.3.3.3.3.3.6.3.3.7.3.3.N x @ 8 x x 2.3.3.3.3.S r.r.r.z.z.z.z.z.z.z.z.z.g.h.h.k.i.y.6.3.3.$ X X X 8 x x M ",
"@ X X z x M x M 3.3.3.3.3.3.3.3.3.3.3.3.$.A S M M @ z x M S 3.3.S A x s.z.z.z.z.z.z.z.z.g.h.h.j.k.i.u.8.6.3.3.3.q @ X X z x x M ",
"# X X < z M M M 2.3.3.3.3.3.3.3.3.3.3.3.*.N x x M q x M x M A S M 2 z -.:.*.q.w.w.w.q.z.j.i.y.u.y.6.3.3.3.3.3.3.Z @ X X < < z M ",
"@ X X X z M x M 3.3.3.3.3.3.3.3.3.7.3.3.3.*.3 z M M M M M M x M 1 O z M x N =.8.3.3.3.w.y.8.3.3.3.3.3.8.3.3.3.3.*.# X X X X < < ",
"@ X X X z M M 1 7 2.3.3.3.3.3.7.3.3.3.3.6.3.= = < z M M M M M x # X = z M M 2.3.3.3.7.3.3.3.3.3.3.3.3.3.3.3.3.3.3.$ X X X X X X ",
"q @ X X #.2 < O X 5 7 2.3.3.3.7.3.6.3.3.3.A y @ o = 5.9.3 < z M 9 @ X z M M 3.3.3.3.3.3.3.3.3.3.7.3.3.3.3.3.3.3.3.$ X X X X o #.",
"M 9 @ X *.$ X #.<.<.<.r.$.A A A 3.3.3.3.S 9.0.1.<.<.l.z.1.C M M x @ X z M M A A A 2.3.3.3.7.3.3.3.3.3.3.3.3.3.0 7 @ L Q & X X p.",
"M x @ X =.C V s.z.l.z.z.e.9.0.0.r.r.a.r.0.d.z.z.z.z.w.w.w.7.N M M 9 @ z M M M M *.3.3.3.3.3.3.3.7.3.3.6.0 7 ' F g U o.} G + O S ",
"M M # X =.3.3.w.l.z.z.z.z.z.z.z.z.z.z.z.z.z.z.z.z.w.7.3.7.3.*.M M M @ < = = M M A 3.3.3.3.7.3.7.3.3.S A @ O : } | +.@...| ! & < ",
"x M @ X 2.3.3.3.w.l.z.z.z.z.z.z.z.z.z.z.g.h.h.h.x.8.3.3.3.3.3.N x 1 O X o o < - < 2.0 7 Z A A A S A 2 < O w @  .@.@.@.@.@.@.* 8 ",
"M M @ 8 2.7.7.3.3.q.w.l.z.z.z.g.h.h.g.h.j.i.u.u.w.3.3.3.3.3.3.N M @ X X w i r t i D p O l n M x x M @ O w H @ e o.@.+.@.@.@.G n ",
"M x @ z 2.3.3.3.3.3.7.w.w.l.z.j.k.k.k.i.u.8.3.3.3.7.3.3.3.3.3.M x # X w H H H H T T R * < z M M 1 < O w j ; O O ) [ [ +.@.@._ m ",
"x M y z A 2.6.3.3.3.3.3.3.w.w.u.u.u.y.8.3.3.3.3.7.1.7.7.7.7.7.V 1 O X j J T T T ( ( ( F + z n 1 X X X h H + X X ; : } +.+.{ , b ",
"M M M M M A 3.3.3.3.3.3.3.3.3.7.6.3.3.3.3.3.3.3.7.7.7.2.7.=.0 1 O X w H J E ( ( ( ( | | * < < O X X w H ; X f F F p Y W W I & < ",
"M M 1 x M M A 2.3.3.3.3.3.3.3.3.3.3.3.8.3.3.3.6.7.7.7.7.0 7 O X X X - K R ( | ....| d r O X X X X X h H & X J K K H H J H H & X ",
"M M @ = = z M A 3.3.3.3.3.3.3.3.3.0 7 =.3.3.3.3.7.0 7 2 O X X X X X X ] ..| +.+.+./ p F F + X X X w H ; O w H H H H H H H H & X ",
"M M @ X + = 1 < 6 7 2.3.3.7.0 7 7 @ X 5 7 7 7 7 2 @ o X X X X X X X X e r Y W W [ E J E ( * O X X h ; X w H T R E J R J H ; 8 O ",
"M 1 O X + X X + X X 5 6 7 7 O O w r k k k @ X X X X X X X X w w @ X X X o j H T ( ( E ( ( s + X w H @ X j R E _ I J E J ; o z 9 ",
"M @ X X X w r @ X X X X X w i i H T ( ( ( & X X w w o w i o H H p o X X f T R ( ( ( ( ( ( J & X - - O X j E ( ( J T E J @ 8 x M ",
"< O o w w H J & w i O X X j T R J E ( ( | ! & X H H + H H p H H H & X X R ( ( ( ( ( ( ( ( J & X X X f F ] _ I ( J E ( J & z *.:.",
"V # w H H J T F T J F & X - R E E } ....@.@./ * h H p H H H J H H & X X : E ( ( I E E E E R % X X f E | O._ J E E _ I ; o z 1.7.",
"7.$ h H J T ( ( ( T ( F & X E | | @.@.@.@.@.W & h H H H H J H H H & X X o R ( _ J K [ w : : o X X T E O.[ K [ E [ E J + 8 #.1.p.",
"8.# h H J E ( ( ( ( ( ( & X ` +.@.@.@.@.@.W E * - h H H J T J J H & w o X ; R E : ; : + + o X X F E | @.w H O._ E ( : X %.3.7.l.",
"8.# - j J E ( ( ( ( ( | * X  .@.@.@./ { { E E * X H H H J E R J H p H & X o ; : X X X X X X X X E E +.@.& F O._ _ ( % y Z 2.7.q.",
"8.$ X h H K ( ( | ....+.* X e Y [ W J E ( ( ( & X h H H H E ( J H H H & o X X X X X X w i + X w E E O.[ * P [ ( K , O z M A 3.3.",
"S @ X h J I | ..+.@.d , & X X K _ E J E ( ( I & X h H H J E E T H ; H p + X X X X X X H H & X P _ | [ T F E ( ( ; o X z M x 2.3.",
"M @ X K R } +./ ^ ` G F k & X R ( } E ( ( ( J & X h T E E { | [ J + H H + o X X X X , H H & F E _ O._ J E _ ( ( & X X < %.M 3.3.",
"Z 9 @ ; : Y ^ R R ( ( ( ( & X R ( +._ ( ( ( J & X K E | [ o.@...R + h H + X X X X , H H ; o R E ( [ ( J E _ ( w O X X O =.*.3.3.",
"*.M + X X P J ( ( ( K ( ( & X J K o._ ( ( ( : O g E ( +...@.@.@.( * h H o X X X X h H H + X E [ ( ( ( E ( ( ( & o X X X <.8.3.3.",
"$.1 + X X R R ( ( ( J K E G & - h W I K , : o X R ( ( o.@.@.@.@._ & - H & X X X w H H ; O f E E ( ( ( ( ( ( , o X X X X 5 =.3.3.",
"3 + X X X R ( ( ( ( R J ( ( & X - - - - O X X X R | | @.@.{ W a : F + - o X X X h H H & X R E I ( ( ( _ ( ( & o X X X X X 3 7 7 ",
"+ X X X X R ( ( P ( ( : E , o X X X o X X X X X ` +.@.@./ K J F H E % X X X X w H H ; X X R _ J ( ( ( ( ( , o X .   X X X .   X ",
". . . X X ; E ( J E , o ; o X X X X X X X X X X e Y ^ ` E R J ( ( ( F & X X X j H H & X g E I J E I ( ( , + X X c.c.  X X c.c.  ",
"c.c.c.  X X ; : ; : + X X X   X X X X X     X X X h Y ( ( ( J E ( ( ( &       h H ; o f E ( J R ( J E ( & X . X c.c.c.    c.c.c.",
"c.c.c.c.      X X X X X o . c.    X X . c.c.X X X P ( ( ( ( E ( ( I E * c.c.c.h H & o E _ ( J E ( J ( ( & o c.  c.c.c.c.c.c.c.c.",
"c.c.c.c.c.c.c.    .       c.c.c.c.X X c.c.c.  X X R ( ( ( ( ( ( ( J w O c.c.c.% - o g E ( ( R ( I J ( , o . c.c.c.c.c.c.c.c.c.c."
};
