/* XPM */
static char *exit_open[] = {
/* columns rows colors chars-per-pixel */
"63 61 210 2 ",
"   c #0F141E",
".  c #161C2E",
"X  c #181E2E",
"o  c #101622",
"O  c #191F30",
"+  c #1C212F",
"@  c #1C2333",
"#  c #1F2837",
"$  c #232532",
"%  c #2A2B34",
"&  c #222C3B",
"*  c #262C31",
"=  c #322E36",
"-  c #352F38",
";  c #26313E",
":  c #2B3130",
">  c #333434",
",  c #393436",
"<  c #343A31",
"1  c #3B3439",
"2  c #393638",
"3  c #22282F",
"4  c #403739",
"5  c #453B3B",
"6  c #4A3E3D",
"7  c #3C4332",
"8  c #4D413C",
"9  c #474837",
"0  c #53453D",
"q  c #555B35",
"w  c #555936",
"e  c #4C5234",
"r  c #65573F",
"t  c #5A6035",
"y  c #6E6A3C",
"u  c #293541",
"i  c #2D3C46",
"p  c #253240",
"a  c #303F49",
"s  c #4D3F40",
"d  c #34454D",
"f  c #38474C",
"g  c #344C57",
"h  c #3A4C53",
"j  c #324854",
"k  c #3E5157",
"l  c #3A545D",
"z  c #2D414E",
"x  c #3D5962",
"c  c #4B4642",
"v  c #5A4744",
"b  c #5D4945",
"n  c #544B44",
"m  c #5A5145",
"M  c #42565A",
"N  c #445B5D",
"B  c #4E5D5E",
"V  c #624D45",
"C  c #674F49",
"Z  c #695748",
"A  c #755A45",
"S  c #795D47",
"D  c #785A4F",
"F  c #72574B",
"G  c #7D5D50",
"H  c #58625A",
"J  c #7E6148",
"K  c #726148",
"L  c #746C56",
"P  c #485F61",
"I  c #4A6364",
"U  c #4E6867",
"Y  c #4F6868",
"T  c #42626B",
"R  c #506A69",
"E  c #596A65",
"W  c #547473",
"Q  c #567A7A",
"!  c #597D7D",
"~  c #567877",
"^  c #496B73",
"/  c #727266",
"(  c #82624A",
")  c #8B684C",
"_  c #99744D",
"`  c #866353",
"'  c #896653",
"]  c #8E6953",
"[  c #956D54",
"{  c #986F54",
"}  c #8C745A",
"|  c #9B7254",
" . c #987759",
".. c #936D4E",
"X. c #A27754",
"o. c #A57954",
"O. c #AB7D55",
"+. c #A37F5D",
"@. c #867762",
"#. c #9C7A60",
"$. c #7E8439",
"%. c #5A807F",
"&. c #7E864F",
"*. c #8A903A",
"=. c #A8AF3D",
"-. c #A7AE3D",
";. c #ACB23E",
":. c #B6BD3F",
">. c #BCC33F",
",. c #9E874F",
"<. c #AB8558",
"1. c #B48355",
"2. c #B98A59",
"3. c #B78C55",
"4. c #BD9256",
"5. c #AA8D4D",
"6. c #BBB04B",
"7. c #978D6F",
"8. c #94866A",
"9. c #828B7D",
"0. c #908F77",
"q. c #BA9764",
"w. c #A98867",
"e. c #C1945E",
"r. c #C49F54",
"t. c #C7B74C",
"y. c #D6BD4E",
"u. c #CEA554",
"i. c #CAA652",
"p. c #D1AE52",
"a. c #C7B551",
"s. c #D3B251",
"d. c #D5B950",
"f. c #C69B62",
"g. c #C69B62",
"h. c #CCA366",
"j. c #CDA669",
"k. c #C5A569",
"l. c #D3AC6C",
"z. c #D8B46C",
"x. c #DAB570",
"c. c #BFC043",
"v. c #D9C34E",
"b. c #D7CC4A",
"n. c #D8CD49",
"m. c #D4C44B",
"M. c #CED541",
"N. c #DAD848",
"B. c #CAC248",
"V. c #E0D949",
"C. c #DDE144",
"Z. c #E5E446",
"A. c #E6EB45",
"S. c #E8EE44",
"D. c #E9F044",
"F. c #EAF14C",
"G. c #ECF25E",
"H. c #E7E75B",
"J. c #EEF36D",
"K. c #EDF263",
"L. c #EFF474",
"P. c #587A82",
"I. c #558286",
"U. c #5B8282",
"Y. c #5E8A8A",
"T. c #5A8389",
"R. c #5E9092",
"E. c #658B8A",
"W. c #61858B",
"Q. c #629494",
"!. c #669D9D",
"~. c #6A9797",
"^. c #729C9C",
"/. c #789F9C",
"(. c #6C9291",
"). c #6EA29F",
"_. c #76ACAD",
"`. c #77A8A7",
"'. c #7AAFB0",
"]. c #7CB2B3",
"[. c #6CA3A3",
"{. c #6F9DA1",
"}. c #90B7A7",
"|. c #95BAA8",
" X c #84B9BA",
".X c #84B7B9",
"XX c #88B3A7",
"oX c #9EAF92",
"OX c #CFBEAA",
"+X c #B3D287",
"@X c #AED1BC",
"#X c #B3D3BB",
"$X c #BBD3B4",
"%X c #A7CEBE",
"&X c #9DC0AC",
"*X c #F2F696",
"=X c #D0DEB5",
"-X c #DCD0B4",
";X c #F5F8AD",
":X c #E2C997",
">X c #88BFC0",
",X c #8CC3C4",
"<X c #97C7C1",
"1X c #F9FBCD",
"2X c #FAFBD4",
"3X c #FAFAD8",
"4X c #FFFFFF",
"5X c #FEFEF3",
"6X c #FBFCE0",
"7X c None",
/* pixels */
"u.u.i.r X h R R R R R Q U.Q.!.!.!.!.!.!.!.!.!.!.Y.W ; k E. X,X,X,X,X,X,X,X,X,X,X,X,X,X).k I Y Q.!.!.!.!.!.!.!.R Y R d n 6.a.t.",
"u.u._ , ; N R R R Q T.U.U.Q.!.!.!.!.).!.!.!.!.!.~ U ; i I E. X,X,X,X,X,X,X,X,X%X@X@X/.~.& N U.!.!.!.^.~.9.9.!.R U d + $.S.S.D.",
"_ y , . ; d N U Y Y.!.!.!.!.!.!.!.!.!.!.!.!.!.!.~ Y ; . M U ).'.'.'.,X,X,X%X@X&X|.|.E.W # I Q.!.!.!.!.(. . .9.E U @ . C.S.S.D.",
"H f d & ; d N R Y Y.!.!.!.!.!.!.!.!.!.!.!.!.!.!.~ U ; . M R ! U.Q.!._._.'.}.&X).!.!.~.W # N !.!.!.!.T n 6.t.-X/ U + K v.S.S.;X",
"R R Y i ; M U R ! Q.!.!.!.!.!.!.!.!.!.!.!.!.!.!.~ R ; i I R %.U.!.!.!.!.!.!.!.!.).!.!.g @ I Q.).!.T O y V.*X4Xw.d . i.u.v.v.:X",
"R R k & + h R k Q !.!.!.!.!.!.!.!.!.!.!.!.!.!.!.~ R ; l R R R.!.!.!.!.!.!.!.!.!.!.!.!.; . P ! P.U.@ . 4.v.*X*Xa.@ . r i.p.u.p.",
"R k & . . & d # z I.!.!.!.!.!.!.!.!.!.!.Y.%.%.%./ / Z / E R R.!.!.!.!.!.!.!.!.!.!.!.!.; . i Q.^.^.P.# r r.S.F.$.+ . . r u.u.u.",
"a & . . . . x Q P.T l T.!.!.!.!.!.!.!.!.R.Y.W / #.6.t.<.} E Q.!.!.!.!.!.!.!.!.!.!.T l @ ^ Q .X,X,X,XP.@ Z +X+XP.Q P.+ . Z Z r ",
"d d & X j T {.,X,X~.P.P.%.Q.!.!.!.!.!.!.!.!.N L <.N.*X-X8.E (.!.U.%.U.`.].].].].].T.P.P. X,X,X,X,X,X,XP.P.>X,X,X,X,XT T . . d ",
"R R a . l Q.].,X,X,X,X'.! ~ ! Q.!.!.!.!.!.!.z 4 3.d.1X;XL a W P.W d I ].,X,X,X,X,X,X,X,X,X,X,X,X,X,X,X]._._.,X,X,X,X[.I.@ . Y ",
"R k & u N Q W.XX,X,X,X,X_././._.[.!.!.Y.P.U.N # 8 5.:XH.L f I R d # N E.(. X,X,X,X%X#X#X#X#X]._._._._.!.!.!._.,X,X~.U.Y h . i ",
"R N & & N Y Y Q. X,X,X,X,X,X,X,X.X].].`.^./.).W.U.oXoX,.f N R R & . N R Y W.`._._.}.|.}.|.}.[.!.!.!.!.!.!.!.!.>X'.R R R i @ d ",
"R R a . h Y R ~ E..X,X,X,X,X,X,X,X,X,X,X,X,X,X,X,X,X,XQ.%.Y.W U & O N Y R U.!.!.!.!.!.!.!.!.!.!.!.!.!.!.!.!.!.(.%.R R R X . Y ",
"R R i . h Y R R R E._. X,X%X#X#X#X#X#X#X#X#X#X<X]._._._._.).W U & . N Y R Q.!.!.!.!.!.!.!.!.!.!.!.!.!.[.!.!.[.R R R R R . . Y ",
"R R i . h R R R R Y.!.`._.XX$X=X=X=X=X=X=X=X=X$X`.).!.!.!.!.W U h $ N R U Q.!.!.!.!.!.!.!.!.!.!.!.!.!.!.!.!.!.R R R R R @ . Y ",
"R R i . d R R R R Y.!.!.!.!.`.}.}.}.}.}.}.}.|.|.).!.!.!.!.!.~ R R & N R R Q P.! !.!.!.!.!.!.!.!.!.!.!.!.!.I.! R R R R R . . Y ",
"R R z . h Y Y Y U W ! %.Q.!.!.!.!.!.!.!.!.!.!.!.!.!.!.!.!.I.R R d # N Y R R R Y.!.!.!.!.!.!.!.!.!.!.!.!.!.Y.Y.Y.R R R R O . Y ",
"R R i . & i N Y %.Y.Y.Y.Q.!.!.!.!.!.!.!.!.!.!.!.!.!.!.[.!.x i L J % ; I Y R R Q.!.!.!.!.!.!.!.!.!.!.!.!.!.!.!.!.R R R R . . Y ",
"R h # . . . & M Y.!.!.!.!.!.!.!.!.!.!.!.!.!.!.R.!.!.!.x g # V o.1.( S E d i u E.!.!.!.!.!.!.!.!.!.!.!.!.!.!.!.l a i R R O . i ",
"k 3 . . 8 S S c d g g I.!.!.!.9./.!.!.!.!.!.!.oX8.B g Z S S o.g.2.1.1. .J % . / 7.M g g g g Q.!.!.x g g g g g O . A } } O . . ",
"# . . 8 | 1.1...S S S @.7.H g } w.8.7.7.7.7.7.<.f.5 O ,.h.h.h.z.j.j.2.g.h.2 + <.2.( S S S S 8.7.7.% . F S S S S S 1.1.1.S O . ",
". . . A 1.1.e.h.4.f.h.h.h.n . ( 1.1.g.h.h.h.j.2.j.c O w.x.x.x.x.x.x.j.z.x.2 . q.j.h.j.1.1.1.1.1.g.% . q.h.j.h.h.h.1.h.h.h.O . ",
"p . . , ) f.l.x.f.j.x.x.z.m X } h.h.4.l.x.x.x.2.j.c . <.x.x.x.x.f.l.x.x.x.2 . q.x.x.x.j.2.g.h.h.z.% . k.x.x.x.x.x.2.z.x.V O . ",
"N h ; . , ` +.+.|  .K m m % X 8 } <. . .+.j.q.{ Z % . c } +.+.+.} <.Z m m 3 . 0 m k.<.<.{ +.Z m m + X n m  .+.+.+.1.m m O . h ",
"R R a . 8 [ [ | o.o.) J J , . 0 { o.] X.o.e.O.o.) % . c [ o.o.o.] | ) J J * . C ( j.<.o.o.o.( J J $ . A S X.o.o.O.{ ( ( + X Y ",
"R R i . A 1.[ X.1.1.1.1.1.8 . J 1.O.[ o.O.1.1.1.1.4 . ( O.1.1.1.] O.1.1.1.= . _ 1.+.1.1.1.1.1.1.1.$ . ' 1.1.1.1.O.' O.1.+ . E ",
"R R i . A 1.O.O.1.1._ O.1.8 . J 1.e.1.1.1.1.O.1.1.4 X ) 1.1.1.1.] O.1.1.1.= X _ 1.] O.1.1.| O.1.1.* . G O.1.1.1.1.) O.1.+ . B ",
"h u $ O A 1.1.1.1.1.| X.1.8 . ( X.h.e.1.1.1.{ o.1.4 . ) 1.1.1.1.o.1.1.1.1.= . _ 1.o.O.1.1.] 1.1.1.$ . G 1.1.1.1.O.o.e.1.+ . u ",
"# . . . A 1.1.X.o.1.{ X.1.8 X S [ <.2.s.n.n.,.t.n.9 . ) 1.1.X.O.y.n.n.n.<.% . _ y.n.n.n.n.{ O.1.1.3 + 6.1.{ 1.1.1.1.1.1.X . . ",
". . . . > ) 1.[ 6.n.y 5.y $ X - F o.t.Z.D.D.y :.*.% . 1 _ 1.] O.N.S.D.D.w X . , M.S.D.D.S.e 5 o.0 + . e m.] m.3.1.O.1.6 . . . ",
"k M ; X . = 5 1 9 q : 9 > X . . = 4 e q q q 3 9 3 . X . , 5 1 5 w w q q $ . X . e q q q q + X , + . . . w > q 5 5 5 5 . . . M ",
"R Y i . . . . . . . . . X X . . . . X X . . . . . *.;.< . . . . . . . X X *.;.: . X X X . . X . . . . . . . . . . . . . . . Y ",
"Y R N ; . . . . . . . . . . . . . . . $.;.;.;.:.;.C.D.>.;.;.;.;.;.;.:.;.;.C.D.>.;.;.;.;.;.: . . . . . . . . . . . . . . . M Y ",
"R R R i . 6 C C - . s C C C C = . . $.N.D.D.D.D.D.D.D.D.D.D.D.D.D.D.D.D.D.D.D.D.D.D.D.D.D.>.: . . b C C C C O . V C C O O I Y ",
"R R R i . v ` ` F - b ` ` ` ` F % O -.D.D.D.D.D.D.D.D.D.S.D.S.S.D.D.D.;X1X1X1X1XG.D.D.D.S.S.< . b ` 1 , ` ` O V ` ` ` O . Y R ",
"R R R i . v ` ` ` 4 b ` ` ` ` ` > . -.D.D.D.D.D.D.D.;X1X1X1X1X1X1XK.D.J.L.L.L.L.F.D.D.D.S.S.< . G ' C + G ` O ` ` ` ` O . Y R ",
"R R R i X % C ` ' 4 b ` ` ` ` ` 1 . 6.D.D.D.D.D.;X1X5X4X4X4X4X4X4XJ.S.S.D.D.D.D.D.D.D.D.D.D.< + D ` ` + G ` C ` ` ` ` O . Y R ",
"Q R R i . X v | O.D [ O.o.o.6.<.F = < :.D.D.D.D.K.J.3X4X4X4X4X4X4X3X1X1XG.D.D.D.D.D.D.D.D.t + . D B.<.$ | O.' X.O.` - O . Y R ",
"%.R R N u . v X.1.{ o.1.1.1.b.5.` 1 . =.D.D.D.D.D.D.1X4X4X4X4X4X4X*XL.L.F.D.D.D.D.D.D.D.D.< . b B.A.3.F O.1.` 1.O.' + . M R R ",
"%.R R R i . v X.1.{ o.1.1.<.b.5.` 1 . =.D.D.D.D.;X2X5X4X4X4X4X4X4X3X2X1X2X2XG.D.D.D.D.D.D.: + D C.D.3.` 1.1.` 1.1.' + . I R R ",
"! R R R i . v X.1.{ X.| O.1.b.5.6.e . =.D.D.D.D.1X4X4X4X4X4X4X4X4X4X4X4X4X4XK.D.D.D.D.D.D.< . D C.D.3.O.1.1.' 1.1.' O . I Y } ",
"W R R d @ . v o.1.{ X.{ ' O.4. .B.t . =.D.D.D.D.K.J.J.J.J.J.J.L.J.J.J.J.J.J.F.D.D.D.D.D.D.< + 6.S.D.z.1...1.` 1.1.' O . & @.#.",
"R R d @ . . $ ( 1.{ X.O.[ X.1.t.Z.t . =.D.D.D.D.D.D.D.D.D.D.D.;X2X3X2XK.S.S.D.D.D.D.D.D.t + . M.D.r.z.2.) 1.` O.1.- . . .  .N.",
"R d @ . . . . A 1.O.1.1.[ q.4.n.D.t . -.D.D.D.D.D.D.D.D.D.D.D.3X4X4X4X6X3X3XG.D.D.D.D.D.7 . . M.S.z.z.2.` h.1.1.1.@ . . O b.D.",
"& @ . . . . . A 1.1.1.V C q.e.b.D.t . -.D.D.D.D.D.D.D.D.D.D.D.K.J.J.J.J.J.J.D.D.D.D.D.D.: . . M.D.x.x.4.' l.1.1.1.$ . . . p.s.",
"Q.I.I.I.j . . b o.1.1.8 A h.e.b.D.t . < :.D.D.D.D.D.D.D.D.D.D.D.D.D.D.D.D.D.S.S.D.D.D.D.7 . . M.D.z.x.9 G l.2.1.[ O . . . , i.",
">X`.!.!.R.j . b o.1.1.6 } z.e.b.D.t . . ;.S.D.D.D.D.D.D.D.D.D.D.D.D.D.D.D.D.D.D.D.D.D.D.< + . M.D.x.x.% | z.2.1.` @ . P.I.@ , ",
",X>X`.!.!.h . $ ( 1.1.) q.x.e.b.S.M.e . ;.D.D.D.D.D.D.D.D.D.v.V.D.D.D.D.D.D.D.D.D.D.D.D.< + m M.D.x.4.$ O.2.1.1.= . O Q.!.I.`.",
",X,X_.!.T @ . . S 1.1.{ q.x.l.r.n.F.q X ;.D.D.D.D.v.s.s.s.V.Z.S.D.D.D.D.D.D.D.D.D.D.D.D.< X A N.r.z.1.S 1.1.1.1.+ . . p !.!.,X",
",X,X'.x @ . . . S 1.1.{ q.x.x.f.n.D.q . ;.S.D.D.D.Z.Z.Z.Z.D.S.v.Z.D.D.y.s.s.s.s.Z.D.D.D.< X B.S.3.z.2.' O.1.1.1.$ . . . & !.,X",
"[.E.~ U N I u . $ ( 1.{ f.x.f.1.b.D.q . ;.D.v.s.s.s.s.s.s.s.s.p.p.s.s.u.u.u.V.Z.S.D.D.D.< . M.D.3.3.1.] O.1.1.1 . . N P N W Q ",
"W T.Q R Y Y I u X S 1.O.h.f.1.1.b.D.t O =.D.Z.Z.Z.Z.Z.Z.Z.Z.s.u.i.u.u.u.u.V.S.D.D.D.D.q + . M.S.4.1.1.O.1.1.1.$ . N Y R Y Y Q.",
"Q.Q.%.U Y R R z . A 1.1.h.f.1.1.n.D.q . ;.D.D.D.D.D.D.D.D.S.d.u.u.u.u.u.u.Z.S.S.D.D.D.< X X M.r.1.1.1.1.1.1.1.$ . U Y R Y Y !.",
"!.!.!.%.Y Y U i O A 1.1.1.1.1.| 5.4.8 . =.S.v.s.p.p.p.s.p.p.p.u.u.u.u.u.V.S.D.D.D.D.D.< X o M.e.1.1.1.1.1.1.1.$ . U Y Y Y Q.!.",
"!.!.!.%.R Y Y I u S 1.1.1.1.1.[ o.O.5 . ;.D.d.u.V.Z.Z.Z.d.u.u.u.u.u.V.Z.y.s.p.p.p.Z.S.< X o 5.O.[ O.1.1.1.1., . N Y Y # # !.!.",
"; ; ^ x # k Y Y i S | o.1.1.1.{ O.1.6 . =.S.A.Z.A.D.D.S.d.u.u.u.u.u.p.p.u.u.u.u.u.Z.D.< . . o.1.] O.1.[ O.1.$ . U Y & . . # !.",
". . # @ O @ h Y i @ V X.1.1.1.[ o.O.6 X =.D.D.D.D.D.D.y.u.u.u.u.u.u.u.u.u.u.u.V.S.S.D.< . . _ 1.] O.1.] O.1.$ . U 3 . 7X7X. & ",
"  7X    7X7X7X+ + . b X.| o.1.{ ' O.O.4 ;.S.D.D.D.D.D.d.u.u.u.u.u.u.u.u.u.u.u.V.d.p.A.< . ) O.1.] O.1.] 1.1.$ . @ . 7X7X7X. . ",
"7X7X7X7X7X7X7X7Xo . b o.{ X.1.{ ) o.O.6 =.S.D.D.D.y.p.u.u.u.u.u.u.u.u.u.u.u.u.p.u.u.9 X . X.1.1.] O.1.' 1.1.$ . 7X. 7X7X7X. O ",
"7X7X7X7X7X7X7X7Xo . b ' 6 ( 1.8 V o.1.6 * :.D.D.D.A.A.7X7X7X7X7X7X7X7X7X5.u.u.u.u.u.= . . X.1 % $ o.] ` O.1.$ . 7X7X7X7X7X7X7X",
"7X7X7X7X7X7X7X7X7X7X7X7X7X7X7X7X7X7X7X7X7X7X7X7X7X7X7X7X7X7X7X7X7X7X7X7X7X7X7X7X7X7X7X7X7X7X7X7X7X7X7X7X7X7X7X7X7X7X7X7X7X7X7X"
};
