/* XPM */
static char *exit_close[] = {
/* columns rows colors chars-per-pixel */
"64 64 210 2 ",
"   c #161C2E",
".  c #191E2F",
"X  c #171E30",
"o  c #191F30",
"O  c #1B212E",
"+  c #1C2333",
"@  c #1F2837",
"#  c #1F2939",
"$  c #23292F",
"%  c #2D332F",
"&  c #323A2F",
"*  c #232532",
"=  c #262934",
"-  c #2B2A34",
";  c #212C3B",
":  c #322E36",
">  c #342F38",
",  c #26313E",
"<  c #2D343A",
"1  c #353136",
"2  c #3A3936",
"3  c #34323A",
"4  c #3B343A",
"5  c #453A3C",
"6  c #4A3E3D",
"7  c #38432F",
"8  c #2F4035",
"9  c #3A4634",
"0  c #424C32",
"q  c #474936",
"w  c #4C403C",
"e  c #53443D",
"r  c #59483E",
"t  c #475736",
"y  c #565836",
"u  c #625D3D",
"i  c #586636",
"p  c #5C743C",
"a  c #666B3A",
"s  c #677339",
"d  c #647C3C",
"f  c #697E3A",
"g  c #74783D",
"h  c #263441",
"j  c #293642",
"k  c #2C3A45",
"l  c #2C3C49",
"z  c #323D46",
"x  c #473E41",
"c  c #2E414D",
"v  c #33434C",
"b  c #38474E",
"n  c #354953",
"m  c #364B57",
"M  c #3A4D53",
"N  c #3E5156",
"B  c #3B555E",
"V  c #3E545C",
"C  c #3E5A64",
"Z  c #4B4241",
"A  c #544342",
"S  c #594643",
"D  c #554942",
"F  c #5C4A44",
"G  c #585147",
"H  c #415559",
"J  c #445A5E",
"K  c #505253",
"L  c #624D45",
"P  c #664E48",
"I  c #675545",
"U  c #6B5444",
"Y  c #6B524A",
"T  c #745A45",
"R  c #775B46",
"E  c #72564C",
"W  c #75594D",
"Q  c #7B5C4E",
"!  c #516E4F",
"~  c #567646",
"^  c #567747",
"/  c #5B7544",
"(  c #5B7944",
")  c #5B7B4A",
"_  c #7D624A",
"`  c #617C41",
"'  c #697C46",
"]  c #747946",
"[  c #465E61",
"{  c #455E64",
"}  c #4B6465",
"|  c #4E6867",
" . c #43636B",
".. c #486468",
"X. c #4E696A",
"o. c #506B6B",
"O. c #5E6B69",
"+. c #476A71",
"@. c #4A6D73",
"#. c #4B7176",
"$. c #4D747A",
"%. c #527072",
"&. c #547373",
"*. c #537479",
"=. c #557A7B",
"-. c #5A7D7C",
";. c #67746B",
":. c #805F4F",
">. c #805F51",
",. c #85644C",
"<. c #8C6A4D",
"1. c #946D4E",
"2. c #837842",
"3. c #97704E",
"4. c #9C734F",
"5. c #856252",
"6. c #8A6652",
"7. c #846E52",
"8. c #8D6952",
"9. c #936D53",
"0. c #986F54",
"q. c #897354",
"w. c #9C7253",
"e. c #987856",
"r. c #A27653",
"t. c #A57954",
"y. c #AC7D54",
"u. c #A47E59",
"i. c #66803F",
"p. c #6B813A",
"a. c #76813D",
"s. c #72893D",
"d. c #678344",
"f. c #7D8441",
"g. c #739652",
"h. c #74A25F",
"j. c #7CA65C",
"k. c #5A807F",
"l. c #668E6E",
"z. c #6B926A",
"x. c #72926D",
"c. c #76A360",
"v. c #7AA862",
"b. c #838242",
"n. c #8E8E4E",
"m. c #AB855A",
"M. c #B38255",
"N. c #B78B5B",
"B. c #B6915E",
"V. c #BD915D",
"C. c #8EAD4E",
"Z. c #95B24C",
"A. c #86AC59",
"S. c #AEB157",
"D. c #869C66",
"F. c #B28E61",
"G. c #BB9562",
"H. c #B89662",
"J. c #C1955E",
"K. c #C39B63",
"L. c #C59A62",
"P. c #CBA568",
"I. c #D2AC6C",
"U. c #D7B16E",
"Y. c #D8B36F",
"T. c #DAB470",
"R. c #557E81",
"E. c #5B8484",
"W. c #5A8588",
"Q. c #5D8B8C",
"!. c #5D8E91",
"~. c #5F9193",
"^. c #618485",
"/. c #618D8E",
"(. c #629494",
"). c #6A9495",
"_. c #639798",
"`. c #669C9C",
"'. c #6A9E9E",
"]. c #6DA19F",
"[. c #70A39F",
"{. c #709FA1",
"}. c #6BA2A2",
"|. c #73A5A3",
" X c #77A7A7",
".X c #74ABAB",
"XX c #7AABAC",
"oX c #7CAEB1",
"OX c #7DB3B4",
"+X c #88B0A9",
"@X c #98BCA9",
"#X c #81B4B6",
"$X c #85B8B7",
"%X c #85BBBB",
"&X c #89BEBE",
"*X c #A2BCA5",
"=X c #8DC0BE",
"-X c #99C6BC",
";X c #9DC9BF",
":X c #A9C7AE",
">X c #B2CCAE",
",X c #A9CBB6",
"<X c #A2CBBD",
"1X c #B4CEB1",
"2X c #BBD3B5",
"3X c #C4D8B6",
"4X c #88BFC0",
"5X c #8CC2C3",
"6X c #92C5C2",
"7X c #9CC9C0",
/* pixels */
"%XOX}.5X5X5X5X5X5XOXB l o ; { | &./.(.].`.].`.`.`.`.`.`.].`._.Q.[ , j @.(.].].~.}.oX5X5X5X5X5X5X5X5X%X'.J ; + < } | | | M O O   ",
"_.'.}.4X5X;X7X5X5X5XoX).h ; { X.o.=.k._.].~.`.].`.`.`.`.`._.~.E.X.N j | =./.`.]..X4X5X5X5X5X5X5X6X=X X/.| M ; c } | } N c O     ",
"E._.}.%X-X2X3X;X5XOX%X/.; ; [ o.&.!._.`.`.].~.`.`.`.`.`.`.!.k.&.| N 8 V | k.`.}.%X5X5X6X5X5X6X7X<X>X@X^.o.| N v B V v @ O   O # ",
"(.`.`.}.=X1X3X2X=X].!.l o = H o.%././.(.~.~.`.`.`.`.`.}.].].k.o.| B # j } =._..X5X5X5X6X6X7X,X2X:X[.].Q.o.| } M # + + O   O , n ",
"~.`.`.`.}. X>X,X#X!.l l l n C %.o.&.%.o.o.=././.~.~.`.`.`.~.k.&.| H = l o.k.).=X5X5X6X<X3X3X1X:X].`.`.!.$.| } v O X + + O   X # ",
"..~.`.].`.].}.|.}.). ./.{.oX#XXXk.&.&.o.o.&.=.&.@.@.Q.~.~.W.&.o.| V , V =.[.$X=X6X=X;X2X1X>X@X|.`.`.].`.W.%.B # X # c B h X + , ",
"j Q.`.`.`.`.`.~.}.4X%X4X4X5X4X4X}.]./.-.k.(./.*.} c V o.%.o.o.| } b + j } ^. X#X&X$X+X:X[.[.].`.`.~.].~.Q.%.B ; h m k.!.#.h + h ",
"c W.`.`.`.`.~.Q.{.4X5X5X5X5X4X4X%XOX].`._.`.`.W.@.; < } | | o.| N @ O , H J | ^. X{.E./.(.].].`.`.].`.`.W.V ; n k.W.~.`.~.#.h , ",
"} &.~.`.`.}.Q.m {.OX5X5X5X5X5X5X%XoX.X}..X}._...m + ; [ | | o.{ b + ; n m C { R.^.&.O.%.-.`.`.`.`.`.`.~.E.m # m !.~.`.`.`.~. .# ",
"o.$.`.`.`.~.W.k #.{.OX%X5X5X5X5X5X5X=X=X5X%X|.C j o = H | o.} M j m +..XOXOX#X#X X^.%.} &._.`.`.`.}.~.!.C # # C ~.`.`.`.`.~.+.h ",
"| %.`.`.].~.@.v %.{..XoX5X5X5X5X5X5X5X5X5X5X4X{.[ o X h H J } H +.oX$X4X5X5X5X5X#X|.R.b *._.`.`.`.`.W. .# # m Q.`.`.`.`.~.k.o...",
"N [ ~.`.~.Q.c ..R.$X4X4X6X7X7X7X7X7X6X5X5X5X5X.X{ * ; n H { /.XX#X4X5X4X5X5X5XOX X-.{ z *._.`._.!.R. .h ; m +.(.`.`.`.!.k.&.o.| ",
"@ , Q.~.R.+.h X._.OX%X$X;X2X3X3X3X2X<X7X-X4X#X|.{ ; n ).XX#X&X5X4X6X5X5X5X&XOX}.`.W.V l %.~.`.!. .c m C $..XoX}.]./.k.&.&.o.o.| ",
"O # @.@.h k c X.Q.`.]. X:X>X>X1X>X>X:X:X:X#X{.^.{ h m -.+X$X-X;X7X7X=X$XOXOX}.`.`./.{ l J &.(.!. .$..XOXOX5X5X.Xk.&.o.| | | | | ",
"    # # @ J } | =.(.`.'.].|.|.[.|.].|.}.}.`.(.%.J * h H k.+X*X:X,X:X@X|.}.}.`.`.'._.@.# k X.).#XOX4X4X4X5X5X=X].| | | | | | } N ",
"        = [ X.X.%./.`.`.`.`.`.`.`.`.`.`.`.`.(.*.[ j o j | &.k.].{.|.{.'.`.`.`.`.`.Q.C l m *.#X5X4X5X5X5X=X=XOXE.v B | | } N v # ",
"        # N | | o.E._.].`.`.`.`.`.`.`.`.`.`.`.!.X.N + , } o.k._.`.`.`.`.}.`.`.`.(.+.v +.XX%X5X5X5X5X5X5X=XOX].#.; h V | M # + + ",
"        ; c } o.&.~.`.`.`.`.`.`.}.`.`.`.`.}.`.~.o.V @ , } &.~.`.`.'.`.`.`.`.}.}.(.{ #.OX5X5X5X5X5X5X6X7X-X$X].$.c # , n c # , v ",
"; X X # J } | o.&._.}.`.`.}.`.}.`.`.`.}.`.].~.~.o.J = v | =.(.].`.`.`._.|..XoX%X4X#X%X5X5X5X5X6X;X<X<X3X:X@X}.~. .+ X + ; v [ | ",
"B + X # [ | o.| &.~.`.`.].~.}.~.`.`.`.`.~.!.!.W.o.J j J | &.Q._.(./.W.W.OX4X4X5X4X4X5X5X6X7X;X,X3X2X,X@X|.].}.~.$.h X X < [ | | ",
"[ +   + N | | | &.(.`.`.`.`.'.`.`.`.`.`.~.k.%.| X.J b } o.o.&.Q.E.X.} -.{.XX+XOX#X#X%X%X-X2X:X>X:X@X X].`.`.`._.W.m X X , M J } ",
"[ +   O ; } | | %.~.`.`.`.`.`.`.`.`.].`.].~.&.J } } } X.| o.o.o.} n k } %.&.-.`.}.}.'..X$X@X[.[.{.{.'.`.`.`.`.`.Q.B +   + @ < M ",
"[ @     @ } | | [ $.~.`.`.`.`.`.`.`.`.`.`.~.k.c M H } o.o.| X.| V = ; N | o.*._.`.`.`.`.].].'.`.`.`.`.`.`.`.`.`.~.+.+     X O # ",
"} j O O # | N M ; l #.R.`.`.`.`.`.`.`.`.`.~.k.c ; j [ ^.-.J J } J , + j } X.-._.`.`.`.`.`.`.`.`.'.`.`.`.].`.`.`.~.+.# O O X X ; ",
"| [ h O ; R.h ; m C C #.'.(././.~.].`.`.`.!.^.=.V [ #.oX}. .B | } N @ , } o.&.Q./.(.`.`.`.'.`.`.`.].`.`.`._.`.Q.$.C z e 2 + + N ",
"| | V @ # W.m C .XOXOXOX#X)././._..X.X}.}.].$X%X#X#X#X#XoX}.Q.o.X.J , , } } | o.&.E._.`.`.`.`.`.`.`.`._.Q.$.-.;.G G ] B.q.5 + m ",
"o.| [ @ ; Q.~.~.OX5X5X5X5X%X%X4X%X5X=X4X=X=X5X5X5X4XOX}.].].~.=.o.} N , M N H | &.Q._._._.`.`.`.`.`.(.W...h x 7.m.B.I.I.B.q.w h ",
"| X.[ + h !.].`.}.OX5X5X5X5X5X5X5X5X5X5X6X;X;X;X-X%X}.`.`.`.].Q.o.} v + + + < M H +.W.*.=.Q.Q.Q.Q.Q.=.V v = 3 I P.U.Y.Y.U.P.q.< ",
"o.| [ = v !.`.].}.}.OX%X5X4X5X5X;X<X<X<X,X2X:X:X-XXX].`.`.`.`.!.%.H @ X * 4 4 x x K O.b v } %.o.X.| N @ : x A D m.I.T.T.T.U.m.K ",
"o.| [ , } (.`.`.`.}.}.}.OXOX5X6X3X3X2X2X:X:X[.].].'.`.`.].`.`.!.o.N + * 6 W Q Q ,.6.7.Y 3 H | X.[ N v = x Y 6 - G H.P.I.T.U.H.q.",
"o.| | b X.W._.].`.`.`.`.}.}.OXOX:X:X:X:X].].`.`.`.`.`.`.~.}.~.Q.} l + 4 W 6.9.9.w.M.M.<.w k [ J v + + 4 E F = + w _ e.K.I.I.m.] ",
"| o.X.} X.&.Q._.`.`.`.`.`.`.}.}.].[.].].].`.`.`.`.'.].`.}.~.~.+.b + * x >.0.y.M.M.M.N.N._ < n z +   = A Y 6 - w w r Q F.H.m.E z ",
"| o.} H } | &./.~.}.~.}.`.`.`.`.`.`._.`.`.`.`.`.`.`._._.!.@.{ # + X = L 9.t.N.J.J.J.F.e.E ; + . . . 4 E L - 6 8.0.8.>.9.9.>.P * ",
"o.o.[ h b N } %.Q.~.`.`.}.`.`._._.~.#.$.(.(.`._._.R.R.+.C h o     X + w u.N.L.I.I.L.r.L S 4 .     = 6 Y x > x 6.6.6.6.>.>.>.x * ",
"o.| { + + * b M B @.$.~._._.Q.#.@. .j k +.#.@.@.@.C h o o o .   X   . 4 _ m.F.H.J.J.4.1.4.R - . o 4 Y 6 > x >.0.0.8.6.8.>.E A j ",
"o.} b X X X o * + # h  .+.@. .h : z 5 e D Z ; @ # # o   o o * 5 > o   . ; 6 5.9.y.y.y.r.y.<.4 . * x S - 4 >.r.y.y.0.0.w.Q x z H ",
"} J ;   o O 5 4 O + + + + # Z 5 Z Q 1.r.t.,.- o o 4 > * z 5 > E U 4 .   - L 9.w.y.M.M.M.y.4.L * - x 6 * 5 1.y.y.t.9.w.w.P j b } ",
"H b * . 4 x E Y = 4 4 + O * Y 6.8.9.y.M.M.m.G * j E P 5 E E x >.:.F * . 4 3.M.M.M.M.M.M.y.r.P O O * 1 6 E t.y.y.t.w.y.w.L z | R.",
"C m * x W _ 5.6.L ,.R 6 * * I w.y.t.J.J.L.I.F.S 5 E E x >.>.>.>.>.L * . 1 _ y.M.y.y.y.y.y.r.T * . : U r.H.L.t.r.t.t.t.5.x v *.).",
"{.R.j E 5.8.0.y.y.y.w.0.e * 4 m.L.L.I.U.U.Y.P.6.x >.6.>.6.>.6.6.>.P * . O 6 r.M.r.1.r.4.T :.6 O * 6 r.J.P.V.y.u.y.y.w.L 3 V W.{.",
"#X!.j Q >.8.y.y.M.M.M.M.1.= 4 N.I.U.T.T.Y.I.F.5.> L >.6.>.8.9.>.>.Y : : O > :.t.1.L L r - * . . - T M.L.H.8.u.J.N.y.8.x b R.'.|.",
"4X!.j S >.8.y.y.M.M.N.M.t.- 2 H.I.U.I.L.K.K.u.,.- > Q >.>.9.t.0.6.W A S * . 1 U r - * O .   . . w r.J.P.n.F e.L.M.y.T 3 H W.`.}.",
"%X!.; - >.6.y.y.N.J.L.V.m.- : q.H.L.F.w.M.M.y.<.= : Q 5.6.9.y.t.6.>.Q P *     o .   . * 5 : . - U y.J.P.9.F t.V.y.<.r z } -./.`.",
"{.=.@ * Q 8.t.L.V.I.P.e.] - + 4 w.m.w.9.y.M.y.,.= > Q 5.6.0.y.y.0.>.P Y 4 .         . 4 E S * 5 9.M.J.B.9.Q y.y.3.6 * z } o.R.`.",
"E.} * = >.0.N.P.L.H.N.W L 6 * > r.N.N.t.M.M.t.E * : :.0.w.t.G.N.t.E 5 W L +         : x :.P 5 U y.J.J.M.0.y.y.y.T + O ; J &.E._.",
"(.X.z = L :.m.F.t.y.M.t.t.<.* > r.N.L.N.M.M.t.Y * 4 1.M.N.V.I.I.N.Q 5 W P *       - x Q E 6 6 4.M.N.V.u.r.y.M.4.D O   + m E.Q.`.",
"_.-.J + * > 9.0.y.y.y.t.y.3.: : <.y.L.N.y.y.3.A : L y.N.I.P.U.T.L.8.5 W P * X     5 Q >.P : 6 r.M.M.M.y.t.M.y.T =     + m Q._.`.",
"`.=.b o   : 0.r.M.y.y.3.r.4.r - S 8.u.w.3.R r = 4 r.M.J.I.U.U.I.L.<.4 F S *     * 6 :.E 5 > T y.M.M.M.M.M.y.3.e +     + l $.~._.",
"Q.m +     : 3.y.M.M.y.4.<.y.,.- - e r S 6 - *   2 y.J.P.I.I.L.F.<.T 6 : 4 . . O 4 W ,.L - 6 r.y.y.M.M.M.y.y.R - O O .   O &  ...",
"C ; . +   - 4.y.y.y.y.4.U 1.L O   . O O O     O 5 m.P.I.I.F.r.5.U R R % . . . $ 6 5.Y 5 * 6 t.r.w.M.M.M.y.1.r O $ 5 & O   % 0 9 ",
"= 7 7 0 $ $ U y.y.1.4.U 5 6 - .         . O O   1 7.B.B.H.t.0.1.t.y.3.w O O $ 1 Q Q L - 1 T r.w.w.t.t.y.w.r $ O & s i & * 7 s p ",
"= i s g q $ % U U r r -   . $ 5 $ o     * 2 & O + 4 6.t.M.y.t.w.y.M.y.,.1 & 7 0 5.W 6 1 U r.r.1.r.r.r.y.R % $ & 0 s s i 0 y g p.",
"0 d a.f.g 0 0 q % % $ O O % 0 a q 0   $ 0 s p $ O 1 <.M.M.M.y.t.M.y.r.,.7 i f a Q L - 6 4.M.t.4.y.t.0.t.R - & i i f p.p.d p.p.p.",
"d p.p.a.a.g g s 0 7 7 7 5 0 g a.f i $ % s i.p 9 O 4 3.M.M.M.y.M.M.t.,.r 7 s p.s u 6 1 T y.M.y.t.t.w.0.1.e % t f f p.p.p.p.p.p.p.",
"p.p.p.p.a.p.p.p.s s f f f f f g p.s 0 t d d p 9 + - T M.M.y.t.M.y.4.U - & f p.p.a y e 4.M.M.y.r.0.9.0.T - & s p.f p.p.p.p.p.p.p.",
"p.p.p.s.p.p.p.p.p.p.p.p.p.p.p.p.p.p.i.p p ~ p ! 8 $ 5 4.y.r.1.1.T L 5 $ 0 f a.a.g g 2.2.y.y.3.T L 6.<.e % t f d p f p.p.s.p.p.p.",
"i.i.d d.p.p.i.i.p.p.p.p.p.p.p.p.i.p.( ^ ^ ^ ^ ~ ! 8 % I U U S D % - & & p a.a.f.b.b.b.2.2.2.a q 2 t 9 $ 8 i i.~ p p i.i.i.p.p.p.",
"p.i.i.d.i.p.p.i.p.p.p.p.p.p.p.p.f ( ^ ^ ^ ^ ( d p i 9 9 9 9 9 9 9 9 ! 9 ` ' ] b.b.b.b.b.b.2.] a 9 9 9 8 t ~ ~ i.i.~ ~ i.i.p.p.p.",
"i.i.^ ^ p i.i.i.p.p.i.p.p.p.i.i./ ^ ~ ~ ( d i.p.d.p.d p ^ ^ ^ p p p ^ ^ / / ( d.] f.b.f.g ' ] d.( p i ~ ~ i.i.i.i.p i.~ p.s.p.s.",
"g.d.d.^ ^ p i.i.s p p p p.i.i.p ` ` ( d d i.p.p.p.p.p.d ^ ^ d p.p.i.i.( ` ` ` d ' a.a.f.d ( i.p d.p.i.~ i.i.i.i.i.i.i.d.s.s.C.s.",
"c.c.h.g.d.! ^ ^ ^ ^ ^ p i.i.i.i.p.p.p.p.p.p.p.p.p.p.p.p.d d i.p.p.p.p.p.d f d.f p.p.p.i.i.i.p.i.i.i.i.i.i.i.i.i.i.~ d.d.C.Z.Z.Z.",
"v.v.j.h.d.i.i.! ^ ^ ^ i.p i.p i.p.f f p.p.p.i.f p.p.p.p.p.p.p.p.p.i./ ( / / / ` p.' f / / ( i.^ p ^ ^ i.i.d.i.i.~ d.! d.g.Z.Z.A.",
"j.j.j.j.s.s.d.d.d.d i.s.s.s.s.s.s.s.d.' ' ) / ' a.d.( ) ` s.s.s.f.f.] ;.! X.! ! ' d.) ! ! ! ) d.d.^ ^ d.d.! d.^ d.! d.d.h.A.A.v.",
"A.j.Z.Z.Z.Z.C.Z.C.C.Z.Z.Z.Z.Z.Z.Z.C.j.l.l.l.l.z.j.h.z.l.x.A.Z.S.S.S.S.S.D.D.l.l.x.c.l.l.D.D.l.z.h.h.h.h.h.h.h.h.h.h.c.h.j.v.v.v."
};
