/* XPM */
static char *floor[] = {
/* columns rows colors chars-per-pixel */
"64 64 48 1 ",
"  c #7FAB5F",
". c #6F976F",
"X c #6F9C6D",
"o c #729F6A",
"O c #7E9C6E",
"+ c #679175",
"@ c #6B9473",
"# c #719672",
"$ c #799970",
"% c #77A565",
"& c #7DA364",
"* c #79A863",
"= c #73A168",
"- c #9BB94E",
"; c #84AD5C",
": c #8BAD5A",
"> c #8EB256",
", c #8AB059",
"< c #93B553",
"1 c #98B750",
"2 c #9AB850",
"3 c #90B15B",
"4 c #9EB25F",
"5 c #A1B756",
"6 c #A5B952",
"7 c #ACB954",
"8 c #A5B35E",
"9 c #ABB55D",
"0 c #AFB858",
"q c #B3BA56",
"w c #B4B55E",
"e c #B9B75D",
"r c #B6BA58",
"t c #BFBA5B",
"y c #849F6C",
"u c #82A661",
"i c #8CA467",
"p c #83AB62",
"a c #8CAD61",
"s c #86A06B",
"d c #8CA26A",
"f c #97A767",
"g c #93AE61",
"h c #99A866",
"j c #91A569",
"k c #97B060",
"l c #A6AE62",
"z c #AAB061",
/* pixels */
"*;--------------::+yOOO++@OO@#7tttttte$@++@dtw$@%ap***; **;  ***",
"*<<<<<<<-----,::@OyttteOOytw$sttttttttw$+@dtttwOdtwa*p21p,--< **",
"********<<<6:@OOsttttttttttttttttr99wttw$$ttrttttttwa>-------<**",
"***aaagaaaaeOsttttttt99wtttttttttl**pzttwptq22rttttttr66-----<**",
"aa:ttttttttrqrrrrtt98*% 9wrt9999l****pz9zrq----rrrrrttt7----2>*a",
"qqrrrqrrrrq-2----q0; ;;***9l*************<<<------22rr7-----< >r",
"2---2------------------;;;;**************** <<<--2<<<<<<------2-",
"----------6666------------1;p;;****************<<,***** --------",
"---------6tttt6------------><<>***;; **************paap;--------",
"-----6676tttttt666---->>><>%**%%*;--- *******;;;;p;kttr3--------",
"-----qqttttrqrtttt6---;;;;;;;;;;,----<***   ,--66-6ttttt6-------",
"-------qrtr---qtttr6-----------------<,  ,---67tr60tttttr-------",
"---------q-----rqqrq------------------------7tttttttz99tr6666---",
"76<<>-------------------------------------2<999999zk**p9ttttr666",
"98***<><<>-------------------------------2,****  ******p99989999",
"**********><><<<<>>-------------------1><>***;,-2;**************",
"********%% %**  ;;;-------------------1;;;;;,----<;; ***********",
"******** ;;;;;;----------------1-----222------------2 ***;;; ***",
"; **;;; :---------------2-222:::::---1::::,------766-<**,---< *;",
"--;;--------------------221::+++@.:-2u++++X>---67ttr6<*p-----<>-",
"------76666---22-1------22:+@yyy++@:u+@yyyO@,227ttttt5a 2-------",
"-66766ttttt--221::::,-1,:u++dtteyO++@@jtttwss>6tttttttw>,-------",
"7tttttttttq---2:++++.:;++++#tttttwyy@ittttttwiqttttttttr------66",
"ttttttttq0-::-u++yO+++++yy+#lttttttwjttttttttttttttttttt66---6tt",
"qqqqqqqq--;+@:+@ytty++@yttyy#ttttttttttttttttttttttttttttr----rr",
"----------++yy+@ttteyyjttttejttttttttttttqqqqttttr99tttttr676---",
"------76:;+dteyitttttttttttttttt8889tttt7----qtrrk*p9tttttttt---",
"----76ttysdtttttqqrtttttqqqrttr4***p9qrr-----6q9l***attttttrq7--",
"--66ttttttttttt7---rtttq-1>>884*****p-2q----><,*****pqqqqr7-----",
"-6ttqqqttttttqq----6ttr-1>% ********,---22<,******** <----------",
"7ttq---qtttq0-------qrr-1%%%********><><22,*****;;****<--------7",
"qqq----6qqq-----------q>>  %***%********<,*****,-1;;** <<------q",
"-----------------<>>>>,*** ,; **************** ----2;;;,,-------",
"->>>-------------;;;****% ;---;**;;;*******,;* -----------------",
">***>---------------;;;** ----<*,--1;;****,-1;*<---------------<",
"**** ------------67---2,;,-----,------;;;,---1;>--------->><--1,",
"*****-----------7tr7----6667------------------22-------1;*% >>,*",
"*****>>>------77tttr7060tttt76-------->>><-----2-------;********",
"******* >>>>>7ttttttttttttr884<-->>>>;****><-2>>><---1,*********",
"*%****%****,,qqqtttttttttr4*** >,***********>,****>>>,**********",
"********,;>-----qttttttq84*,;;*********%******** %%oooo*********",
"oo==***;-----677qttttt02;,,---;;;;**************%%X+++.O, ;;;,;;",
"++++o=*----70ttttttttr------->>>>,**********%%====+++++#;;;;:21%",
"sis+++%---7tttttttttt7------1;;*************%X++@X++++++++++.;&#",
"ttts+++;77rq7qqqttttt---------2,;*******%***X+++.ddsy+++#yjjy+#h",
"ttttddijtq7-----qtttr7-77--------;,;;******=++#dftttwy+#htttwyht",
"ttttttttt-------67qttr7tr6----------<****%XX+@fttttttz#htttttttt",
"ttttttttr-777------qtttqqq6----------;43kgds@ftttttttwhttttttttt",
"ttttttttt7ttt7------q77---7----------7t7qttefttttttttttttttttttt",
"qqtttttttttttt---77-----------------6t7--qtttttttt7qqttttrqqtttt",
"--qttttttttttt--7tt77----------------7---6777qttt6--6qttq6-6qqr7",
"-22ttttttttttt6qttttt777770666---------------6qtr----6t6-----66-",
"---tttttq7qttttttttt7q767q7q77----------------607----6r---------",
"---qqq07---qq77q7777---;,>,,<------------------------66---------",
"--------------------->  **** >-,>>>------066--------------------",
"------------------->,* %******,*** >---7qttt6--2-------,>>------",
"---1-------------1, %%  ***********;777tttttt7772,,>-<;   >-----",
"--,,>-----------,; %% ;,,,;*********k88ttttttttq3%  ,; ,;* ,----",
"-,** ,---,>---,, %%  ,-----;***,;;****pk8ttrh444*>    ,-<;  >---",
"  **% ,,, *>--,,,,,,;------1**,---,,,,,><709,,,,>2-;,,---<,,>---",
"*********%**,,>-------------:>-----222-----1----2,>2----,,,,--->",
"***,,;***% ,;,,------------------1uupuu:--1uu;->,**>-,,;*%  >--,",
"**,---,,,,>-------1uuuu;-1&pu---07jy+@+@;1&++@*****p;******* ,;*",
"**----------------O+++++;&++@:-0tttejs++@&+#jd+=****************"
};
