/* XPM */
static char *floor[] = {
/* columns rows colors chars-per-pixel */
"60 62 234 2 ",
"   c #B29678",
".  c #B49878",
"X  c #B89D79",
"o  c #BA9E79",
"O  c #BBA277",
"+  c #BFA777",
"@  c #BBA079",
"#  c #BDA37A",
"$  c #BEA47A",
"%  c #BFA57A",
"&  c #C0A57B",
"*  c #C0A67A",
"=  c #C2A87B",
"-  c #C3A97B",
";  c #C4AA7A",
":  c #C4AA7B",
">  c #C5AA7B",
",  c #C5AC7B",
"<  c #C5AB7C",
"1  c #C6AB7C",
"2  c #C9AF7C",
"3  c #CAB17C",
"4  c #CCB27D",
"5  c #CCB47C",
"6  c #D0B87C",
"7  c #D1B97C",
"8  c #D2BA7C",
"9  c #D3BB7D",
"0  c #D5BE7D",
"q  c #DCCD75",
"w  c #D6C17B",
"e  c #D7C27B",
"r  c #D7C07D",
"t  c #D8C27B",
"y  c #DAC27E",
"u  c #DBC37E",
"i  c #DAC27F",
"p  c #DBC57E",
"a  c #DCC57E",
"s  c #DDC67F",
"d  c #DEC77F",
"f  c #DEC87E",
"g  c #DFC97E",
"h  c #DFC87F",
"j  c #E0CB7D",
"k  c #E0CA7F",
"l  c #E1CA7F",
"z  c #E1CB7F",
"x  c #E2CB7F",
"c  c #E1CD7D",
"v  c #E1CE7D",
"b  c #E2CE7C",
"n  c #E2CF7C",
"m  c #E3CF7C",
"M  c #E2CC7F",
"N  c #E3CC7F",
"B  c #E3CD7F",
"V  c #E4CE7F",
"C  c #E2D575",
"Z  c #E4D676",
"A  c #E4D874",
"S  c #E5D874",
"D  c #E5D875",
"F  c #E6DA74",
"G  c #E8DC75",
"H  c #E8DD75",
"J  c #E9DF74",
"K  c #E4D27B",
"L  c #E6D47B",
"P  c #E3D07C",
"I  c #E7D47D",
"U  c #E7D47E",
"Y  c #E8D67C",
"T  c #E8D47E",
"R  c #E8D57E",
"E  c #EADB79",
"W  c #ECDE78",
"Q  c #ECDF78",
"!  c #EDDF78",
"~  c #EDD97F",
"^  c #EDE177",
"/  c #EEE177",
"(  c #EDE276",
")  c #EEE277",
"_  c #EFE476",
"`  c #EDE078",
"'  c #EDE178",
"]  c #EFE179",
"[  c #F0E576",
"{  c #F0E676",
"}  c #F1E676",
"|  c #F1E776",
" . c #F1E677",
".. c #F4ED73",
"X. c #F2E875",
"o. c #F2E975",
"O. c #F3E975",
"+. c #F3EA75",
"@. c #F2E876",
"#. c #F3E876",
"$. c #F3E976",
"%. c #F5EA77",
"&. c #F5EB77",
"*. c #F6EF74",
"=. c #F7EE75",
"-. c #F7EF75",
";. c #F5EC76",
":. c #F7ED76",
">. c #F6EC77",
",. c #F6ED77",
"<. c #F7EE76",
"1. c #F0E378",
"2. c #F0E379",
"3. c #F1E37A",
"4. c #F1E479",
"5. c #F2E579",
"6. c #F5E67B",
"7. c #F5E77B",
"8. c #F3E07F",
"9. c #F3E17F",
"0. c #F3E27E",
"q. c #F3E27F",
"w. c #F4E57C",
"e. c #F4E47D",
"r. c #F4E67C",
"t. c #F4E978",
"y. c #F6EA78",
"u. c #F6EB78",
"i. c #F5E87A",
"p. c #F5E97A",
"a. c #F6EC78",
"s. c #F7EF79",
"d. c #F7F073",
"f. c #F7F074",
"g. c #F8F273",
"h. c #F8F074",
"j. c #F8F174",
"k. c #F9F378",
"l. c #F9F379",
"z. c #F9F37A",
"x. c #F9F37B",
"c. c #F9F47C",
"v. c #F9F47D",
"b. c #DDC580",
"n. c #DFC781",
"m. c #E2CA81",
"M. c #E3CD80",
"N. c #E4CD80",
"B. c #E4CE80",
"V. c #E5CF80",
"C. c #E6CF80",
"Z. c #E6D080",
"A. c #E6D081",
"S. c #E7D081",
"D. c #E7D181",
"F. c #E8D181",
"G. c #E8D281",
"H. c #E9D281",
"J. c #E8D082",
"K. c #E8D182",
"L. c #E9D182",
"P. c #E9D282",
"I. c #E9D382",
"U. c #EBD482",
"Y. c #EBD582",
"T. c #ECD780",
"R. c #ECD582",
"E. c #EDD683",
"W. c #EED783",
"Q. c #EDD880",
"!. c #EED883",
"~. c #EFD883",
"^. c #EFD983",
"/. c #F1DB83",
"(. c #F1DD81",
"). c #F2DF80",
"_. c #F3DF80",
"`. c #F2DE81",
"'. c #F2DF81",
"]. c #F1DC83",
"[. c #F2DD82",
"{. c #F0D984",
"}. c #F1DA84",
"|. c #F2DB85",
" X c #F2DC85",
".X c #F2DC86",
"XX c #F3E080",
"oX c #F3E081",
"OX c #F3E181",
"+X c #F3E281",
"@X c #F3E082",
"#X c #F3E182",
"$X c #F4E281",
"%X c #F4E282",
"&X c #F5E684",
"*X c #F5E586",
"=X c #F6E786",
"-X c #F4E188",
";X c #F4E089",
":X c #F4E189",
">X c #F4E288",
",X c #F4E28A",
"<X c #F4E28B",
"1X c #F4E38B",
"2X c #F5E38B",
"3X c #F5E489",
"4X c #F6E788",
"5X c #F5E48C",
"6X c #F6E68E",
"7X c #F6E78E",
"8X c #F7E88F",
"9X c #FBF689",
"0X c #FBF68A",
"qX c #FBF68B",
"wX c #FBF78B",
"eX c #FCF78C",
"rX c #FCF78D",
"tX c #FCF78F",
"yX c #F7E990",
"uX c #FCF790",
"iX c #FCF890",
"pX c #FCF891",
"aX c #FCF892",
"sX c #FDF893",
"dX c #FDF894",
"fX c #FCF498",
"gX c #FCF499",
"hX c #FCF599",
"jX c #FCF698",
"kX c #FCF69A",
"lX c #FEF99A",
"zX c #FEFA9B",
"xX c #FEFA9D",
"cX c None",
/* pixels */
"}.}.}.}.}.}.}.}.^.^.].^.}.}.}.}.}.}.M.E.}.}.Z.k d k k N j f f ( $.&.$.N f N N N U.^.^.].^.}.}.^.].}.^.}.}.^.}.}.!./.}.}.",
"}.}.}.}.}.}.}.}.Z.N M.^.}.}.}.}.}.Z.f m.k M.k d f f f f d f ( *.g.g.g.$.P f f f N N ^.}.Z.N N 5.a.U N M.M.N N M.N E.}.}.",
"}.}.}.}.}.Z.N N f f f N E.}.}.P N k f f f f f f f f f d ( | d.g.g.g.g.g.o.$.$.P f f m.N f f ` d.d...P f f f f f f N N E.",
"}.}.}.}.V.f f f f f f f M.M.m.f f f f f f f f f f f ( &.d.g.g.g.g.g.g.g.d.g.d...$.$.P f f ' d.g.g.g.$.$.$._ $.P f f f k ",
"}.}.V.N f d f ( $.$.$.$.N f f f f f f f f f ( | | | g.g.g.g.g.g.g.g.g.g.g.g.g.d.d.d...$.$.>.g.g.g.g.g.g.d.g.g...$.P f f ",
">.&.$.$.$.$.$.d.g.g.d.g.$.| $.$.| $.| $.| $.d.g.g.g.g.eXuXdXdXdXdXaXaXdXl.g.g.d.g.d.g.g.g.d.g.g.g.g.g.g.g.g.f.f.g.$.$.b ",
"d.g.g.g.g.g.d.g.g.g.g.g.g.g.g.g.g.g.g.g.g.g.g.eXaXdXaXxXxXxXxXxXxXxX8X,XOXOXOXOXf.f.d.g.g.g.g.g.g.g.g.g.g.g.g.g.g.g.g.&.",
"g.g.g.g.g.g.g.g.d.iXaXiXiXiXaXaXaXaXaXaXaXaXaXzXxXxXxX6X,X,X,X,X,X,X].}.}.}.}.}.OXOXOX>.g.g.g.g.g.g.g.g.g.g.g.g.g.g.9XaX",
"g.g.g.g.g.g.rXaXaXzXxX6X,X,X,X,X,XgXxXxXxXxXxX8X,X,X,X}.}.}.}.}.}.}.}.}.}.}.}.}.}.}.}.).OX).OXOXOXOX>.g.d.g.g.g.9XuXzXxX",
"l.g.g.g.g.rXzXxX6X,X,X].}.}.}.}.}.,X,X,X,X,X,X].}.}.}.}.}.}.}.}.}.}.}.}.}.}.}.}.}.}.}.}./.}./.}.i.>.g.g.e.OXOXOX,X,X,X,X",
"dXl.g.g.g.*X1X1X}.}.}.}.}.}.}.}.}.}.}.}.}.}.}.}.}.}.}.}././.J.V N P !.!.}.}.}.}.}.}.}.}.}.}.}.}.>.g.g.g.>.).}.}.}.}./.}.",
",XOX9.OX)././.}.}.}.}.}.}.}.}.}.}.}.}.}.}.}.}.}.}.}.V.V N V f d f f N N M.N !.}.}.}.}.}.}.}.}.}.9.>.g.g.e.].}.}.}.}.}.}.",
"}.}.}.}.}.}.}.}.}.}.}.}.}.}.}.}.}.}.}.}.}.}.}.Z.N N f d d f f ( $.$._ $.| $.>.>.P V V E.!.].}.}.}.OXOX9./.}.}.}.}.}.}.}.",
"}.}.}.}.}.}.}.}.}.}.}./.}.}.}.].}.}.}.}.Z.M.N f f f f ( | | $.>.g.g.g.g.d.g.d.g.&.| N N N N !.}.}.}.}.}.}.}.}.^.}.}.Z.N ",
"V.N N V !.}.}.].}.}.V.N N N N N N V V 2 # # # # r ' | d.g.g.g.g.g.g.g.g.d.g.g.g.g.g.K f f f N N N !.}.}.Z.N N N 1.>.$.K ",
"E.E.f f N N N N V.M.k d f f f f f f f o         D f.g.g.g.g.g.g.g.g.g.g.g.g.g.g.g.g.o.$.$.P f f f N N N f f ' $.>.g.g.o.",
"}.}.E.E.k f d d f d d T E.E.1.| $.$.| G D F F F *.d.g.g.g.g.g.g.g.g.g.g.g.g.g.g.g.g.g.g.g.$.| N f f f f ! $.>.g.g.g.g.g.",
"}./././.E.E.E.E.T E.E./.w.&.g.g.d.g.d.d.g.g.g.g.g.g.g.g.g.g.g.g.g.g.g.g.g.g.g.qXuXdXaXaXx.g.g.$.| | | $.*.g.g.g.g.g.r.).",
"m.V V E././.}.}./.}.w.>.g.g.g.g.g.g.g.g.g.g.g.g.g.g.g.g.g.g.g.g.g.g.g.g.eXuXuXgXxXxXxXxXdXuXuXx.d.d.g.g.d.g.g.g.g.e.).}.",
"k d d k E./.}.}./.w.g.g.g.g.g.g.g.g.g.g.g.g.g.g.g.g.g.g.e.8.8.9.8.8.8.8.,X,X5X5X1X1X1X5X5XgXxXdXl.g.g.g.g.g.g.g.g.>.a.).",
"E.E.E.U.}.}.}.}.i.g.g.g.g.g.g.g.g.g.g.g.g.g.g.g.e.e.8.>.>.>.>.>.).}.}.}.}.}.}.}.{.}.}.}.}..XgXxXdXiXiXiXaXl.g.g.g.g.g.8.",
"/.}././.}.}.}.}.=.g.g.g.g.g.g.g.g.g.g.g.g.g.e.8.}.i.&.g.g.g.g.g.).}.}.}.}.}.}.}.}.}.}.}.}.}.,X5X6X1X1X5XgXdXaXaX*X9.9./.",
"}.P m.V m.E.}.}.).e.=.g.g.g.g.g.g.g.g.g.g.r./.}.}.i.g.g.g.g.w.8./.}.}.}.}.}.}.}.}.}.}.}.}.}.}.}.}.}.^.}..X6X,X5X.X}./.}.",
"V.f d d k E.}.}.}.}._.XX9.9.9.>.g.g.r.OX9./.}.}.).>.g.g.g.e././.}.}.}.}.}.}.}.}.}.}.}.}.}.}.}.}.}.}.}.}.}.}.}.}.}.}.}.V.",
"d d f f J./././.}.}.}.}.}.}.}.OXXX_.).}.}.}.}.}.}.).9.9.Y V V.M.N E././.}.}.V V.M.M.M.N M.N N E.}.}.}.}.}.}.}.}.}.}.}.N ",
"f f f k N /.}.}.}.}.}.}.}.}.}.}.}.}.}.}.}.}.}.}.}.}.Z.N f f f f k k m.~.}.V.d d f ' _ $.P f f N ^.}.}.}.}.}.}.}.}.}.}.E.",
"k : # # # & & : J.}.}.}.}.}.}.}.}.}.}.}.}.}.}.J.V.M.f d ! | | | | | | &.y.&.| | | >.g.g.$.| | | i.a.U M.M.M.!.}.}.}././.",
"& .     .       & - - - - J.}.}.}.}.}.}.}.}.P f d d ! | >.g.g.g.g.g.g.g.g.g.g.g.g.g.g.g.g.d.g.g.f.g.$.| P f N E.}.}./.!.",
"      5 8 8 8 o           & - - J.}.}.}.P V.k d d ( >.g.g.g.g.g.g.eXaXaXaXaXl.g.g.g.g.g.g.g.g.g.g.g.g.g.$.$.P 3 - - - - ",
"q S F 1.| | | w 8 8 8 8 8 o     & - : b.f d d ! | d.g.g.g.g.g.9XaXzXzXxXxXxXdXl.g.g.g.g.g.g.g.g.g.g.g.g.d.d.$.G A +     ",
"*.d.g.g.g.g.g.| | ~ U.E.E.m.m.b.b.m.b.J.E.E.1.*.d.g.g.r.9.9.9.>X,X,X,X6X2X2X2XXX>.g.5.9.>.g.g.g.g.g.g.g.g.g.d.d.f.` A F ",
"uXg.g.g.g.g.g.g.g.>.i.].}.}.}.}.}.}.}.].}.}.).>.g.r.9./.}.}.}./.}.}.}.}.].i.i.a.g.g.>.OXOX9.9.f.g.g.g.g.g.g.g.g.9XiXuXaX",
"xXuXuXl.d.g.g.g.g.g.e./.}.}.}.}.}.}.}.}.}.}.}.OX9./.}.}.}.}.}.}.}.}.}.}.}.OXOX>.d.g.g.>.).}.}.).XXe.=.g.g.g.g.eXzXxXxXxX",
"5X5X5XOX9.9.f.g.g.r./.}.}.}.}.}.}.}.}.}.}.}.}.}./.}.}.}.}.}.}.}.}.}.}.}.}.}.}.).9.9.OXOX).}.}.}.}.}.i.g.g.g.g.c.*X,X2X,X",
"}.}.}.}.}.}.).9.OX/.}.}.}.}.}.}.].}.].Z.M.M.M.M.M.E.}.}.}.}.}.}.}.}.}.}.].}.^.^.).}.}.}.}.}.}.}.}.}.).=.r.e._.XX).}.}.}.",
"}.}.}.}.}.}.}.}.}.}.}.}.V.M.M.M.M.M.M.g n.f f f f N E.}.}.}.}.Z.M.M.M.M.M.M.M.M.E.}.}.}.}.}.}.}.}.}.}._./.}.}.}.}.}.}.}.",
"4 - - - J.}././.}.}.}.}.E.k f f f f f f f f f f J.E.^.}.Z.M.N f f f f f f f f f N M.N !.}.}.}.}.}.}.}.}.}.}.}.}.}.}.}.}.",
"m.o     p M.N !.}.}.}.}.}.E.E.k f Z.U.U.N f J.U.!.Z.M.N f f f f f f ' | | _ | | _ _ | ).}.}.}.}.}.}.}.}.}.}.}.}.}.}.}./.",
"i.t 8 8 d f f N V.V.V E.}.}./.E.m.N E.).N f N N V.f f d ' | _ $._ | f.g.d.g.g.g.g.g.g.>.i.Y m.V.E./.}./.}.C.m.V V.m.1.>.",
"g.$.| | _ N f f d d d k V.V m.V.f f M.N f f f f f ' | | >.g.g.g.g.g.f.g.g.g.g.g.g.g.g.E L k d d V m.V.m.V.k d d ! 5.>.g.",
"g.g.g.g.d.$.| | | N f f f f f f f f f f f f d d f $.g.g.g.g.g.g.g.g.g.g.g.g.g.g.g.g.g.$._ $.P f d f f Z.E.U.] | g.g.g.g.",
"wXiXiXiXiXl.d.g.d.$._ | | b f f f d f f f f ! | _ d.g.g.g.g.g.g.g.g.eXiXiXaXuXuXaXl.g.d.g.g.$._ !.U.U./.}./.).e.=.g.g.g.",
"zXxXxXxXxXaXl.g.d.g.g.g.d.$._ _ | _ _ | | | *.g.d.g.g.g.g.g.g.g.9XrXzXxXxXxXxXxXxXaXaXl.d.d.d.5.).}.}.}.}.}.}.}.i.g.g.g.",
"2X2X2X,X6XgXl.g.g.g.g.g.g.g.g.g.g.g.g.g.d.g.d.g.g.g.g.g.g.g.g.eXzXxXxX8X2X,X5X,X2X2X2Xl.w.OXOX).}.}.}.V.M.V.M.E.XX=.g.g.",
"i.i.).}.}.,XOXOX>.g.g.g.g.g.g.g.g.g.g.g.g.g.g.g.g.g.g.g.g.g.g.*X,X6X,X].}.}.}.}.}.}./.OX).}.}.}.}.J.V.k f f f N !._.e.).",
"g.g.i.).}.}.}.}.e.9.e.>.g.g.g.g.g.g.g.g.g.g.g.g.g.g.g.g.g.r.9./.}.}.}.}.}.}.}.}.}.}.}.}.Z.V.E.}.}.E.U.k f f f d E./.}.}.",
"g.g.g.OX}.}.}.}.}.}.}.).f.g.g.g.g.g.g.g.g.g.g.g.g.g.w.9.e.}.}.}.}.}.}.}.}.}.}.}.}.}.}.}.N f m.^./.C.V k f f J.E.}.}.}.}.",
"e.).e./.}.}.}.}.}.}.}./.OXd.g.g.r.9.9.f.g.g.g.g.w.9.i.>.i.).}.}.}.}.}.}.}.}.}.}.}.}.}.}.E.E.J.V.V f d f f Z.E.}.}.}.}.}.",
"}.}.}.}.}.}.}.}.}.}.i.>.>.g.g.w.).}.}.XXe.).XXe.].r.g.g.e.}.}.}.}.}.}.}.}.}.}.}.}.}.}.}.}.}.P k k d f f f E.}.J.V V.E.}.",
"}.}.}.}.}.}.}.}.}.}.OX>.g.g.g.i.i./.}.}.}.}.}.}.}.XXXXe.).}.}.}.}.}.}.}.}.}.}.}.}.}.}.C.V.V.f d d d f f f Y /.N f f k E.",
"}.}.}.}.}.}.}.}.}.}.}.OXe.).XXe.e.}.}.}.}.}.}.}.}.}.}.}.}.}.V.M.V.V.V.M.V !.}.}.}.}.C.d d d ! | b d d f k k E.E.k f f E.",
"- - - 2 1 - b.V.M.!.}.}.}.}.}.}.}.}.}.}.}.}.}.}.}.}.}.Z.V.M.m.d n.f d f ! &.i.a.=.i.| | | 1.*.d.$.| _ P d d V E.E.U.U./.",
"d 9 7 5 8 8 p f f N P Z.V.^.}.}.}.}.}.}.}.}.}.}.Z.V.V.f f f d d J | _ | >.g.g.g.g.g.g.g.g.g.g.g.g.g.g.o.b d d N V E.}.}.",
"d k f d b.n.f f f , - # # - f 4 - 2 - Z.V.V.V.V.f f f f f ! _ | >.g.g.g.d.g.g.g.g.g.g.g.g.g.g.g.g.g.g.g.$.| _ _ _ &.i.Y ",
"d d f ( _ | | _ _ D O       0 o       u f d b.d ` _ _ | _ d.g.g.g.g.g.g.g.g.g.g.g.g.g.g.g.g.g.g.g.g.g.g.g.g.g.g.g.g.g.$.",
"| _ | >.g.g.g.g.d.d.F Z Z Z ( w 6 8 u J.U.E.E.J.>.g.g.g.g.d.g.g.g.g.g.g.g.g.g.g.eXuXuXuXuXx.g.g.g.g.g.g.g.g.g.g.g.g.g.g.",
"d.g.g.g.g.g.g.g.g.g.g.g.g.g.g.$.E.J.}.}.}.}.}.}.XXXXg.g.g.g.g.g.g.g.g.g.g.9XiXiXzXxXxXxXxXuXuXuXl.g.g.g.g.g.g.g.g.g.g.g.",
"g.g.g.g.9XuXuXuXuXl.g.g.g.g.g.r././.}.}.}.}.}.}.}.}.OXOX>.g.w.e.r.9.9.9.9.,XgXxXxX8X6X2X5X5XgXxXl.g.g.g.g.g.g.g.g.g.g.g.",
"g.f.9XrXzXxXxXxXxXaXuXl.d.r.OX).}.}.}.}.}.}.}.}.}.}./.}.).OX).}.}.}.}.}.}.}.,X6X6X}././.}.}.1X6XXX9.OXf.g.g.g.g.g.g.g.g.",
"9.OXdXxXxX8X,X6X2X2X6XXX9.}.}.}.}.}.}.}.}.V.V.V.M.V.V.E.}.}.}.}.}.}.}.}.}.}./.}.}.}.}.}.~././.}.].}.}.OXXXXX=.g.g.g.g.g.",
"}.}.gX8X6X].}.}.}.}.}.}.}.}.}.}.J.V V.V.M.f f f d d f N !.}.}.}.}.}.}.}.}.}.}.}.}.}.}.}.}.}.}.}.}.}.}.r.i.a.g.r.r.e.OX>.",
"cXcXcXcXcXcXcXcXcXcXcXcXcXcXcXcXcXcXcXcXcXcXcXcXcXcXcXcXcXcXcXcXcXcXcXcXcXcXcXcXcXcXcXcXcXcXcXcXcXcXcXcXcXcXcXcXcXcXcXcX"
};
