/* XPM */
static char *player[] = {
/* columns rows colors chars-per-pixel */
"64 64 224 2 ",
"   c #161C2E",
".  c #181E2F",
"X  c #1B1E31",
"o  c #1D242E",
"O  c #1D2231",
"+  c #21262F",
"@  c #252D2E",
"#  c #2A322F",
"$  c #323D2F",
"%  c #222334",
"&  c #242B32",
"*  c #292D35",
"=  c #2A2639",
"-  c #2B2D39",
";  c #32293C",
":  c #273435",
">  c #2C3333",
",  c #2E3B35",
"<  c #2E323B",
"1  c #333B33",
"2  c #333935",
"3  c #32343C",
"4  c #3A393E",
"5  c #384435",
"6  c #3A4D3B",
"7  c #3F523A",
"8  c #424535",
"9  c #484D36",
"0  c #495735",
"q  c #56573A",
"w  c #596736",
"e  c #5A723D",
"r  c #696E3A",
"t  c #627639",
"y  c #647D3D",
"u  c #6A7C3A",
"i  c #7D7E3F",
"p  c #343842",
"a  c #3B3B41",
"s  c #423F42",
"d  c #4C314B",
"f  c #4F324D",
"g  c #593752",
"h  c #5B3752",
"j  c #623A55",
"k  c #6C3D56",
"l  c #653B59",
"z  c #6B3D5A",
"x  c #713F5A",
"c  c #3E4147",
"v  c #3E4250",
"b  c #484647",
"n  c #534D4A",
"m  c #59544E",
"M  c #585754",
"N  c #77415A",
"B  c #685954",
"V  c #4E6B43",
"C  c #567647",
"Z  c #597747",
"A  c #5B7944",
"S  c #597858",
"D  c #617C41",
"F  c #667A47",
"G  c #6B7D44",
"H  c #787A41",
"J  c #686B58",
"K  c #76645B",
"L  c #7E6A5E",
"P  c #595E69",
"I  c #844559",
"U  c #994C57",
"Y  c #A34F56",
"T  c #A65056",
"R  c #AA5155",
"E  c #B45455",
"W  c #836D62",
"Q  c #8C7765",
"!  c #917A66",
"~  c #957A6A",
"^  c #997D6B",
"/  c #6C823A",
"(  c #75823D",
")  c #79833E",
"_  c #748B3E",
"`  c #798D3E",
"'  c #6A8649",
"]  c #7A8744",
"[  c #738B42",
"{  c #7B9442",
"}  c #76934A",
"|  c #668A51",
" . c #6B9256",
".. c #779A59",
"X. c #7CA459",
"o. c #7CA35D",
"O. c #7EAA5F",
"+. c #678D6D",
"@. c #6C926B",
"#. c #739C6B",
"$. c #7A996A",
"%. c #679175",
"&. c #6C9472",
"*. c #719671",
"=. c #77A463",
"-. c #7AA663",
";. c #7BA962",
":. c #838342",
">. c #868B47",
",. c #879947",
"<. c #96994D",
"1. c #8A9653",
"2. c #9A9C52",
"3. c #A19E51",
"4. c #8BA54A",
"5. c #8DAA4B",
"6. c #97A64D",
"7. c #91AD4A",
"8. c #95B34D",
"9. c #99B64E",
"0. c #9BB94E",
"q. c #86A857",
"w. c #84AD5C",
"e. c #8AAD5A",
"r. c #96AA5C",
"t. c #8DB256",
"y. c #89B058",
"u. c #94B552",
"i. c #99B750",
"p. c #9DB850",
"a. c #97B15C",
"s. c #A9A755",
"d. c #A8A955",
"f. c #B1AD56",
"g. c #A2B553",
"h. c #ABB554",
"j. c #A4B951",
"k. c #ACB954",
"l. c #A4B35C",
"z. c #ABB45C",
"x. c #B4B357",
"c. c #B3BA56",
"v. c #B4B55C",
"b. c #B9B75B",
"n. c #B6B959",
"m. c #BDBA5A",
"M. c #9A866A",
"N. c #9D836C",
"B. c #8B9E65",
"V. c #839E6C",
"C. c #938D75",
"Z. c #A2856F",
"A. c #A38B6D",
"S. c #A9926F",
"D. c #A48770",
"F. c #A58A71",
"G. c #AA8D72",
"H. c #AC9372",
"J. c #A99676",
"K. c #A19A7E",
"L. c #B19474",
"P. c #B49B75",
"I. c #BC9D79",
"U. c #84A565",
"Y. c #8CAD60",
"T. c #8DA369",
"R. c #95A667",
"E. c #91AD61",
"W. c #A9AF61",
"Q. c #AAB061",
"!. c #B9A27B",
"~. c #C3A57B",
"^. c #C7A87D",
"/. c #CAAB7E",
"(. c #A59D80",
"). c #B2A987",
"_. c #B5AB88",
"`. c #A6A6A3",
"'. c #C3AC81",
"]. c #CEAF80",
"[. c #CDB284",
"{. c #C5B88F",
"}. c #D4B483",
"|. c #D7B987",
" X c #D8BA87",
".X c #D7BB89",
"XX c #D9BD8A",
"oX c #C0B690",
"OX c #C5BB93",
"+X c #C9BE94",
"@X c #C0BFBA",
"#X c #DCC18E",
"$X c #CCC196",
"%X c #CFC498",
"&X c #DEC491",
"*X c #D4C79B",
"=X c #DBCD9C",
"-X c #E0C995",
";X c #E3CD99",
":X c #E5D29D",
">X c #CFC7AB",
",X c #E4D6A3",
"<X c #E9D7A2",
"1X c #E7D9A6",
"2X c #EBDBA6",
"3X c #EDDEA9",
"4X c #EFE1AB",
"5X c #F0E2AF",
"6X c #EEE2B9",
"7X c #F0E4B3",
"8X c #F2E7BC",
"9X c #F2E8BE",
"0X c #CECDC9",
"qX c #F3EAC4",
"wX c #F6EECF",
"eX c #E8E4D7",
"rX c #F8F2DB",
"tX c #EFEEED",
"yX c #F9F4E2",
"uX c #FAF6E9",
"iX c #FBF8ED",
"pX c #F8F6F2",
"aX c #FDFBF4",
"sX c #FEFEFB",
/* pixels */
";.w.9.0.0.0.0.0.0.0.i.p.0.i.0.i.e.U.#.V.V.V.V.%.%.*.V.V.&.*.z.m.m.m.m.m.m.v.V.&.%.%.*.R.b.Q.U.*.-.Y.Y.-.;.;.w.;.;.;.w.w.O.O.;.;.",
";.t.t.t.t.t.t.u.0.0.i.i.i.y.e.w.$.V.T.v.b.b.v.V.V.T.v.Q.T.R.b.m./.m.m.m.m.m.W.V.&.&.T.b.m.b.W.T.R.v.Q.Y.;.w.u.u.y.t.u.i.u.O.=.;.",
";.O.O.;.O.O.;.w.t.u.u.j.Y.#.U.V.T.v.b.m.m.m.b.v.m.c.~.m.b.b.m.m.c.c.z.l.Q.m.b.W.V.V.v.n.n.n.n.b.m.m.m.Q.a.a.i.0.i.9.0.0.0.t.;.;.",
";.;.U.Y.E.E.E.E.a.y.a.Q.T.T.v.b.b.m.m.m.b.z.z.l.s.d.d.d.s.s.s.s.d.6.....U.r.b.b.W.R.b.k.j.j.c.m.m.m.m.m.n.c.k.0.0.0.0.0.0.t.;.;.",
"Y.y.E.n.n.n.m.n.n.n.n.n.z.h.n.n.n.m.m.z.l.-...' $ 1 2 > 2 > > > > : : : > 6 1.r.h.h.h.p.0.0.j.c.n.c.c.c.m.m.n.k.0.0.0.0.u.y.O.Y.",
"k.z.c.c.c.c.c.c.c.c.c.j.0.0.0.0.0.c.h.e...| , & . . X < 3 3 3 3 p < < < * o * 6  .X.t.u.9.0.0.0.j.0.0.j.c.c.k.p.0.0.0.0.u.y.t.k.",
"j.p.0.0.p.p.0.p.0.0.0.0.0.0.0.0.0.0.8.[ 1 & . . X p n (.+X+X$X+X$X$X$X+XK.c * + : 6  .O.t.t.u.9.0.9.t.t.u.u.a.u.0.0.0.0.0.i.i.p.",
"0.0.0.0.p.0.0.0.0.0.j.j.k.j.0.0.8.4._ , . o - p P 0X0X5X2X4X4X4X4X3X4X3X,X+XK.a   o 6  .O.O.O.t.t.y.O.;.;.;.;.y.0.0.0.0.0.0.0.i.",
"0.0.0.0.0.0.0.0.j.k.m.m.m.c.k.9.[ 5 @ o O n K.>XeXrX8X4X4X4X4X4X4X4X4X4X4X4X,XK.c * O 6  .;.;.O.O.;.;.U.Y.E.Y.w.0.0.0.0.0.0.0.0.",
"0.0.0.0.0.j.j.j.j.m.m.m.m.m.c.,.1 . o - M _.6XpXiX8X5X4X4X4X4X4X4X4X4X4X4X4X4X,X$XK.a o 6  .O.w.w.w.Y.a.n.n.z.a.0.0.0.0.0.0.0.0.",
"0.0.0.0.j.k.c.m.m.m.m.c.c.x.x.>.& . 4 J.*XqXuXsXiX7X5X4X4X4X4X4X4X4X4X4X4X4X4X4X4X=X(.& o 9 ,.g.j.p.p.n.m.m.m.c.p.0.0.0.0.0.0.0.",
"0.0.0.0.0.0.j.k.c.m.c.0.0.g.>.2   o n [.8XiXsXsXiX8X5X4X4X4X4X4X4X4X4X4X4X4X4X4X5XqX@Xv o o 0 f.n.k.c.m.m.m.m.m.k.p.0.0.0.0.0.0.",
"0.0.0.0.0.0.0.0.j.k.0.0.0.,.$ o O b P.#X8XaXsXsXsXaXrX7X7X5X5X5X4X7X4X4X4X4X4X7X5XqXtX`.v O 5 3.n.n.n.n.Q.Q.z.n.n.j.j.j.j.0.0.0.",
"j.j.u.t.t.9.9.9.0.0.0.0.9.` @   4 L..X<X9XaXiXwXaXsXuXqXiXrX5X5X9XrX8X4X4X4X9XrX6XqXaXtX`.p < 9 e.Q.Q.a.;.;.Y.z.m.m.m.n.c.j.j.j.",
"l.a.O.;.O.t.t.t.t.t.u.0.8.[ @   4 !.XX3X9XaXiXqXaXiX9X9XaXiX5X5XqXaXrX7X4X5XqXrX7XqXuXpX0XP L > 9 o.;.;.;.;.;.Y.Q.l.Q.l.Q.Q.l.l.",
";.;.;.;.;.O.;.O.;.O.t.t.} ,   O n ^.XX2X9XiXiXqXiXyX7X9XiXyX7X9XaXsXiX7X4X9XiXuX7X4X6XqXtX$XA.: 5  .;.;.;.;.;.;.O.O.O.;.;.O.O.O.",
";.;.;.;.;.;.;.=.;.;.O.X.Z &   4 H.}.#X:X5X9XrX8X4X4X4X4X9XrX7X9XiXaXrX7X5X9XaXrX7X4X4X4X5X:XA.& o 7 X.w.w.;.-.-.;.;.;.;.;.;.;.=.",
";.;.;.;.=.;.;.;.O.w.w. .: O % s !.}.#X2X4X4X5X4X2X4X4X4X5X5X4X5X7X7X8X4X4X9XrX8X4X4X4X4X4X1X).> o 5 { 8.u.w.;.;.O.O.w.w.O.O.;.;.",
"w.w.;.;.w.w.O.w.w.u.7.[ & - B b ~. X#X2X4X4X4X2X-X2X4X4X5X4X4X4X4X4X4X4X4X5X5X4X4X4X4X4X4X1X_.4 . o 0 8.p.t.;.;.y.i.9.i.u.w.;.w.",
"i.i.y.y.u.u.i.0.9.9.,.1 o - K n ~./.#X2X4X4X5X:X-X2X4X4X4X4X4X4X4X4X4X4X4X4X4X4X3X3X4X4X4X4X*XM.& o 8 d.j.u.O.O.u.0.9.0.0.u.t.u.",
"0.0.0.0.0.p.k.j.h.g.) @ . ; W ^ /. X#X4X4X4X4X:X-X2X4X4X4X4X4X4X4X4X2X4X4X4X4X4X<X&X4X4X4X4X;XS.& X 8 f.x.g.e.Y.t.0.0.0.0.0.0.0.",
"j.j.j.j.j.k.m.m.b.2.2 . . ; Q F././. X<X-X4X4X:X-X2X4X4X4X4X4X4X4X<X-X2X4X4X4X4X<X&X3X4X4X4X2X~.a % 8 3.m.b.z.a.t.0.0.0.0.0.0.0.",
"k.m.m.m.m.m.m.m.b.<.& . . 3 W F./. X#X/.#X2X4X4X2X4X4X4X4X4X4X4X4X:X&X2X4X4X4X4X:X&X2X4X4X4X4X<XK.* o q f.m.m.n.0.0.0.0.0.p.p.j.",
"c.m.m.m.m.m.m.m.h.>.& . . 4 Q F././././.#X4X4X4X2X4X4X4X4X4X4X4X4X2X&X3X4X4X4X4X2X=X2X4X4X4X4X<X).4 o 8 f.m.m.n.k.j.0.0.0.j.c.m.",
"c.c.c.c.c.c.c.k.,.1     ; L ~ Z./././.XX&X<X4X<X-X2X4X4X4X4X4X4X4X:X&X3X4X4X4X4X4X<X4X4X4X2X4X<X/.! * 8 3.m.m.m.m.c.0.0.0.j.c.c.",
"0.j.0.0.p.p.0.8.[ & . . s Q ~ ^ I././././.-X<X:X&X2X4X4X4X4X4X4X4X:X&X:X4X4X4X4X<X-X2X4X<X-X2X<X}.M.* + 9 3.m.m.m.c.k.k.j.0.0.0.",
"0.0.0.0.9.0.g.} ,   O b L.~.Z.~ ^ G./.~./.&X/.-XXX2X4X4X4X4X4X4X<XXX X#X:X5X4X2X<X&X2X4X<X-X:X&X/.M.3 . + q f.m.m.m.m.m.c.j.0.0.",
"0.0.0.7.6.<.>.2 O 3 n I.}.}.~.N.^ A.I.L././.&X/. X;X&X<X2X2X4X4X:XXX}. X-X:X2X:X#X/.&X<X;X/././.~.N.B ; X 8 2.b.m.m.m.c.k.k.0.0.",
"0.0.<.1 > > : % n OX=X:X|.}./.Z.^ ^ ^ G././.XX/./.XX X X&X&X<X<X<X#X/. X X#X X/. X X/.&X X}.^.L.I.Z.Z.! 3 o 0 6.k.k.k.0.0.0.0.0.",
"0.j.<.# O < p M OX3X3X1XXX}.}.~.G.^ G.^ G./././.XX/././././. X&X/./. X/././././././. X/.}./.I.Z.Z.H./.^.M.3 o 9 ,.5.0.0.0.0.0.0.",
"k.c.6.* a OX*X*X3X4X4X4X<XXX}.}./././.L.^ L.I././.XX/./. X/./././.#X/./.L.~.H.B L./././.}./.L.G.P././. X/.M.c o # 9 { 4.7.0.0.k.",
"k.k.<.# a _.4X4X4X4X4X1X:X$X}. X/./././././././.XX/./.~./.~./././././.I.Z.! K > b ~ Z.L./.}././././. X/.#X=XK.b 3 4 5 # 0 8.0.k.",
"0.0.{ 5 O n {.2X3X2X:X|.S.B [.:X X}.}.}.}.}.}.}.}.^.D.D.~.L.]./.I.L.G.^ ^ W @ . 3 W N.L.].}.}.}.}.].!.~.XX<X1X*X*XOX$.= 5 7.0.0.",
"9.t.w.' : O n *X:XXX[.M.c M =X<X|.[.~.|.XX}.}.}.}.~.D.G.].].}.}././.^.L.^ B %   % b S./.}.}.}. X}.H.n m J.[.<X4X1X).c & 0 7.0.0.",
"y.O.=. ., o 3 S.!.P.M.4 b OX2X:X[.M.B =X:X#XXX X}.^.L.].}.}.}.}./.XX/./.A.;       O n P.}. X-X<X:X[.M.a < m !.$XOXC.- 5 ,.9.9.9.",
"O.;.=.=.| 5 # * < - : c M =X1X[.M.4 b =X4X3X1X:X|.}.}.}.}. XXX.XXX/.&X/.! %         O n !.,X2X4X3X:X}.M.c 4 c 3 < : o 0 5.9.8.e.",
";.;.;.=.o.4.[ 5 # . p (.=X,X+XM.4 % M :X4X4X3X<X|.}.}.XX&X<X2X2X2X1X=XG.2   X % %     % M $X2X5X4X3X1X=X'.P.K &   @ 6  .t.t.w.O.",
"=.;.;.;.O.y.w.X.[ 1 & n _.(.b % . b oX4X3X3X3X,X|.}.-X<X3X3X3X1X%XOX(.a o o ; h f = X X * M _.$X$X$X$X$X{.C.3   o c  .=.;.;.;.;.",
";.=.=.;.;.;.;.O.y.' : o - - .   o c _.$X+X%X;X.X XXX<X2X3X1X+XK.s p = X X ; h k l h d =   o ; ; < 3 < < 3 * X o 6  .=.;.=.;.;.=.",
"=.;.;.=.;.;.=.;.O.-.| , .     .   O < < p n S.I.!.OX+X+XOX(.s -       X ; h k x x z l f %                   o 6  .=.;.;.;.;.;.;.",
"=.;.;.;.;.;.;.;.w.y.X.t o   . .           . & - - ; < < 3 - .       % ; h x I T U x z l d X               o : S =.;.O.O.;.O.;.;.",
"#.#.#.#.=.;.;.O.9.7./ , . o = < *             X               X % p h l x I T E Y x z z f =       % 3 3 - * o 5  .O.y.O.O.y.O.O.",
"%.&.&.&.#.#.;.u.0.,.> . O 4 L W L 4 o   X % % % % % % = % % % ; h z z x I R E E E U x x j d X . & m H.H.! B - O 7 =.O.O.q.u.t.O.",
"Y.U.V.*.%.%.;.u.8.,.# X a W ~ G.!.A.a X % f j j k k j j j z k x x x I Y E E E E E E R U k d X @ m I.}.}.I.~ B % , +.@.&.$.U.-.#.",
"b.m.Q.Y.#.%.*.Y.h.,.* - W ~ Z./.}./.Z.&   ; j I T U x N I Y R R R R E E E E E E E E U k d % X s P.}.|./.~.^ B = 2 $.R.E.V.*.$.R.",
"m.m.m.c.E.T.T.E.x.,.* < W ^ F./.}.}.S.*   = k U Y U N U Y Y R R R R T T T T T T Y U k d %   X s H.].|./.I.^ K % 5 s.n.m.z.R.R.b.",
"/.c.m.m.b.b.m.m.n.,.* - K ~ Z.~.}./.~ &   % f j j j z z N k N k x x x x x x x z z h d %     X % n H./.I.^ Q B - q x.m.m.m.c.m.m.",
"m.m.m./.m.m.m.m.m.,.$ + 3 K ~ Z.I.M.; X   X X X O ; f h h h h h h h h h h h h h d % X     X % X o s W W K B & 8 3.m.m.m.m./.m.m.",
"m.m.m.m.m.m.m.m.m.m.<.5 + 2 K W K - . .           . X X + % O % o o o + o . o o o       + 9 i 8 # o @ @ & % @ q x.m.m.m.m.m.m.m.",
"c.c.m.m.m.m.m.m.m.m.m.3.8 # @ + % + # @             . @ @ @ @ @ @ @ @ o .             + q 3.f.s.Q 5 # $ $ $ q 3.m.m.c.c.m.m.m.m.",
"0.0.c.m.m.m.m.m.m.m.m.m.f.>.8 # > 8 :.r + .       o $ r t t t t r t t w #           + 8 >.s.x.m.x.6.6.4.6.d.f.c.c.k.p.j.k.c.c.k.",
"0.0.j.m.m.m.m.m.m.m.m.m.m.x.<.>.H H :.r # .       # r u ( ( / / / / / u 0 +       . 5 t ( ` ,.f.f.0.0.0.0.j.c.k.0.0.0.0.j.j.j.j.",
"0.0.j.c.m.m.m.c.k.k.k.m.m.d.>.:.:.:.:.i w o       # r [ ) i / / / / / u w #     . # w / / / ( ` ,.7.0.0.0.0.k.0.0.0.0.0.0.0.0.0.",
"0.0.0.k.c.c.c.k.j.0.j.j.3.>.) ) ) _ ) ( e @     o $ e y y / / / / / / / / 0 o   + 5 u / / / / / ( ` 7.0.0.0.j.0.0.0.0.0.0.0.0.0.",
"0.0.0.0.0.0.0.0.0.0.0.7.` ( ( / / / / / t 0 o . @ V C C C y / y e / u / u w +   # r ( ( / / / / / / { 0.0.0.0.0.0.0.0.0.0.0.0.0.",
"0.0.0.0.0.0.0.0.0.0.0.7._ / / / / / / / e 7 o o : V C C C C A C C A e y u w +   $ r i ) ) / / / / / ` 0.0.0.8.8.t.8.8.0.0.0.0.0.",
"0.0.0.8.0.0.0.0.0.0.0.7./ / / / / / A C V , o : 5 C C C C C C C C C C A / e $ # > 9 i :.:.i ) ( / / _ O.0.0.t.O.O.O.u.9.0.0.0.0.",
"0.u.t.y.t.u.0.0.0.0.0.7.` / / / / A C C C V e C e e A C C C C C C C C C F F F i H H :.:.:.:.:.H | /  .X.O.O.O.O.O.O.O.t.9.0.0.0.",
"u.t.;.;.O.y.0.0.0.t.t.8.7._ / / A C C C C / / / / / / C C C A A ' C C C Z Z A G H :.:.] H ' H y ' | X.O.O.O.t.0.8.O.O.O.t.0.0.0.",
"y.O.;.;.;.O.t.O.5.O.O.t.8.X.' ' D D D D e / / / / / / / A C A / / / e / D D D t y ( i ( y D ' ' _ X.u.t.t.u.0.0.9.u.e.y.t.0.0.u.",
";.;.;.;.O.;.;.O.;.O.O.O.t.t.y.5.` _ _ / / / / / / / / / D y / / ( / y ' u u y u / ( / ( _ _ { 5.8.t.t.8.u.0.0.0.t.t.O.t.0.0.0.0.",
";.;.;.w.t.O.O.;.;.O.O.O.t.t.t.8.8.8.5.` _ _ _ _ / / / / / / / / / y D ' Z Z F ' [ _ [ | X.O.t.y.O.O.O.t.u.t.O.O.O.O.O.O.O.0.0.O.",
";.O.y.u.0.u.u.O.O.t.t.u.0.8.0.0.0.9.u.q.o...X...[ [ | Z G [ ` ` >.] G J S S S +.q.q.$.&.@.#.O.=.;.;.O.O.O.;.;.;.;.;.;.;.O.O.O.O.",
";.O.u.0.0.0.0.0.0.0.0.0.0.0.0.0.0.u.-.*.&.&.%.*.o.o.+.+.@.q.8.g.x.m.f.s.B.V.+.%.@.-.*.*.V.-.&.=.=.;.;.;.;.;.=.;.;.;.;.O.O.;.;.;."
};
