/* XPM */
static char *wall[] = {
/* columns rows colors chars-per-pixel */
"64 64 94 2 ",
"   c #161C2E",
".  c #181E31",
"X  c #1B2333",
"o  c #1F2837",
"O  c #202735",
"+  c #212B39",
"@  c #25313E",
"#  c #273440",
"$  c #293642",
"%  c #2D3A45",
"&  c #2D3D48",
"*  c #2E424F",
"=  c #32434D",
"-  c #304651",
";  c #324955",
":  c #3A4C53",
">  c #364C59",
",  c #3D5056",
"<  c #3C535D",
"1  c #3F5763",
"2  c #405559",
"3  c #435B5F",
"4  c #475E60",
"5  c #4D6666",
"6  c #4E6867",
"7  c #45676F",
"8  c #4F6968",
"9  c #506A69",
"0  c #53706F",
"q  c #466A71",
"w  c #486C72",
"e  c #4B7176",
"r  c #4E757B",
"t  c #547271",
"y  c #567877",
"u  c #577A79",
"i  c #597D7C",
"p  c #5A807F",
"a  c #527C80",
"s  c #5C8584",
"d  c #5D8887",
"f  c #5E8B8A",
"g  c #5E9193",
"h  c #628585",
"j  c #648887",
"k  c #628D8C",
"l  c #688E8E",
"z  c #668D93",
"x  c #629393",
"c  c #6B9292",
"v  c #649897",
"b  c #629798",
"n  c #669D9D",
"m  c #689F9F",
"M  c #6EA29F",
"N  c #6AA1A1",
"B  c #76A4A4",
"V  c #79A5A5",
"C  c #79A7A8",
"Z  c #74ABAB",
"A  c #7BAAAA",
"S  c #78AFB0",
"D  c #7DB4B5",
"F  c #879280",
"G  c #929E88",
"H  c #95A28C",
"J  c #9DAC93",
"K  c #A3B69B",
"L  c #86B1A6",
"P  c #81B7B6",
"I  c #85B9B6",
"U  c #80B7B8",
"Y  c #82B9B9",
"T  c #88BEBF",
"R  c #A1BBA3",
"E  c #9FC7BB",
"W  c #A6C5AD",
"Q  c #A9C6AC",
"!  c #ADC9AD",
"~  c #B1CBAE",
"^  c #BBCBA9",
"/  c #A0C7BA",
"(  c #A4CCBF",
")  c #A9CEBE",
"_  c #B6D4BA",
"`  c #BCD6B9",
"'  c #C6D5B0",
"]  c #C7DBB7",
"[  c #CCDCB5",
"{  c #D0DEB5",
"}  c #89BFC0",
"|  c #8CC3C4",
" . c #92C5C3",
".. c #9FCBC0",
/* pixels */
"| | | | | | | | | | | | Z n n N | | | | | | | | | Z Z n n b 0 f M n n n n n n n m n n m n n d d 8 9 9 9 9 s p n N Z | Z n n i 5 ",
"| | | | | | | | | | | | | Z Z N D | | | | | | | | | | n n b 8 9 d d d n n n d d d d d d f Z l l 9 8 9 9 9 j d Z Z | | D n n n 5 ",
"| | | | | | | | | | | | | | } Z S | | | | | | | | D S n n b u 6 6 8 9 s d d 8 9 z l c c z | | } l l 8 9 9 a c | | | D n n n b 8 ",
"| | | | | | | | | | | | | | | | | | | | | | | D S n n n n n n s a s i s s l c c | | | | | | | | | T l l l m | | | D n n n d d 6 ",
"| | | | | | | | | | | | | | | | | | | | | | | S Z Z Z Z S Z Z n n m Z Z Z | | | | | | | | | | | | | | | | Z D D D n n n d 8 9 8 ",
"| | | | | | | | | | | | | | | | | | | | | | | | | | | | | | | Z Z S | | | | | | | | | | | | | | | | | | | } n n n n n d 8 8 8 : ",
") ( | | | | | | | | | | | | | | | | | | | | | | | | | | | | | | | | | | | | | | | | | | | | | | | | | | | | Z n n d d 8 8 : :   ",
"{ ] ( | | | | | | | | | | | | | | | | | | | | | | | | | | | | | | | | | | | | | | | | | | | | | | | | | | | | v n i 8 8 8 % % $ ",
"{ { ] ) ..| | | | | | | | | | | | | | | | | | | | | | | | | | | | | | | | | | | | | | | | | | | | | | | | | D n n d 8 s u s 8 6 ",
"{ { { { ] ( | | | | | | | | | | | | | | | | | | | | | | | | | | | | | | | | | | | | | | | | | | | | | | | | n n d 8 i M n g 8 6 ",
"{ { { { { ] ) ) ..| | | | | | | | | | | | | | | | | | | | | | | | | | | | | | | | | | | | | | | | | | D D S n d 8 9 N n n n 8 6 ",
"{ { { { { { { { ] ) ) ) ( ) ( ) ) ( | | | | | | | | | | | | | | | | | | | | | | | | | | | | |  .| | | Z Z f d 8 9 9 f d f d 8 6 ",
"_ _ { { { { { { { { [ [ { { { { { ] | | | | | | | | | | | | | | | | | | | | | | | | | | | | | | | | | | T i i i i 8 9 8 8 8 8 8 ",
"D I Q ` _ _ _ _ _ _ _ _ W W Q W W W D | | | | | | | | | | | | | | | | | | | | | | | | | | | | | | | | D D n n n n s 8 8 8 8 8 , ",
"f n N D D D D D D P D D n n N n f f N D D D D D D D D | | | | | | D | | | | | | | | | | | | | | | D S n n n n n n n 8 8 8 8 6   ",
"t f n N v f k d f d g n n n b s 8 e n n n N Z Z Z Z S | | | | D D N | | | | | | | | | | | | | | | Z Z Z Z n n n n d 8 6 , : :   ",
"8 t v f d 8 9 9 9 9 0 l n n b a i h n n m S | | | | | | } D D n N N | | | | | | | | | | | | | | | | | | | Z Z Z 8 : : :         ",
"8 t s 9 9 9 9 9 a a i l Z Z Z Z Z Z Z Z A | | | | | | D D n n n m S | | | | | | | | | | | | | | | | | | | | | / 1           $   ",
"8 9 9 9 8 p l l S S D | } | | | | | | | | | | | | D D n Z Z n n N D | | | | | | | | | | | | | | | | | | | | ) [ S ; .     & 8 % ",
"9 8 9 0 c S | | | | } |  .| | | | | | | | | | | } Z Z Z | S n n n m D | | | | | | | | | | | | | | | | | | ) [ [ n b $ . % 8 8 6 ",
"9 9 0 c | | | | | | | | | | | | | | | | | | | | | | | | | n n n n g a | | | | | | | | | | | | | | | | | ) { [ W n n 6 X i u 8 8 ",
"8 0 c | | | | | | | | | | | | | | | | | | | | | | | | | } Z n n n g @ | | | | | | | | | | | | ( ( ( ( ) { ] Q n n n 6 > n n 8 9 ",
"9 u | | | | | | | | | | | | | | | | | | | | | | | | | | | } n n g 7 X z | | | | | |  .) ( ( ) { [ { { { { ] m n n b u n n n 9 9 ",
"9 u | | | | | | | | | | | | | | | | | | | | | | | | | | | D N g q     o z | | | | |  .{ { { { { { { { { { W n n M n n n n n 9 9 ",
"p y E  .| | | | | | | | | | | | | | | | | | | | | | | } D n n g . .     o z | | | |  ._ ` { { { { { { [ W n n n n d f M g g e 9 ",
"' i  .} | | | | | | | | | | | | | | | | | | | | | | D D N Z Z N 1 1 . $ $ & B C B V | |  .{ { { { [ ! W n n n n n 8 8 M N f 8 9 ",
"' u } | | |  .} | | | | | | | | | | | | | | | | | D n n Z | | | } Y 1 8 9 9 9 9 8 0 B B V K K ! ! W n n n n n n d 8 8 f f 9 0 6 ",
"^ i | | | | | } | | | | | | | } | | | | | | | D D Z Z Z | | | | | | } k h 9 9 9 9 9 8 9 9 9 9 m n n n n n n n d 8 8 8 0 9 8 8 6 ",
"H y } }  .) ( ..|  .( ( ( ( ( ( ( | | | | | D Z Z | | | | | | | | | | | } l j l s 8 9 9 9 i i n n n n n n n n 6 6 l k 8 9 9 8 : ",
"9 t A }  .{ { ] ( ) { { { { ] _ W D D | | | S | | | | | | | | | | | | | } | } } D u i u i n n m n n n n n n n l l | | f 9 8 ,   ",
"9 8 t V } ' [ { { { { { [ ` R D N n N | | | | | | | | | | | | | | | | | | | | } n n M n n n n n n n n n d f Z | | | | D 9 ,     ",
"9 5 2 2 a l H ! ) ! ~ _ R U N N N Z Z | | | | | | | | | | | | | | | | | | | | } Z n n n n n n n n n n n h l | | | | | E 8 @ @   ",
"6 3       X < n M f g S m m m Z S | | | | | | | | | | | | | | | |  .( ( ( ..C V B n n n n n Z Z Z Z Z Z | | | | | | | B 8 8 6   ",
"6 3   X @ - g f p w d Z Z Z Z | | | | | | | | | | | | | | | | | | ) { { { ' u 8 9 r n n m Z | | | | | | | | | | | V B 8 8 9 6   ",
"6 4   O 9 9 6 9 p p Z | | | | | | | | | | | | | | | | ( ( ( ( ( ) { { { { ' e 8 5 X k Z Z | | | | | | | ( | | ( E 9 9 9 8 9 6 $ ",
"6 4 X = 9 9 p p n M D U U D U Y | | | | ( ..( ( ( ..) { { [ { { { { { ] G F . , : & l | | | | | | | ( ( [ ( ( { W 8 8 9 9 9 9 6 ",
"0 4 + 6 9 p n n n n n n n n n n U U U Y ! ! ! ~ { { { { [ { { { { [ G J $ $ # . X t  .| | | | | | ( { { { { ! Q n 9 9 i u u i 8 ",
"6 4 + 9 0 g n n n n n n n n n n n n n n n n n M ~ ! ! ! ! ! ! ! ! R % 9 9 9 5   X t | | | | | |  .{ [ ! ! Q n n v 9 i n m v v 6 ",
"6 4 O 6 6 t n n n n n n n n n n n n n n n n n n n n M n n n n n n v u 9 9 9 4 . X 9 D U | | U | | ! Q n n n n n n i n n n n n 8 ",
"p 4 + 6 6 0 g n n n n n n m n n n n n n n n n n n n n n n n n n n m v u 9 9 4   o a m m U D m D P n n n n n n n n n n n n n d 8 ",
"x 4 o p t 6 6 g n n n n n n n n n n n n n n n n n n n n n n n n n n n n y 9 8 # o n n n n n n n n n n n n n n n n n n n f f 9 8 ",
"x 5 - n v p 6 p g n n n n n n n n n n n n n n n n n n n n n n n n n n n v 8 8 5 & n n n n m n n n n n n n n n m n n n f 9 9 8 8 ",
"x 0 t n M x t v p n n n n n n n n n n n n n n n n n n n n n n n n n n n v 9 8 9 0 n n n n n n n n n n m n n n n n n n 8 8 9 8 8 ",
"p 6 t M v x 0 M m n n n n n n n n n M n n n n n n M n n n n n n n n n n v 9 9 9 0 n n n n n n n m n n n n n n n n n n 8 9 8 8 8 ",
"9 9 t v n v p v n n m m n n n n n n n n n n n n n n n n n n n n n n m n n y 9 9 9 f g n n n n n n n n n n n n n n n n 9 9 9 9 8 ",
"9 9 0 g v g g n n n m m n n n m n n n n n n n n n n n n n n n n n n n n n b 9 8 8 9 0 n n n n m n n n n n n n n f k d 9 9 8 8 8 ",
"9 9 9 t b 6 t M n n n n n n n n n n n n n n n n n n n n n n n n n n n m n f 9 9 9 9 0 m n f g k f n n n n n g f 9 9 9 8 9 8 8 8 ",
"9 9 6 3 f 6 t v n n n m n n n n n n n n n n n n n n n n n n n M n n k f d 8 9 9 9 9 9 f d 9 8 9 j Z Z n n v 9 9 9 9 u 8 9 8 8 8 ",
"p 6 4 o 6 9 t v n n n n n n n n n n n n n m n n n n n n n n n g f d 9 9 9 9 9 8 9 9 8 8 8 8 8 l | | | n n n u u u i n 8 8 8 8 , ",
"g 6 4 X < 9 t M n n n n n n n n n n n n n n n n n n n n n n g w 9 9 9 9 u u y 9 9 9 u h h s l | | | } n n n n n n n n 8 8 8 8 . ",
"M 6 4   o 6 0 g n M n n n n n n n n n n n n n n n n m Z Z Z N f h u u i n n n 6 9 9 M | | | | | | D D m n n n n n n n 8 8 8 5   ",
"g 6 4   o 9 9 t n n n n n n n n n n m n n n n n n Z Z | | | | | D M n n n n f 9 9 0 x P | | P Y D n n n n n n n n n n 8 8 8 ,   ",
"x 6 3   o 6 9 p n n n n n n n n n n n n n n n n m D U U U U U D n n n n n f 9 9 9 8 0 M P D n n m m m n n n n n n n M 9 8 ,     ",
"x 6 :   o 6 t n n n n n n n n n n n n n m n n n n n n n m m n n n n n n v 8 8 8 < 9 9 f n n n n n n n n n n n n n n f 8 8 .     ",
"d 4     o , t v n n n n n n n n n m n n m m n n m n n n n n n n n n n n v 9 6 5 X 9 9 0 g n n n n n n n n n n n n n 8 8 8 # * * ",
"6 :       o t M n m n n n n n n n n n n n m n n n n n n n n n n n n n n f 6 6 5 X 2 8 8 0 n n n n n n n n n n m n n 8 8 y i n n ",
";         X 0 M n n n n n n n n n n n n n n n m n n n n n n n n n n n g 8 8 8 5   . < 9 9 g n n n n n n n n n n n b u d n n n n ",
"        @ * t v n n n n n n m m n n n n m n n n n n n n n n n n n n M b 8 0 6 5     X , 9 9 k l g n n m n n n n n n Z D n n n n ",
"; - & o 9 9 0 g n n n n n n m n n n n n n n n n n n n n n n n n n n n f 8 8 5 ,   . * - u h s p i n g n n Z Z Z Z Z | N n n n b ",
"E v f O 9 6 9 t n n n m n n n n n n n n n n n n n n n n n n n n n n f 8 8 6 5   . X a n M Y | | N Z Z Z Z } | | | | | g n n n f ",
"U n g X , 9 9 0 x v n n n n m n n n n n n n n n n n n n n n n n M f 9 9 8 8 ,       X i L L ..| | | | | | | | | | | | n n g f 8 ",
"D n f   o 6 9 9 0 f g M n n n n n n n n n n n n n n n n n n n g d 9 8 8 8 ,           + [ { { ........| | | | | | | E g f 8 8 8 ",
"Z b q   o p t 6 9 9 9 g n n n n n n n n n n n n n n n M g M v 9 8 8 0 8 5             O J { { { { { { ......| | } Z C 9 9 9 8 8 ",
"W d     @ v v p t p p g N n n n n n n n n n n n n n n n M M f 8 , < , < :     . @ @     + ` ` ` ` { { { ~ ~ Y D Z 6 9 8 9 8 8 8 "
};
