/* XPM */
static char *wall2[] = {
/* columns rows colors chars-per-pixel */
"64 64 191 2 ",
"   c #161C2E",
".  c #191F31",
"X  c #1F272F",
"o  c #1B2434",
"O  c #1F2837",
"+  c #1E2939",
"@  c #20272F",
"#  c #262F34",
"$  c #212C3B",
"%  c #2A3134",
"&  c #2A3437",
"*  c #23303F",
"=  c #343E38",
"-  c #5B6E3A",
";  c #5E703D",
":  c #6C733E",
">  c #253242",
",  c #2A3742",
"<  c #2E3C46",
"1  c #2C3C49",
"2  c #323E49",
"3  c #2E434F",
"4  c #364646",
"5  c #33444C",
"6  c #37484F",
"7  c #374950",
"8  c #344B57",
"9  c #3A4D53",
"0  c #3D5157",
"q  c #37505B",
"w  c #3B535B",
"e  c #3E5762",
"r  c #3D5B63",
"t  c #435454",
"y  c #455B5E",
"u  c #59714F",
"i  c #526A5C",
"p  c #5A785A",
"a  c #647B46",
"s  c #677A56",
"d  c #465E61",
"f  c #485F61",
"g  c #455F69",
"h  c #4B6464",
"j  c #4F6967",
"k  c #45646C",
"l  c #4B666B",
"z  c #4F6968",
"x  c #546D64",
"c  c #596F62",
"v  c #516C6B",
"b  c #567263",
"n  c #5A7364",
"m  c #53706E",
"M  c #59726C",
"N  c #5C7968",
"B  c #4A6770",
"V  c #476A71",
"C  c #4C6A72",
"Z  c #526F71",
"A  c #4D7278",
"S  c #547272",
"D  c #597674",
"F  c #5D7A76",
"G  c #577C7B",
"H  c #597E7E",
"J  c #607564",
"K  c #627A74",
"L  c #5D8057",
"P  c #6B8346",
"I  c #6E854C",
"U  c #79854F",
"Y  c #728A4C",
"T  c #79894D",
"R  c #6D8352",
"E  c #778552",
"W  c #7BA35D",
"Q  c #7FAA5F",
"!  c #5A807F",
"~  c #6D936C",
"^  c #789C64",
"/  c #75A162",
"(  c #79A762",
")  c #7BA962",
"_  c #83894E",
"`  c #828A51",
"'  c #86A049",
"]  c #8CA64B",
"[  c #8EAA4F",
"{  c #97AA4E",
"}  c #91AD4C",
"|  c #95B24D",
" . c #99B64F",
".. c #9BB94E",
"X. c #8BAA53",
"o. c #83AD5C",
"O. c #88A85C",
"+. c #9EA351",
"@. c #92AF51",
"#. c #9CAD55",
"$. c #94AF5F",
"%. c #9DAA5C",
"&. c #8EB256",
"*. c #8AB058",
"=. c #93B552",
"-. c #97B358",
";. c #A7AA57",
":. c #A1B753",
">. c #AAB454",
",. c #A5B853",
"<. c #ABB855",
"1. c #A2B35C",
"2. c #B2BA56",
"3. c #B2B45A",
"4. c #B6B85A",
"5. c #BABA59",
"6. c #899A62",
"7. c #81AB60",
"8. c #8DAD60",
"9. c #90AE61",
"0. c #557C82",
"q. c #5B7C84",
"w. c #5B8484",
"e. c #5D8887",
"r. c #5D8189",
"t. c #5D8A8B",
"y. c #5F8F90",
"u. c #5F9193",
"i. c #638787",
"p. c #678984",
"a. c #648C8B",
"s. c #688D8D",
"d. c #6D948D",
"f. c #629495",
"g. c #6C9393",
"h. c #639798",
"j. c #669C9C",
"k. c #689E9E",
"l. c #719C9B",
"z. c #6DA19F",
"x. c #73A39E",
"c. c #79A29E",
"v. c #6BA1A1",
"b. c #73A4A2",
"n. c #79A6A7",
"m. c #79A8A1",
"M. c #75ABAB",
"N. c #79AEAF",
"B. c #7AAFB0",
"V. c #7CB3B4",
"C. c #96A58E",
"Z. c #96AB94",
"A. c #9DB096",
"S. c #9BB29B",
"D. c #92B8A7",
"F. c #9EBDA7",
"G. c #82B5B5",
"H. c #86B8B7",
"J. c #81B7B8",
"K. c #86BDBD",
"L. c #89BDBD",
"P. c #98BEB2",
"I. c #A8BEA4",
"U. c #9DC0AB",
"Y. c #8DC1BF",
"T. c #9BC5BA",
"R. c #9DC7BA",
"E. c #A3C3AB",
"W. c #AAC6AC",
"Q. c #ACC8AE",
"!. c #B7CBAB",
"~. c #A8CAB7",
"^. c #A5CDBE",
"/. c #AACFBD",
"(. c #B3CFB4",
"). c #AFD1BB",
"_. c #BED4B3",
"`. c #B2D1BA",
"'. c #B8D4BA",
"]. c #C1D0AB",
"[. c #C8D6AF",
"{. c #C1D6B4",
"}. c #C6D9B5",
"|. c #CBDCB5",
" X c #C0D7B8",
".X c #C2D9B9",
"XX c #D0DEB5",
"oX c #88BFC0",
"OX c #8CC3C4",
"+X c #92C5C2",
"@X c #9FCBC0",
/* pixels */
"( o. . . . . . ..... ...} P P a a u h h h 5 . > B J.oXoXOXOXOXOXOXV.M.k.q.Z z z v x c 6.3.;.6.~ ^ 9.8.) ( ( o.o.( ) o.o.o.( ) ( ",
") &.&.=.=.=.=.=..... .} I c x i h 9 9 9 6 @ o g B.oXOXOXOXOXOXOXOXoXoXB.j.q.S v m v x E ` ` s s s ` ;.O.W Q =.=.o.*. . .&.o.) ( ",
"( ) ) ) ) ) Q o.&.&.X.Y x z h 0 9 $ o o .   > n.OXOXOXOXOXOXOXOXOXOXOXoXN.b.g.s.s.i.m M x c c x c c s _ R I }  . . . .....&.) ( ",
") ) ) 9.9.8.8.$.9.$.R n x v h 0 k e + o o   > B.OXOXOXOXOXOXOXOXOXOXOXOXOXL.K.K.L.G.g.s.i.Z B v B x x M x n T { ..........&.) ) ",
"*.9.9.4.4.4.5.4.3.;.J j z v H a.B.M.V k r + * M.OXOXOXOXOXOXOXOXOXOXOXOXOXOXOXOXOXOXOXK.H.s.S v v H H G v v n T [  .....=.*.o.8.",
"<.2.2.4.2.2.>.;._ U x v S w.b.K.OXOXJ.J.M.w , t.oXOXoXoXOXOXOXOXOXOXOXOXOXOXOXOXOXOXOXOXOXH.g.a.D g.h.f.w.H v b Y |  ...=.*.*.<.",
"....:..... .T I n x v S a.M.K.OXOXOXOXOXY.u.V V B.V.J.oXoXoXoXoXOXOXOXOXOXOXOXOXOX+X+XOX+X^.^.U.g.k.k.j.f.f.! v p I | ..........",
"..........X.p M G G S s.G.oXOXOXOXOXOXOXOXV.V.M.v.k.k.V.oXoXV.V.OXOXOXOXOXOX+X^.^./.^.^./.}.|._.L.M.k.j.j.j.f.S j n X...........",
"........| Y m w.f.f.t.G.OXOXOXOXOXOX+XOXOXOXOXOXM.v.v.v.v.M.v.v.V.V.V.OXR.@X^._.}..X}.}.}.}.}.(.OXV.v.u.j.j.h.w.m b Y |  .......",
"........[ N ! u.j.j.z.K.OXOXOXOXOXOXOXOXOXOXOXOXK.M.M.j.j.v.v.j.v.j.v.V.U.U.E.E.W.E.E.W.W.E.E.H.V.v.v.v.z.j.j.h.! z n }  .......",
"......| Y N u.v.j.j.v.L.OXOXOXOXOXOXOXOXOXOXOXOXOXoXK.v.j.v.M.M.M.v.k.z.z.z.z.v.z.b.v.b.v.z.v.v.v.M.M.M.M.v.j.j.u.m n =.........",
"......} N ! u.j.j.j.k.V.^.^.+XOXOXOXOXOXOXOXOXOXOXOXK.v.j.v.K.oXK.M.v.j.j.j.v.M.M.M.M.M.M.M.M.M.M.OXOXOXV.M.v.j.h.m n &.........",
"......=.N u.v.v.h.t.j.m._..X+X+XY.OXOXOXOXOXOXOXOXOXK.v.j.v.oXOXOXK.M.v.j.v.N.Y.OXY.OXOXOXY.OXOXOXOXOXOXOXK.z.j.h.Z N -.,.......",
":...=.o.N u.u.j.t.D h.x._.|././.^.Y.+XOXOXOXOXoXOXoXV.v.j.v.oXOXOXOXK.M.j.v.V.OXOXOXOXOXOXOXOXOXOXOXOXOXOXK.v.j.h.Z J ;.2.,.,.<.",
"1.-.o.^ N w.e.w.S S f.z.E.|.|.|.}./.^.^.@X@XoXV.V.V.v.j.j.v.oXOXOXOXOXK.v.v.OXOXOXOXOXOXOXOXOXOXOXOXOXOXOXOXM.k.h.v n %.1.1.1.1.",
"7.( / / m z m ! ! w.j.j.c.{.|.|.XX|.|..X.XR.V.v.v.v.j.j.v.V.oXOXOXOXOXOXM.v.V.OXOXOXOXOXOXOXOXOXOXOXOXOXOXOXK.z.h.S M / ) 7.7.) ",
"( ( / p x z S h.j.u.k.k.v.U.W.}.|.|.}.Q.U.m.z.j.j.j.j.v.M.oXOXOXOXOXOXOXoXM.M.OXOXOXOXOXOXOXOXOXOXOXOXOXOXOXK.v.u.w.b L ( ( ( ( ",
") ( / b z z ! j.k.v.M.M.v.v.v.U.E.E.~.V.N.z.j.j.j.k.M.N.K.OXOXOXOXOXOXOXOXOXV.OXOXOXOXOXOXOXOXOXOXOXOXOXOXOXK.v.z.u.m b W ( ( ( ",
"7.o./ M z Z u.z.M.M.oXoXM.v.v.v.z.b.Y.Y.oXM.z.j.k.v.K.oXOXOXOXOXOXOXOXOXOXOXOXOXOXOXOXOXOXOXOXOXOXOXOXOXOXOXV.v.u.u.A b *.o.Q o.",
"..=.W n z ! h.v.J.oXOXOXoXM.M.k.z.v.Y.OXOXK.N.M.v.v.oXOXOXOXOXOXOXOXOXOXOXOXOXOXOXOXOXOXOXOXOXOXOXOXOXOXOXOXv.v.j.t.m b X.=.&.=.",
"..| : j m u.z.M.OXOXOXOXOXoXK.V.M.v.V.oXY.OXoXK.v.v.K.OXOXOXOXOXOXOXOXOXOXOXOXOXOXOXOXOXOXOXOXOXOXOXOXOXOXOXN.v.t.S j i Y @. ...",
"..} = 7 z h.v.Y.OXOXOXOXOXOXOXOXoXM.v.V.V.V.V.N.k.M.oXOXOXOXOXOXOXOXOXOXOXOXOXOX+XOXOX+XOX+X+XOXOXOXOXOXOXY.OXM.S h 9 0 i Y =...",
"<.;.% o q u.v.V.OXOXOXOXOXOXOXOXOXoXM.v.v.v.v.k.v.V.oXOXOXOXOXOXOXOXOXOXOXOXOXOX+X+X+X@X^.^.^.~.^.^.Y.Y.V.V.N.u.v h + o 7 i =.,.",
"5.;.%   * y.v.OXOXOXOXOXOXOXOXOXOXOXK.M.M.k.k.k.k.v.V.OXOXOXOXOXOXOXOXOXOXOXOXOX@X@X/.|.|.|.|.}..XR.V.V.v.z.z.y.0 5 o   o % ;.5.",
"2.+.%   $ t.v.V.OXOXOXOXOXOXOXOXOXOXOXoXK.V.M.j.j.j.v.V.Y.OXOXOXOXOXOXOXOXOXOXOX/.`.}.|.|.|.}.W.U.b.j.v.j.h.t.V > o o o   o : >.",
"..] @ X 1 w.h.v.K.OXOXOXOXOXOXOXOXOXOXOXOXoXJ.v.j.j.v.v.K.OXOXOXOXOXOXOXOXOXOXOXOXT./.`.`.(.F.d.a.u.u.v.k.h.w.k q q 8 8 o   & ] ",
"..] # O d m e.t.B.OXOXOXOXoXOXOXOXOXOXOXOXOXoXv.j.j.j.v.N.V.K.Y.OXOXOXOXOXOXOXV.G.V.G.G.G.N.s.S m w.u.v.k.v.v.v.v.v.f.t.q o % ' ",
"..' & < h z S w.j.B.V.V.V.V.OXOXOXOXOXOXOXOXoXv.v.j.j.j.u.z.M.V.J.J.V.V.V.V.V.v.k.k.j.j.a.e.m x m u.j.j.M.N.K.OXOXK.v.j.t.5 4 - ",
"| P 6 f x v w.u.j.v.v.v.v.v.K.OXOXOXOXOXOXOXoXV.M.j.j.j.A t.! z.k.k.k.v.j.j.j.j.h.t.t.t.S S v v m u.j.z.V.OXOXOXOXK.v.z.u.z y # ",
"@.p h h v v u.j.j.j.u.v.M.v.V.OXOXOXOXOXOXOXOXoXK.v.j.j.! V ! ! t.h.j.f.y.t.y.y.a.S S s.s.p.S v m w.e.t.b.OXOXOXK.V.j.z.h.z 6 o ",
";.n z v h y y.j.z.v.v.v.K.M.V.oXOXOXOXOXOXOXoXJ.V.v.j.j.! V b V S e.a.t.D D a.s.s.s.g.J.L.H.g.i.S m S w.j.Y.OXOXV.v.v.u.e.h +   ",
"#.n z z f 1 y.j.u.v.M.M.OXoXoXOXOXOXOXOXOXK.V.v.v.j.j.j.u.! ! ! H w.r.u.s.g.V.oXK.K.L.OXOXOXL.G.g.s.s.k.V.OXK.V.v.j.u.e.m h o   ",
"; 0 h h 8 > y.k.k.M.OXOXOXOXOXOXOXOXOXOXoXV.N.M.M.M.M.M.M.j.j.j.b.M.M.J.L.L.OXOXOXOXOXOXOXOXOXOXOXOXoXV.V.V.V.v.v.u.w.S z y o   ",
"X o 5 3 o $ r.j.v.oXOXOXOXOXOXOXOXOXOXOXOXoXOXOXOXoXOXOXoXN.N.V.K.oXOXOXOXOXOXOXOXOXOXOXOXOXOXOXOXOXOXoXv.z.v.u.j.t.m j h 7 o   ",
"    o o   o k h.v.oXOXOXOXOXOXOXOXOXOXOXOXOXOXOXOXOXOXOXOXoXOXOXOXOXOXOXOXOXOXOXOXOXOXOXOXOXOXOXOXOXOXoXM.z.j.t.w.S j 0 7 +     ",
"        o   > g.B.oXOXOXOXOXOXOXOXOXOXOXOXOXOXOXOXOXOXOXOXOXOXOXOXOXOXOXOXOXOXOXOXOXOXOXOXOXOXOXOXOXOXOXJ.z.j.w.Z z j 7 5 , .   ",
"    o & , . $ q.J.OXOXOXOXOXOXOXOXOXOXOXOXOXOXOXOXOXOXOXOXOXOXOXOXOXOXOXOXOXOXOXOXOXOXOXOXOXOXOXOXOXOXOXV.k.h.w.S G G D h y o   ",
"  o < d f < . 1 M.OXOXOXOXOXOXOXOXOXOXOXOXOXOXOXOXOXOXOXOXOXOXOXOXOXOXOXOXOXOXOXOXOXOXOXOXOXOXOXOXOXoXoXv.j.t.S ! u.j.u.v h o   ",
"  o y j z f < $ q.^.^.+XOXOXOXOXOXOXOXOXOXOXOXOXOXOXOXOXOXOXOXOXOXOXOXOXOXOXOXOXOXOXOXOXOXOXOXOXOXJ.V.B.j.r.A m u.j.j.f.m f o   ",
"  o h z z z y $ 2 I..X/.+X+XOXoXOXOXOXOXOXOXoXV.V.OXOXOXOXOXOXOXOXOXOXOXOXOXOXOXOXOXOXOXOXOXOXOXoXV.M.u.t.A z C w.e.e.w.v f +   ",
"o < h v v v h < & C.!.{.~.^.^.+XOXOXOXOXK.V.V.v.v.oXOXOXOXOXOXOXOXOX+XOXOXOXOXOXOXOXOXOXOXOXOXOXOXOXV.t.w.w.G v z m m v z y o   ",
"o y z z z v v d 5 t C.Z.].}.{.~.@X@XV.V.V.v.v.v.M.OXOXOXOXOXOXOXOXOXOXOXOXOXOXOXOXOXOXOXOXOXOXOXY.V.V.h.h.h.f.H z z z z j 7 o   ",
"o h j z v G G v h h S K C.A.A.A.T.F.x.z.v.j.M.M.OXOXOXOXOXOXOXV.OXOXOXOXOXOXOXOXOXOXOXOXOXOXOXoXV.v.v.j.j.j.j.u.S z j j y +     ",
"o h x z ! f.f.q.m v v z S M D F k.k.j.j.j.v.K.OXOXOXOXOXOXOXV.v.OXOXOXOXOXOXOXOXOXOXOXOXOXOXOXoXB.M.M.v.z.j.h.w.z h 9 7 5 o     ",
"o y j m f.j.j.h.w.G z z v z v z e.e.e.t.k.D.Y.OXOXOXOXOXOXoXv.v.OXOXOXOXOXOXOXOXOXOXOXOXOXOXOXOXOXOXV.V.M.b.A 0 9 5 o . o       ",
"o 7 h m f.j.j.j.j.u.w.G m v z z v m m w.x.(.+XOXOXOXOXOXOXOXv.M.OXOXOXOXOXOXOXOXOXOXOXOXOXOXOXOXOXOXOXOXY.P.C > o o   o , o     ",
"  + h m u.j.z.j.j.j.h.f.w.G h 0 j G w.j.D._.T.OXOXOXOXOXOXoXv.V.oXOXOXOXOXOXOXOXOXOXOXOXOXOXOXOXOXOXOXOX/._.b.q o   o < y < .   ",
"  o f m t.h.j.j.j.z.j.j.j.t.9 * l a.h.z._.|.^.OXOXOXOXOXOXoXv.v.B.OXOXOXOXOXOXOXOXOXOXOXOXOXOXOXOXOX+X^.}._.b.t.5 o < h j y o   ",
"  o y z v t.h.j.j.j.j.v.j.y.* o 9 q.j.v.E.|.|./.^.+XOXOXOXoXv.h.q.J.OXOXOXOXOXOXOXOXOXOXOXOX+XOXOX+X^.}.}.E.z.h.h * Z ! j h 3 o ",
"  o 7 j v m e.j.j.j.j.j.j.t.+ . $ l u.j.c._.|.|.}././.^.+XL.v.t.8 B.OXOXOXOXOXOXOXOX+X+X+X^.^.^./.).}.|.E.z.z.u.m r u.u.Z j w X ",
"    + h j v m w.t.j.j.j.u.k + 3 * q A u.z.E.{.|.|.|.|.}./.R.j.k > 0.J.OXOXOXOXOX+X@X^.^./.}.|.|.|.|.XX_.x.z.z.h.w.u.j.h.m j f O ",
"    o 5 9 h h v v i.f.u.V $ * w.B k k u.z.x.U.W.}.|.|.XX|.!.Z + . > q.J.OXOXOXOX+X.X}.|.|.XXXXXXXXXX}.E.z.j.j.j.h.j.j.u.m x f o ",
"      o o 6 0 j V A w.V * + q u.V.V.M.M.k.k.v.v.U.E.W.{.}.S.5 o   . > q.H.oXoXoX+X/.'.|.XXXXXXXX|.}.E.x.z.j.j.t.t.j.j.f.m z h + ",
"          o * A ! w.0.k q r u.v.oXOXoXoXB.M.v.v.z.x.m.U.U.z.B r > > 1 t g.c.c.b.Y.OXT.{.[.|.|.[.W.U.v.j.j.j.h.S S f.h.w.z z y o ",
"    o , , o 5 u.u.h.u.u.u.u.j.v.oXOXOXOXoXoXV.M.M.M.M.b.z.z.G.M.C z B l S S S D l.b.x.A.S.E.U.U.x.z.j.j.j.h.e.z v w.e.Z v j 7 o ",
"    < y y 6 h f.z.z.v.M.M.v.j.v.oXOXOXOXOXOXOXOXOXY.K.N.M.N.Y.Y.G.g.i.S v v v v m m m D F z.b.v.z.j.j.z.j.e.m m v m z x j y +   ",
"  + y j j h m f.u.v.v.K.oXM.v.v.oXOXOXOXOXOXOXOXOXOXOXOXoXoXOXOXoXL.oXg.s.s.q.D z m z G w.h.j.j.k.j.j.k.h.D S i.i.S v v h 9 .   ",
"  o y j j j m e.j.M.M.oXOXK.V.M.oXOXOXOXOXOXOXOXOXOXOXOXOXOXOXOXoXoXoXoXoXH.N.q.G ! w.h.h.j.j.v.j.j.j.j.k.s.g.G.G.g.v h 7 o     ",
"  o 6 h z z z A z.K.oXOXOXOXOXoXOXOXOXOXOXOXOXOXOXOXOXOXOXOXOXOX+XoXOXOXoXoXb.j.j.h.j.j.z.u.v.u.j.j.y.u.M.J.L.OXOXG.Z 9 $       ",
"    + h j v z m u.Y.OXOXOXOXOXOXoXOXOXOXOXOXOXOXOXOXOXOXOXOXOXOX+X+XOXOXoXoXn.k.j.j.j.j.j.z.v.v.k.j.g.g.K.OXOXOXOXG.v 5 , .     ",
"    o 5 h z m m u.V.oXOXOXOXOXOXV.oXOXOXOXOXOXOXOXOXOXOXOXOXOX+X^.^.^.~.n.c.k.j.j.j.k.v.M.M.M.M.M.N.H.L.OXOXOXoXL.l.Z h y o     ",
"      $ h b z m y.v.oXoXOXoXoXoXM.B.oXOXOX+XOXOXOXOXOX+X+X+X+X/.}.|.|.].p.S Z C u.j.v.M.oXOXoXOXoXoX+XOXOXOXoXn.l.D v z f @     ",
"      o A ! ! m A h.V.V.V.V.oXK.v.v.J.OX+X+X+XOX+X@X/./.^.^./.}.XXXX].I.S l d 1 w.M.N.oXoXOXOXOXOX+X^.+X+X^.P.K Z v v z h < .   ",
"      $ t.u.u.! m t.k.v.v.v.V.V.v.j.M.@X@X@X@X@X/..X|.|.}.|.|.XXXX[.C.C.< 9 9 5 r.K.oXOXOXOXOXOX^./.'.^.^. XI.D z z z v z d o   "
};
