/* XPM */
static char *wall2[] = {
/* columns rows colors chars-per-pixel */
"64 64 24 1 ",
"  c #161C2E",
". c #2B3843",
"X c #334B56",
"o c #3B4E54",
"O c #415964",
"+ c #506A69",
"@ c #496E75",
"# c #587D7C",
"$ c #5E8A8A",
"% c #61868E",
"& c #668A8A",
"* c #669D9D",
"= c #76A3A3",
"- c #74ABAB",
"; c #7EB5B6",
": c #8C9784",
"> c #A1B499",
", c #8CB5A6",
"< c #A9C6AC",
"1 c #A5CDBF",
"2 c #B7D4BA",
"3 c #D0DEB5",
"4 c #8CC3C4",
"5 c None",
/* pixels */
"555555555555555555+++o  O44444444--*#+++++5555555555555555555555",
"5555555555555++++oooo  O44444444444-*#+++++555555555555555555555",
"555555555555+++oo      4444444444444--&&&&++++++++55555555555555",
"55555555555++++.OO     4444444444444444444&&&+++++++++5555555555",
"5555555555++++#&44OOO  4444444444444444444444&+++###+++555555555",
"5555555555+++#-444444X %4444444444444444444444&&+***##++55555555",
"55555555++++&-4444444*OX;;;444444444444444444111&*****#++5555555",
"555555++##+&444444444-4-***;;4;;44444441111113334-*****+++555555",
"555555+#**#4444444444444-****;**;;;41113333333324;*****#++555555",
"55555+#****44444444444444--********;<<<<<<<<<<<;;*******#++55555",
"55555+*****4444444444444444***---****************----****++55555",
"5555+#*****;114444444444444***444-*****----------4444-***++55555",
"5555+****$**334444444444444***4444-***-444444444444444***++55555",
"5555+***$+**33111444444444;***44444-**4444444444444444***++55555",
"5555+$$$++**<3333111114;;;****444444**4444444444444444-**++55555",
"5555+++###***33333333<;******-444444-*;4444444444444444**++55555",
"5555+++******<<3333<<*******-44444444-*4444444444444444**#+55555",
"555+++#***--***<<<2--*****--4444444444-4444444444444444***++5555",
"555+++**--44-*****444-****4444444444444444444444444444;***++5555",
"555++#**44444--***4444--**4444444444444444444444444444***$++5555",
"555++**-4444444--*;44444**4444444444444444444444444444--$+++5555",
"55 o+**4444444444-*;;;;;*-44444444444444444444444444444;++oo+555",
"55  o**44444444444-******;44444444444444444111111144;;;*++  o@55",
"55   **444444444444--*****;4444444444444111333333<;;****oo    55",
"55   **;4444444444444--****;4444444444442233333<<*****$@      55",
"55  .$**444444444444444*****444444444444442222<$$$****#XXXXX   5",
"55  ++$$;44444444444444*****;;444444444;;;;;;;$++#****----**X  5",
"55 .+++#*;;;;;444444444*****$*;;;;;;;;;*****$$+++***--4444***..5",
"55.+++#*******444444444--***+$$**********$$$+++++***444444***++ ",
"5+++++******-*;4444444444***+++$$***$$$$$++&&&+++$$$=4444;***+o ",
"5++++o******4--44444444;;***#++++$$$++&&&&&444&&+++#&444;***$+  ",
"5++++ ****--444444444;;******######&&&4444444444&&&*444;***$++  ",
"5o++o ***-44444444444--------***---4444444444444444-;;;***$+++  ",
"  oo  ***44444444444444444444---44444444444444444444*****$+++o  ",
"      @**4444444444444444444444444444444444444444444-**$$++oo   ",
"       --44444444444444444444444444444444444444444444**#+++...  ",
"   ..  %44444444444444444444444444444444444444444444;**$+###++  ",
"  .++.  44444444444444444444444444444444444444444444**$+#***++  ",
"  ++++. %1144444444444444444444444444444444444444;;;*$++****++  ",
"  +++++  33144444444444;;444444444444444444444444--$$+++$$$$++  ",
" .+++++. :33111444444;;**44444444444444444444444444####+++++++  ",
" +++++++..>>333111;;;***-444444444444444444444444;;****#+++++o  ",
" ++++##+++++>>>><<****--4444444;444444444444444;;*******+++++   ",
" +++#**#++++++++******44444444;*444444444444444----****$++ooo   ",
" +++****##++++++$$$$*,44444444**4444444444444444444---@ooo      ",
" o++******##+++++++#*344444444*-4444444444444444444441O     .   ",
"  ++********##+o+##*,344444444*;4444444444444444444413;X   .+.  ",
"  ++$*********o +***3314444444**;444444444444444444133**. .+++  ",
"  +++$********  o$**<331144444**@44444444444444444133<**+ ##++. ",
"  o+++$*******   +***333311144** 4444444444441111133<***+X**+++ ",
"   ++++$$****@ X o@**<33333311*@ %444444411113333333****#***+++ ",
"   oo++++$**@  *OOX***<<333333@   %4444443333333333<********+++ ",
"     oo+++$@  X*44--****<<<33<     %44444223333333<****$$***+++ ",
"       ####XXX**4444--*****<<*OO ...====44433333<<*****++**$+++ ",
"   .. .*********444444-----***44O+++++++===>><<<******$++$$+++o ",
"  .++.+****--***44444444444---444&&++++++++++********$++++++++  ",
"  +++++****44-**4444444444444444444&&&&++++##********++&&++++o  ",
"  +++++$*--444--4444444444444444444444;####**********&&44&++o   ",
"  o+++++*44444444444444444444444444444************$$-44444+o    ",
"   +++++*44444444444444444444444444444-***********&&444444+..   ",
"   o++++*;444444;4444444444444441111===*****------4444444=+++   ",
"    ++++$*444444*;444444444444413333#++@***-44444444444==++++   ",
"    ###++*;;;;44**;44444411111133333@++ $--444444414411++++++.  ",
"    ***#+$****;;***111111333333333:: oo.&4444444113113<+++++++  "
};
